G04 Layer_Color=8388736*
%FSTAX25Y25*%
%MOIN*%
G70*
G01*
G75*
%ADD11C,0.07000*%
%ADD44C,0.01000*%
%ADD99C,0.03500*%
%ADD118C,0.08000*%
%ADD119R,0.18717X0.06512*%
%ADD120R,0.12024X0.10449*%
%ADD121R,0.08283X0.14386*%
%ADD122R,0.02961X0.01583*%
%ADD123R,0.07093X0.10243*%
%ADD124R,0.22260X0.12417*%
%ADD125R,0.09071X0.09071*%
%ADD126R,0.02200X0.04169*%
%ADD127R,0.04169X0.02200*%
%ADD128R,0.03400X0.02000*%
%ADD129R,0.04307X0.10449*%
%ADD130R,0.10646X0.19504*%
%ADD131R,0.18717X0.10449*%
%ADD132R,0.19504X0.10646*%
%ADD133R,0.20700X0.08100*%
%ADD134R,0.06906X0.02772*%
%ADD135O,0.06906X0.02772*%
%ADD136R,0.07890X0.03559*%
%ADD137R,0.08087X0.05528*%
%ADD138R,0.05528X0.06709*%
%ADD139R,0.03165X0.03559*%
%ADD140R,0.03559X0.03165*%
%ADD141R,0.06709X0.05528*%
%ADD142R,0.04937X0.04543*%
%ADD143R,0.14189X0.05921*%
%ADD144R,0.03441X0.03441*%
%ADD145R,0.05134X0.06512*%
%ADD146R,0.06512X0.05134*%
%ADD147R,0.12000X0.16000*%
%ADD148R,0.04543X0.04937*%
%ADD149R,0.11630X0.05921*%
%ADD150C,0.06906*%
%ADD151R,0.06906X0.06906*%
%ADD152C,0.06900*%
%ADD153C,0.08880*%
%ADD154C,0.08487*%
%ADD155C,0.07700*%
%ADD156C,0.13211*%
%ADD157C,0.08500*%
%ADD158C,0.16400*%
%ADD159C,0.16000*%
%ADD160R,0.06906X0.06906*%
%ADD161C,0.03700*%
G36*
X0258476Y0259035D02*
X0255524D01*
Y0262185D01*
X0256311D01*
Y026061D01*
X0257689D01*
Y0262185D01*
X0258476D01*
Y0259035D01*
D02*
G37*
G36*
Y0247815D02*
X0257689D01*
Y024939D01*
X0256311D01*
Y0247815D01*
X0255524D01*
Y0250965D01*
X0258476D01*
Y0247815D01*
D02*
G37*
D11*
X01852Y02217D02*
D03*
Y02374D02*
D03*
Y02531D02*
D03*
X01943Y02969D02*
D03*
Y03126D02*
D03*
Y03283D02*
D03*
Y03719D02*
D03*
Y03876D02*
D03*
Y04033D02*
D03*
D44*
X0243816Y008164D02*
Y0089638D01*
X0246482D01*
X024115D01*
X025048Y0086972D02*
X0249147Y0085639D01*
Y0082973D01*
X025048Y008164D01*
X0253146D01*
X0254479Y0082973D01*
Y0085639D01*
X0253146Y0086972D01*
X025048D01*
X0257145D02*
X0261143D01*
X0262476Y0085639D01*
Y0082973D01*
X0261143Y008164D01*
X0257145D01*
Y0078974D02*
Y0086972D01*
X027314D02*
X0274472Y0085639D01*
X0277138D01*
X0278471Y0084306D01*
Y0082973D01*
X0277138Y008164D01*
X0274472D01*
X027314Y0082973D01*
Y0086972D02*
Y0088305D01*
X0274472Y0089638D01*
X0277138D01*
X0278471Y0088305D01*
X028247Y0086972D02*
X0281137Y0085639D01*
Y0082973D01*
X028247Y008164D01*
X0285136D01*
X0286469Y0082973D01*
Y0085639D01*
X0285136Y0086972D01*
X028247D01*
X0289134Y0089638D02*
X0290467D01*
Y008164D01*
X02918D01*
X0289134D01*
X0297132D02*
X0295799Y0082973D01*
Y0085639D01*
X0297132Y0086972D01*
X0301131D01*
Y0089638D02*
Y008164D01*
X0297132D01*
X0305129D02*
X0303796Y0082973D01*
Y0085639D01*
X0305129Y0086972D01*
X0307795D01*
X0309128Y0085639D01*
Y0084306D01*
X0303796D01*
X0305129Y008164D02*
X0307795D01*
X0311794D02*
Y0084306D01*
X0313127Y0085639D01*
X0314459Y0086972D01*
X0315792D01*
X0311794D02*
Y008164D01*
D99*
X0181Y0175154D02*
D03*
Y01785D02*
D03*
Y0181748D02*
D03*
X02485D02*
D03*
Y01785D02*
D03*
Y0175154D02*
D03*
X0315D02*
D03*
Y01785D02*
D03*
Y0181748D02*
D03*
X0382D02*
D03*
Y01785D02*
D03*
Y0175154D02*
D03*
X04485D02*
D03*
Y01785D02*
D03*
Y0181748D02*
D03*
X04634Y0307D02*
D03*
Y031D02*
D03*
Y0313D02*
D03*
D118*
X0177Y01125D02*
D03*
X01875D02*
D03*
X0244D02*
D03*
X0254D02*
D03*
X03105D02*
D03*
X03205D02*
D03*
X0377D02*
D03*
X0387D02*
D03*
X04435D02*
D03*
X0454D02*
D03*
X04775Y01605D02*
D03*
Y01871D02*
D03*
Y02005D02*
D03*
Y02205D02*
D03*
Y02405D02*
D03*
Y02505D02*
D03*
Y02605D02*
D03*
Y02705D02*
D03*
Y02804D02*
D03*
X0525Y02305D02*
D03*
Y02105D02*
D03*
Y01905D02*
D03*
Y01705D02*
D03*
Y02505D02*
D03*
Y02705D02*
D03*
Y02805D02*
D03*
X04573Y03402D02*
D03*
X03463Y02822D02*
D03*
X03455Y02355D02*
D03*
X0323Y03525D02*
D03*
X02396Y03798D02*
D03*
X022Y04035D02*
D03*
X02395Y0241D02*
D03*
X0239Y02225D02*
D03*
D119*
X0141638Y0219657D02*
D03*
Y0239342D02*
D03*
D120*
X0146216Y0286759D02*
D03*
X01222D02*
D03*
X0146216Y0331641D02*
D03*
X01222D02*
D03*
D121*
X0278575Y02495D02*
D03*
X0300425D02*
D03*
D122*
X0175193Y0173579D02*
D03*
X0186807D02*
D03*
Y0175547D02*
D03*
Y0177516D02*
D03*
Y0179484D02*
D03*
Y0181453D02*
D03*
Y0183421D02*
D03*
X0175193D02*
D03*
Y0181453D02*
D03*
Y0179484D02*
D03*
Y0177516D02*
D03*
Y0175547D02*
D03*
X0242693Y0173579D02*
D03*
X0254307D02*
D03*
Y0175547D02*
D03*
Y0177516D02*
D03*
Y0179484D02*
D03*
Y0181453D02*
D03*
Y0183421D02*
D03*
X0242693D02*
D03*
Y0181453D02*
D03*
Y0179484D02*
D03*
Y0177516D02*
D03*
Y0175547D02*
D03*
X0309193Y0173579D02*
D03*
X0320807D02*
D03*
Y0175547D02*
D03*
Y0177516D02*
D03*
Y0179484D02*
D03*
Y0181453D02*
D03*
Y0183421D02*
D03*
X0309193D02*
D03*
Y0181453D02*
D03*
Y0179484D02*
D03*
Y0177516D02*
D03*
Y0175547D02*
D03*
X0376193Y0173579D02*
D03*
X0387807D02*
D03*
Y0175547D02*
D03*
Y0177516D02*
D03*
Y0179484D02*
D03*
Y0181453D02*
D03*
Y0183421D02*
D03*
X0376193D02*
D03*
Y0181453D02*
D03*
Y0179484D02*
D03*
Y0177516D02*
D03*
Y0175547D02*
D03*
X0442693Y0173579D02*
D03*
X0454307D02*
D03*
Y0175547D02*
D03*
Y0177516D02*
D03*
Y0179484D02*
D03*
Y0181453D02*
D03*
Y0183421D02*
D03*
X0442693D02*
D03*
Y0181453D02*
D03*
Y0179484D02*
D03*
Y0177516D02*
D03*
Y0175547D02*
D03*
D123*
X0181Y01785D02*
D03*
X02485D02*
D03*
X0315D02*
D03*
X0382D02*
D03*
X04485D02*
D03*
D124*
X041Y0339405D02*
D03*
Y0377594D02*
D03*
D125*
X0257Y0255D02*
D03*
D126*
X0254047Y0248199D02*
D03*
X0259953D02*
D03*
Y0261801D02*
D03*
X0254047D02*
D03*
D127*
X0250199Y0251062D02*
D03*
Y0253031D02*
D03*
Y0255D02*
D03*
Y0256969D02*
D03*
X0263801D02*
D03*
Y0255D02*
D03*
Y0253031D02*
D03*
Y0251062D02*
D03*
Y0258938D02*
D03*
X0250199D02*
D03*
D128*
X045945Y0306063D02*
D03*
Y0308032D02*
D03*
Y031D02*
D03*
Y0311968D02*
D03*
Y0313937D02*
D03*
X046735D02*
D03*
Y0311968D02*
D03*
Y031D02*
D03*
Y0308032D02*
D03*
Y0306063D02*
D03*
D129*
X04634Y031D02*
D03*
D130*
X0370878Y03D02*
D03*
X0393122D02*
D03*
D131*
X02935Y0365984D02*
D03*
X02725D02*
D03*
X02935Y0389016D02*
D03*
X02725D02*
D03*
D132*
X0371Y0316878D02*
D03*
Y0339122D02*
D03*
D133*
X04829Y03178D02*
D03*
Y03322D02*
D03*
D134*
X0310173Y032225D02*
D03*
Y032475D02*
D03*
Y032725D02*
D03*
Y032975D02*
D03*
Y033225D02*
D03*
Y033475D02*
D03*
Y033725D02*
D03*
X0331827Y032725D02*
D03*
Y032475D02*
D03*
Y032225D02*
D03*
Y032975D02*
D03*
Y033225D02*
D03*
Y033475D02*
D03*
Y033725D02*
D03*
Y033975D02*
D03*
D135*
X0310173Y033975D02*
D03*
D136*
X0340524Y03615D02*
D03*
Y03665D02*
D03*
Y03715D02*
D03*
Y03765D02*
D03*
X0318476D02*
D03*
Y03715D02*
D03*
Y03665D02*
D03*
Y03615D02*
D03*
D137*
X02396Y0252795D02*
D03*
Y0264605D02*
D03*
X03Y0268595D02*
D03*
Y0280405D02*
D03*
D138*
X0257457Y0214D02*
D03*
X0264543D02*
D03*
Y02315D02*
D03*
X0257457D02*
D03*
X0257043Y02405D02*
D03*
X0249957D02*
D03*
X0277543Y02695D02*
D03*
X0270457D02*
D03*
X0292543Y0307D02*
D03*
Y03165D02*
D03*
X0285457D02*
D03*
Y0307D02*
D03*
X0286543Y0356D02*
D03*
X0279457D02*
D03*
X0339957Y03485D02*
D03*
X0345957Y0332D02*
D03*
X0353043D02*
D03*
X0353043Y0323D02*
D03*
X0345957D02*
D03*
X0347043Y03485D02*
D03*
X0459857Y03232D02*
D03*
X0466943D02*
D03*
D139*
X0253532Y02225D02*
D03*
X0257469D02*
D03*
X0256768Y02695D02*
D03*
X0252832D02*
D03*
D140*
X0248Y0218531D02*
D03*
Y0222468D02*
D03*
X0265Y0220532D02*
D03*
Y0224468D02*
D03*
X0286039Y0225665D02*
D03*
Y0221728D02*
D03*
X0291Y0226031D02*
D03*
Y0229969D02*
D03*
X0476Y0305432D02*
D03*
Y0309368D02*
D03*
D141*
X0278039Y0217154D02*
D03*
Y022424D02*
D03*
X0334Y0307457D02*
D03*
Y0314543D02*
D03*
X0356Y0345457D02*
D03*
Y0352543D02*
D03*
X03315Y0353543D02*
D03*
Y0346457D02*
D03*
X0288Y0347543D02*
D03*
Y0340457D02*
D03*
X0288Y0333043D02*
D03*
Y0325957D02*
D03*
D142*
X04514Y031085D02*
D03*
Y031715D02*
D03*
D143*
X0181Y0140689D02*
D03*
Y0164311D02*
D03*
X02485Y0140689D02*
D03*
Y0164311D02*
D03*
X0315Y0140689D02*
D03*
Y0164311D02*
D03*
X0382Y0140689D02*
D03*
Y0164311D02*
D03*
X04485Y0140689D02*
D03*
Y0164311D02*
D03*
D144*
X01685Y0178728D02*
D03*
Y0182272D02*
D03*
X02365Y0181772D02*
D03*
Y0178228D02*
D03*
X03025D02*
D03*
Y0181772D02*
D03*
X03695D02*
D03*
Y0178228D02*
D03*
X0436D02*
D03*
Y0181772D02*
D03*
D145*
X031726Y0306D02*
D03*
X032474D02*
D03*
Y03145D02*
D03*
X031726D02*
D03*
X030324Y0354D02*
D03*
X029576D02*
D03*
D146*
X0309Y029876D02*
D03*
Y030624D02*
D03*
D147*
X0248549Y03285D02*
D03*
X0220451D02*
D03*
X0310951Y0394D02*
D03*
X0339049D02*
D03*
D148*
X027385Y0333D02*
D03*
X028015D02*
D03*
Y034D02*
D03*
X027385D02*
D03*
X030335Y03465D02*
D03*
X030965D02*
D03*
D149*
X0264Y0327248D02*
D03*
Y0345752D02*
D03*
D150*
X014725Y01265D02*
D03*
X015725D02*
D03*
X016725D02*
D03*
X017725D02*
D03*
X018725D02*
D03*
X0213812D02*
D03*
X0223813D02*
D03*
X0233812D02*
D03*
X0243812D02*
D03*
X0253813D02*
D03*
X0280375D02*
D03*
X0290375D02*
D03*
X0300375D02*
D03*
X0310375D02*
D03*
X0320375D02*
D03*
X0346937D02*
D03*
X0356938D02*
D03*
X0366937D02*
D03*
X0376938D02*
D03*
X0386937D02*
D03*
X04135D02*
D03*
X04235D02*
D03*
X04335D02*
D03*
X04435D02*
D03*
X04535D02*
D03*
X04965Y01505D02*
D03*
X05065D02*
D03*
Y01605D02*
D03*
X04965D02*
D03*
Y01705D02*
D03*
X05065D02*
D03*
Y01805D02*
D03*
X04965D02*
D03*
Y01905D02*
D03*
X05065D02*
D03*
Y02005D02*
D03*
X04965D02*
D03*
Y02105D02*
D03*
X05065D02*
D03*
Y02205D02*
D03*
X04965D02*
D03*
Y02305D02*
D03*
X05065D02*
D03*
Y02405D02*
D03*
X04965D02*
D03*
Y02505D02*
D03*
X05065D02*
D03*
Y02605D02*
D03*
X04965D02*
D03*
Y02705D02*
D03*
X05065D02*
D03*
Y02805D02*
D03*
X04965D02*
D03*
X05065Y02905D02*
D03*
X033Y0236D02*
D03*
X0316D02*
D03*
X0249Y0361D02*
D03*
X0233Y03605D02*
D03*
D151*
X0316Y0246D02*
D03*
X033D02*
D03*
X0249Y0351D02*
D03*
X0233Y03505D02*
D03*
X04965Y02905D02*
D03*
D152*
X01773Y0208D02*
D03*
X02017Y0267D02*
D03*
X01778Y0283D02*
D03*
X02022Y0342D02*
D03*
X01778Y0358D02*
D03*
X02022Y0417D02*
D03*
D153*
X0121362Y0204697D02*
D03*
Y0254303D02*
D03*
D154*
X01399Y03092D02*
D03*
D155*
X01222Y03092D02*
D03*
D156*
X01202Y037D02*
D03*
D157*
X0137228Y0364094D02*
D03*
Y0375905D02*
D03*
D158*
X01175Y0410501D02*
D03*
D159*
X01175Y01195D02*
D03*
X05425Y0119501D02*
D03*
Y0410501D02*
D03*
D160*
X013725Y01265D02*
D03*
X0203813D02*
D03*
X0270375D02*
D03*
X0336937D02*
D03*
X04035D02*
D03*
D161*
X0254933Y0252933D02*
D03*
Y0257067D02*
D03*
X0259067D02*
D03*
Y0252933D02*
D03*
M02*
