G04 Layer_Color=2752767*
%FSTAX25Y25*%
%MOIN*%
G70*
G01*
G75*
%ADD10C,0.00200*%
%ADD44C,0.01000*%
%ADD117C,0.00800*%
%ADD163C,0.00400*%
%ADD164C,0.00267*%
%ADD165C,0.00133*%
%ADD166C,0.01280*%
D10*
X01167Y01187D02*
Y01203D01*
X01183D01*
Y01187D01*
X01167D01*
X01171Y01191D02*
Y01199D01*
X01179D01*
Y01191D01*
X01171D01*
X013645Y01257D02*
Y01273D01*
X013805D01*
Y01257D01*
X013645D01*
X014645D02*
Y01273D01*
X014805D01*
Y01257D01*
X014645D01*
X015645D02*
Y01273D01*
X015805D01*
Y01257D01*
X015645D01*
X016645D02*
Y01273D01*
X016805D01*
Y01257D01*
X016645D01*
X017645D02*
Y01273D01*
X017805D01*
Y01257D01*
X017645D01*
X018645D02*
Y01273D01*
X018805D01*
Y01257D01*
X018645D01*
X0203012D02*
Y01273D01*
X0204612D01*
Y01257D01*
X0203012D01*
X0213013D02*
Y01273D01*
X0214613D01*
Y01257D01*
X0213013D01*
X0223012D02*
Y01273D01*
X0224612D01*
Y01257D01*
X0223012D01*
X0233013D02*
Y01273D01*
X0234612D01*
Y01257D01*
X0233013D01*
X0243012D02*
Y01273D01*
X0244613D01*
Y01257D01*
X0243012D01*
X0253012D02*
Y01273D01*
X0254612D01*
Y01257D01*
X0253012D01*
X0269575D02*
Y01273D01*
X0271175D01*
Y01257D01*
X0269575D01*
X0279575D02*
Y01273D01*
X0281175D01*
Y01257D01*
X0279575D01*
X0289575D02*
Y01273D01*
X0291175D01*
Y01257D01*
X0289575D01*
X0299575D02*
Y01273D01*
X0301175D01*
Y01257D01*
X0299575D01*
X0309575D02*
Y01273D01*
X0311175D01*
Y01257D01*
X0309575D01*
X0319575D02*
Y01273D01*
X0321175D01*
Y01257D01*
X0319575D01*
X0336138D02*
Y01273D01*
X0337737D01*
Y01257D01*
X0336138D01*
X0346137D02*
Y01273D01*
X0347738D01*
Y01257D01*
X0346137D01*
X0356137D02*
Y01273D01*
X0357737D01*
Y01257D01*
X0356137D01*
X0366138D02*
Y01273D01*
X0367738D01*
Y01257D01*
X0366138D01*
X0376137D02*
Y01273D01*
X0377737D01*
Y01257D01*
X0376137D01*
X0386138D02*
Y01273D01*
X0387737D01*
Y01257D01*
X0386138D01*
X04027D02*
Y01273D01*
X04043D01*
Y01257D01*
X04027D01*
X04127D02*
Y01273D01*
X04143D01*
Y01257D01*
X04127D01*
X04227D02*
Y01273D01*
X04243D01*
Y01257D01*
X04227D01*
X04327D02*
Y01273D01*
X04343D01*
Y01257D01*
X04327D01*
X04427D02*
Y01273D01*
X04443D01*
Y01257D01*
X04427D01*
X04527D02*
Y01273D01*
X04543D01*
Y01257D01*
X04527D01*
X0449Y01527D02*
X04482Y01543D01*
X04498D01*
X0449Y01527D01*
Y01531D02*
X04486Y01539D01*
X04494D01*
X0449Y01531D01*
Y01567D02*
X04482Y01583D01*
X04498D01*
X0449Y01567D01*
Y01571D02*
X04486Y01579D01*
X04494D01*
X0449Y01571D01*
X0443D02*
X04426Y01579D01*
X04434D01*
X0443Y01571D01*
Y01567D02*
X04422Y01583D01*
X04438D01*
X0443Y01567D01*
X04422Y01543D02*
X04438D01*
X0443Y01527D01*
X04422Y01543D01*
X04426Y01539D02*
X04434D01*
X0443Y01531D01*
X04426Y01539D01*
X0445Y01687D02*
X04442Y01703D01*
X04458D01*
X0445Y01687D01*
Y01691D02*
X04446Y01699D01*
X04454D01*
X0445Y01691D01*
X0452D02*
X04516Y01699D01*
X04524D01*
X0452Y01691D01*
Y01687D02*
X04512Y01703D01*
X04528D01*
X0452Y01687D01*
X04485Y0174354D02*
X04477Y0175953D01*
X04493D01*
X04485Y0174354D01*
Y0174753D02*
X04481Y0175554D01*
X04489D01*
X04485Y0174753D01*
Y01777D02*
X04477Y01793D01*
X04493D01*
X04485Y01777D01*
Y01781D02*
X04481Y01789D01*
X04489D01*
X04485Y01781D01*
Y0180948D02*
X04477Y0182548D01*
X04493D01*
X04485Y0180948D01*
Y0181348D02*
X04481Y0182148D01*
X04489D01*
X04485Y0181348D01*
X04957Y01597D02*
Y01613D01*
X04973D01*
Y01597D01*
X04957D01*
Y01513D02*
X04973D01*
Y01497D01*
X04957D01*
Y01513D01*
X05057D02*
X05073D01*
Y01497D01*
X05057D01*
Y01513D01*
Y01597D02*
Y01613D01*
X05073D01*
Y01597D01*
X05057D01*
Y01697D02*
Y01713D01*
X05073D01*
Y01697D01*
X05057D01*
X04973D02*
X04957D01*
Y01713D01*
X04973D01*
Y01697D01*
Y01797D02*
X04957D01*
Y01813D01*
X04973D01*
Y01797D01*
X05057D02*
Y01813D01*
X05073D01*
Y01797D01*
X05057D01*
Y01897D02*
Y01913D01*
X05073D01*
Y01897D01*
X05057D01*
X04973D02*
X04957D01*
Y01913D01*
X04973D01*
Y01897D01*
Y01997D02*
X04957D01*
Y02013D01*
X04973D01*
Y01997D01*
X05057D02*
Y02013D01*
X05073D01*
Y01997D01*
X05057D01*
Y02097D02*
Y02113D01*
X05073D01*
Y02097D01*
X05057D01*
X04973D02*
X04957D01*
Y02113D01*
X04973D01*
Y02097D01*
Y02197D02*
X04957D01*
Y02213D01*
X04973D01*
Y02197D01*
X05057D02*
Y02213D01*
X05073D01*
Y02197D01*
X05057D01*
Y02297D02*
Y02313D01*
X05073D01*
Y02297D01*
X05057D01*
X04973D02*
X04957D01*
Y02313D01*
X04973D01*
Y02297D01*
Y02397D02*
X04957D01*
Y02413D01*
X04973D01*
Y02397D01*
X05057D02*
Y02413D01*
X05073D01*
Y02397D01*
X05057D01*
Y02497D02*
Y02513D01*
X05073D01*
Y02497D01*
X05057D01*
X04973D02*
X04957D01*
Y02513D01*
X04973D01*
Y02497D01*
Y02597D02*
X04957D01*
Y02613D01*
X04973D01*
Y02597D01*
X05057D02*
Y02613D01*
X05073D01*
Y02597D01*
X05057D01*
Y02697D02*
Y02713D01*
X05073D01*
Y02697D01*
X05057D01*
X04973D02*
X04957D01*
Y02713D01*
X04973D01*
Y02697D01*
Y02797D02*
X04957D01*
Y02813D01*
X04973D01*
Y02797D01*
X05057D02*
Y02813D01*
X05073D01*
Y02797D01*
X05057D01*
Y02897D02*
Y02913D01*
X05073D01*
Y02897D01*
X05057D01*
X04973D02*
X04957D01*
Y02913D01*
X04973D01*
Y02897D01*
X04682Y03185D02*
X04674Y03169D01*
X04666Y03185D01*
X04682D01*
X0471332Y0310169D02*
X0472931D01*
X0472131Y0308569D01*
X0471332Y0310169D01*
X0471732Y0309769D02*
X0472532D01*
X0472131Y0308968D01*
X0471732Y0309769D01*
X04674Y03173D02*
X0467Y03181D01*
X04678D01*
X04674Y03173D01*
X04553Y03202D02*
X04545Y03218D01*
X04561D01*
X04553Y03202D01*
Y03206D02*
X04549Y03214D01*
X04557D01*
X04553Y03206D01*
Y03235D02*
X04545Y03251D01*
X04561D01*
X04553Y03235D01*
Y03239D02*
X04549Y03247D01*
X04557D01*
X04553Y03239D01*
X04626Y03138D02*
X04642D01*
X04634Y03122D01*
X04626Y03138D01*
X0463Y03134D02*
X04638D01*
X04634Y03126D01*
X0463Y03134D01*
X04626Y03108D02*
X04642D01*
X04634Y03092D01*
X04626Y03108D01*
X0463Y03104D02*
X04638D01*
X04634Y03096D01*
X0463Y03104D01*
X04626Y03078D02*
X04642D01*
X04634Y03062D01*
X04626Y03078D01*
X0463Y03074D02*
X04638D01*
X04634Y03066D01*
X0463Y03074D01*
X04627Y03032D02*
X04643D01*
X04635Y03016D01*
X04627Y03032D01*
X04631Y03028D02*
X04639D01*
X04635Y0302D01*
X04631Y03028D01*
X04609Y03032D02*
X04601Y03016D01*
X04593Y03032D01*
X04609D01*
X04605Y03028D02*
X04601Y0302D01*
X04597Y03028D01*
X04605D01*
X04661Y03032D02*
X04677D01*
X04669Y03016D01*
X04661Y03032D01*
X04665Y03028D02*
X04673D01*
X04669Y0302D01*
X04665Y03028D01*
X04513Y03202D02*
X04505Y03218D01*
X04521D01*
X04513Y03202D01*
Y03206D02*
X04509Y03214D01*
X04517D01*
X04513Y03206D01*
Y03235D02*
X04505Y03251D01*
X04521D01*
X04513Y03235D01*
Y03239D02*
X04509Y03247D01*
X04517D01*
X04513Y03239D01*
X04787Y0342D02*
X04791Y03424D01*
X04795D01*
X04791Y03428D01*
X04795Y03432D01*
X04791D01*
X04787Y03436D01*
X04783Y03432D01*
X04779D01*
X04783Y03428D01*
X04779Y03424D01*
X04783D01*
X04787Y0342D01*
X0488367D02*
X0488767Y03424D01*
X0489167D01*
X0488767Y03428D01*
X0489167Y03432D01*
X0488767D01*
X0488367Y03436D01*
X0487967Y03432D01*
X0487567D01*
X0487967Y03428D01*
X0487567Y03424D01*
X0487967D01*
X0488367Y0342D01*
X0498033D02*
X0498433Y03424D01*
X0498833D01*
X0498433Y03428D01*
X0498833Y03432D01*
X0498433D01*
X0498033Y03436D01*
X0497633Y03432D01*
X0497233D01*
X0497633Y03428D01*
X0497233Y03424D01*
X0497633D01*
X0498033Y0342D01*
X05077D02*
X05081Y03424D01*
X05085D01*
X05081Y03428D01*
X05085Y03432D01*
X05081D01*
X05077Y03436D01*
X05073Y03432D01*
X05069D01*
X05073Y03428D01*
X05069Y03424D01*
X05073D01*
X05077Y0342D01*
Y03424D02*
X05079Y03426D01*
X05081D01*
X05079Y03428D01*
X05081Y0343D01*
X05079D01*
X05077Y03432D01*
X05075Y0343D01*
X05073D01*
X05075Y03428D01*
X05073Y03426D01*
X05075D01*
X05077Y03424D01*
Y0351D02*
X05081Y03514D01*
X05085D01*
X05081Y03518D01*
X05085Y03522D01*
X05081D01*
X05077Y03526D01*
X05073Y03522D01*
X05069D01*
X05073Y03518D01*
X05069Y03514D01*
X05073D01*
X05077Y0351D01*
Y03514D02*
X05079Y03516D01*
X05081D01*
X05079Y03518D01*
X05081Y0352D01*
X05079D01*
X05077Y03522D01*
X05075Y0352D01*
X05073D01*
X05075Y03518D01*
X05073Y03516D01*
X05075D01*
X05077Y03514D01*
X0498833D02*
X0498433Y03518D01*
X0498833Y03522D01*
X0498433D01*
X0498033Y03526D01*
X0497633Y03522D01*
X0497233D01*
X0497633Y03518D01*
X0497233Y03514D01*
X0497633D01*
X0498033Y0351D01*
X0498433Y03514D01*
X0498833D01*
X0498433Y03516D02*
X0498233Y03518D01*
X0498433Y0352D01*
X0498233D01*
X0498033Y03522D01*
X0497833Y0352D01*
X0497633D01*
X0497833Y03518D01*
X0497633Y03516D01*
X0497833D01*
X0498033Y03514D01*
X0498233Y03516D01*
X0498433D01*
Y0343D02*
X0498233D01*
X0498033Y03432D01*
X0497833Y0343D01*
X0497633D01*
X0497833Y03428D01*
X0497633Y03426D01*
X0497833D01*
X0498033Y03424D01*
X0498233Y03426D01*
X0498433D01*
X0498233Y03428D01*
X0498433Y0343D01*
X0488767D02*
X0488567D01*
X0488367Y03432D01*
X0488167Y0343D01*
X0487967D01*
X0488167Y03428D01*
X0487967Y03426D01*
X0488167D01*
X0488367Y03424D01*
X0488567Y03426D01*
X0488767D01*
X0488567Y03428D01*
X0488767Y0343D01*
X0488367Y0351D02*
X0488767Y03514D01*
X0489167D01*
X0488767Y03518D01*
X0489167Y03522D01*
X0488767D01*
X0488367Y03526D01*
X0487967Y03522D01*
X0487567D01*
X0487967Y03518D01*
X0487567Y03514D01*
X0487967D01*
X0488367Y0351D01*
Y03514D02*
X0488567Y03516D01*
X0488767D01*
X0488567Y03518D01*
X0488767Y0352D01*
X0488567D01*
X0488367Y03522D01*
X0488167Y0352D01*
X0487967D01*
X0488167Y03518D01*
X0487967Y03516D01*
X0488167D01*
X0488367Y03514D01*
X04795D02*
X04791Y03518D01*
X04795Y03522D01*
X04791D01*
X04787Y03526D01*
X04783Y03522D01*
X04779D01*
X04783Y03518D01*
X04779Y03514D01*
X04783D01*
X04787Y0351D01*
X04791Y03514D01*
X04795D01*
X04791Y03516D02*
X04789Y03518D01*
X04791Y0352D01*
X04789D01*
X04787Y03522D01*
X04785Y0352D01*
X04783D01*
X04785Y03518D01*
X04783Y03516D01*
X04785D01*
X04787Y03514D01*
X04789Y03516D01*
X04791D01*
Y0343D02*
X04789D01*
X04787Y03432D01*
X04785Y0343D01*
X04783D01*
X04785Y03428D01*
X04783Y03426D01*
X04785D01*
X04787Y03424D01*
X04789Y03426D01*
X04791D01*
X04789Y03428D01*
X04791Y0343D01*
X05417Y0409701D02*
Y0411301D01*
X05433D01*
Y0409701D01*
X05417D01*
X05421Y0410101D02*
Y0410901D01*
X05429D01*
Y0410101D01*
X05421D01*
X05781Y03507D02*
X05805D01*
X05793Y03483D01*
X05781Y03507D01*
X05785Y03503D02*
X05801D01*
X05793Y03487D01*
X05785Y03503D01*
X05793Y03387D02*
X05787Y03381D01*
X05781D01*
X05787Y03375D01*
X05781Y03369D01*
X05787D01*
X05793Y03363D01*
X05799Y03369D01*
X05805D01*
X05799Y03375D01*
X05805Y03381D01*
X05799D01*
X05793Y03387D01*
Y03383D02*
X05789Y03379D01*
X05785D01*
X05789Y03375D01*
X05785Y03371D01*
X05789D01*
X05793Y03367D01*
X05797Y03371D01*
X05801D01*
X05797Y03375D01*
X05801Y03379D01*
X05797D01*
X05793Y03383D01*
X05781Y03327D02*
X05805D01*
X05793Y03303D01*
X05781Y03327D01*
Y03267D02*
X05805D01*
Y03243D01*
X05781D01*
Y03267D01*
Y03195D02*
X05793Y03207D01*
X05805Y03195D01*
X05793Y03183D01*
X05781Y03195D01*
X05787Y03087D02*
Y03081D01*
X05781D01*
Y03069D01*
X05787D01*
Y03063D01*
X05799D01*
Y03069D01*
X05805D01*
Y03081D01*
X05799D01*
Y03087D01*
X05787D01*
X05781Y03027D02*
X05793Y03021D01*
X05805Y03027D01*
X05799Y03015D01*
X05805Y03003D01*
X05793Y03009D01*
X05781Y03003D01*
X05787Y03015D01*
X05781Y03027D01*
Y02961D02*
X05787Y02955D01*
X05781Y02949D01*
X05787D01*
X05793Y02943D01*
X05799Y02949D01*
X05805D01*
X05799Y02955D01*
X05805Y02961D01*
X05799D01*
X05793Y02967D01*
X05787Y02961D01*
X05781D01*
Y02907D02*
Y02901D01*
X05787Y02895D01*
X05781Y02889D01*
Y02883D01*
X05787D01*
X05793Y02889D01*
X05799Y02883D01*
X05805D01*
Y02889D01*
X05799Y02895D01*
X05805Y02901D01*
Y02907D01*
X05799D01*
X05793Y02901D01*
X05787Y02907D01*
X05781D01*
Y02847D02*
X05805D01*
Y02823D01*
X05781D01*
Y02847D01*
X05785Y02843D02*
X05801D01*
Y02827D01*
X05785D01*
Y02843D01*
X05433Y0120301D02*
Y0118701D01*
X05417D01*
Y0120301D01*
X05433D01*
X05429Y0119901D02*
Y0119101D01*
X05421D01*
Y0119901D01*
X05429D01*
X0398302Y0175898D02*
X0397502Y0174298D01*
X0396702Y0175898D01*
X0398302D01*
X0397902Y0175498D02*
X0397502Y0174698D01*
X0397102Y0175498D01*
X0397902D01*
X03863Y01703D02*
X03855Y01687D01*
X03847Y01703D01*
X03863D01*
X03859Y01699D02*
X03855Y01691D01*
X03851Y01699D01*
X03859D01*
X03872Y01583D02*
X03888D01*
X0388Y01567D01*
X03872Y01583D01*
X03876Y01579D02*
X03884D01*
X0388Y01571D01*
X03876Y01579D01*
X03872Y01543D02*
X03888D01*
X0388Y01527D01*
X03872Y01543D01*
X03876Y01539D02*
X03884D01*
X0388Y01531D01*
X03876Y01539D01*
X03785Y01687D02*
X03777Y01703D01*
X03793D01*
X03785Y01687D01*
Y01691D02*
X03781Y01699D01*
X03789D01*
X03785Y01691D01*
X0382Y0174354D02*
X03812Y0175953D01*
X03828D01*
X0382Y0174354D01*
Y0174753D02*
X03816Y0175554D01*
X03824D01*
X0382Y0174753D01*
X03817Y01583D02*
X03833D01*
X03825Y01567D01*
X03817Y01583D01*
X03821Y01579D02*
X03829D01*
X03825Y01571D01*
X03821Y01579D01*
X03817Y01543D02*
X03833D01*
X03825Y01527D01*
X03817Y01543D01*
X03821Y01539D02*
X03829D01*
X03825Y01531D01*
X03821Y01539D01*
X03773Y01543D02*
X03765Y01527D01*
X03757Y01543D01*
X03773D01*
X03769Y01539D02*
X03765Y01531D01*
X03761Y01539D01*
X03769D01*
X03765Y01567D02*
X03757Y01583D01*
X03773D01*
X03765Y01567D01*
Y01571D02*
X03761Y01579D01*
X03769D01*
X03765Y01571D01*
X0382Y01777D02*
X03812Y01793D01*
X03828D01*
X0382Y01777D01*
Y01781D02*
X03816Y01789D01*
X03824D01*
X0382Y01781D01*
Y0180948D02*
X03812Y0182548D01*
X03828D01*
X0382Y0180948D01*
Y0181348D02*
X03816Y0182148D01*
X03824D01*
X0382Y0181348D01*
X03308Y01762D02*
X033Y01746D01*
X03292Y01762D01*
X03308D01*
X03304Y01758D02*
X033Y0175D01*
X03296Y01758D01*
X03304D01*
X03158Y0175953D02*
X0315Y0174354D01*
X03142Y0175953D01*
X03158D01*
X03154Y0175554D02*
X0315Y0174753D01*
X03146Y0175554D01*
X03154D01*
X0315Y01777D02*
X03142Y01793D01*
X03158D01*
X0315Y01777D01*
Y01781D02*
X03146Y01789D01*
X03154D01*
X0315Y01781D01*
Y0180948D02*
X03142Y0182548D01*
X03158D01*
X0315Y0180948D01*
Y0181348D02*
X03146Y0182148D01*
X03154D01*
X0315Y0181348D01*
X03177Y01703D02*
X03193D01*
X03185Y01687D01*
X03177Y01703D01*
X03181Y01699D02*
X03189D01*
X03185Y01691D01*
X03181Y01699D01*
X03163Y01583D02*
X03155Y01567D01*
X03147Y01583D01*
X03163D01*
X03159Y01579D02*
X03155Y01571D01*
X03151Y01579D01*
X03159D01*
X03163Y01543D02*
X03155Y01527D01*
X03147Y01543D01*
X03163D01*
X03159Y01539D02*
X03155Y01531D01*
X03151Y01539D01*
X03159D01*
X03202Y01543D02*
X03218D01*
X0321Y01527D01*
X03202Y01543D01*
X03206Y01539D02*
X03214D01*
X0321Y01531D01*
X03206Y01539D01*
X0321Y01567D02*
X03202Y01583D01*
X03218D01*
X0321Y01567D01*
Y01571D02*
X03206Y01579D01*
X03214D01*
X0321Y01571D01*
X03115Y01687D02*
X03107Y01703D01*
X03123D01*
X03115Y01687D01*
Y01691D02*
X03111Y01699D01*
X03119D01*
X03115Y01691D01*
X03103Y01583D02*
X03095Y01567D01*
X03087Y01583D01*
X03103D01*
X03099Y01579D02*
X03095Y01571D01*
X03091Y01579D01*
X03099D01*
X03103Y01543D02*
X03095Y01527D01*
X03087Y01543D01*
X03103D01*
X03099Y01539D02*
X03095Y01531D01*
X03091Y01539D01*
X03099D01*
X02623Y01749D02*
X02615Y01765D01*
X02631D01*
X02623Y01749D01*
Y01753D02*
X02619Y01761D01*
X02627D01*
X02623Y01753D01*
X02493Y0175953D02*
X02485Y0174354D01*
X02477Y0175953D01*
X02493D01*
X02489Y0175554D02*
X02485Y0174753D01*
X02481Y0175554D01*
X02489D01*
X02485Y01777D02*
X02477Y01793D01*
X02493D01*
X02485Y01777D01*
Y01781D02*
X02481Y01789D01*
X02489D01*
X02485Y01781D01*
Y0180948D02*
X02477Y0182548D01*
X02493D01*
X02485Y0180948D01*
Y0181348D02*
X02481Y0182148D01*
X02489D01*
X02485Y0181348D01*
X02512Y01703D02*
X02528D01*
X0252Y01687D01*
X02512Y01703D01*
X02516Y01699D02*
X02524D01*
X0252Y01691D01*
X02516Y01699D01*
X02458Y01703D02*
X0245Y01687D01*
X02442Y01703D01*
X02458D01*
X02454Y01699D02*
X0245Y01691D01*
X02446Y01699D01*
X02454D01*
X02482Y01583D02*
X02498D01*
X0249Y01567D01*
X02482Y01583D01*
X02486Y01579D02*
X02494D01*
X0249Y01571D01*
X02486Y01579D01*
X02482Y01543D02*
X02498D01*
X0249Y01527D01*
X02482Y01543D01*
X02486Y01539D02*
X02494D01*
X0249Y01531D01*
X02486Y01539D01*
X02537Y01543D02*
X02553D01*
X02545Y01527D01*
X02537Y01543D01*
X02541Y01539D02*
X02549D01*
X02545Y01531D01*
X02541Y01539D01*
X02545Y01567D02*
X02537Y01583D01*
X02553D01*
X02545Y01567D01*
Y01571D02*
X02541Y01579D01*
X02549D01*
X02545Y01571D01*
X0243D02*
X02426Y01579D01*
X02434D01*
X0243Y01571D01*
Y01567D02*
X02422Y01583D01*
X02438D01*
X0243Y01567D01*
X02422Y01543D02*
X02438D01*
X0243Y01527D01*
X02422Y01543D01*
X02426Y01539D02*
X02434D01*
X0243Y01531D01*
X02426Y01539D01*
X01959Y01758D02*
X01951Y01774D01*
X01967D01*
X01959Y01758D01*
Y01762D02*
X01955Y0177D01*
X01963D01*
X01959Y01762D01*
X01818Y0175953D02*
X0181Y0174354D01*
X01802Y0175953D01*
X01818D01*
X01814Y0175554D02*
X0181Y0174753D01*
X01806Y0175554D01*
X01814D01*
X0181Y01777D02*
X01802Y01793D01*
X01818D01*
X0181Y01777D01*
Y01781D02*
X01806Y01789D01*
X01814D01*
X0181Y01781D01*
Y0180948D02*
X01802Y0182548D01*
X01818D01*
X0181Y0180948D01*
Y0181348D02*
X01806Y0182148D01*
X01814D01*
X0181Y0181348D01*
X01783Y01703D02*
X01775Y01687D01*
X01767Y01703D01*
X01783D01*
X01779Y01699D02*
X01775Y01691D01*
X01771Y01699D01*
X01779D01*
X01837Y01703D02*
X01853D01*
X01845Y01687D01*
X01837Y01703D01*
X01841Y01699D02*
X01849D01*
X01845Y01691D01*
X01841Y01699D01*
X01823Y01583D02*
X01815Y01567D01*
X01807Y01583D01*
X01823D01*
X01819Y01579D02*
X01815Y01571D01*
X01811Y01579D01*
X01819D01*
X01823Y01543D02*
X01815Y01527D01*
X01807Y01543D01*
X01823D01*
X01819Y01539D02*
X01815Y01531D01*
X01811Y01539D01*
X01819D01*
X01862Y01543D02*
X01878D01*
X0187Y01527D01*
X01862Y01543D01*
X01866Y01539D02*
X01874D01*
X0187Y01531D01*
X01866Y01539D01*
X0187Y01567D02*
X01862Y01583D01*
X01878D01*
X0187Y01567D01*
Y01571D02*
X01866Y01579D01*
X01874D01*
X0187Y01571D01*
X01755D02*
X01751Y01579D01*
X01759D01*
X01755Y01571D01*
Y01567D02*
X01747Y01583D01*
X01763D01*
X01755Y01567D01*
X01763Y01543D02*
X01755Y01527D01*
X01747Y01543D01*
X01763D01*
X01759Y01539D02*
X01755Y01531D01*
X01751Y01539D01*
X01759D01*
X01636Y0208D02*
X01628Y02096D01*
X01644D01*
X01636Y0208D01*
Y02084D02*
X01632Y02092D01*
X0164D01*
X01636Y02084D01*
Y02132D02*
X01628Y02148D01*
X01644D01*
X01636Y02132D01*
Y02136D02*
X01632Y02144D01*
X0164D01*
X01636Y02136D01*
X01852Y02209D02*
X01844Y02225D01*
X0186D01*
X01852Y02209D01*
Y02366D02*
X01844Y02382D01*
X0186D01*
X01852Y02366D01*
Y02523D02*
X01844Y02539D01*
X0186D01*
X01852Y02523D01*
X01644Y022D02*
X01636Y02184D01*
X01628Y022D01*
X01644D01*
X0164Y02196D02*
X01636Y02188D01*
X01632Y02196D01*
X0164D01*
X0159Y022D02*
X01582Y02184D01*
X01574Y022D01*
X0159D01*
X01586Y02196D02*
X01582Y02188D01*
X01578Y02196D01*
X01586D01*
X0159Y02148D02*
X01582Y02132D01*
X01574Y02148D01*
X0159D01*
X01586Y02144D02*
X01582Y02136D01*
X01578Y02144D01*
X01586D01*
X0159Y02096D02*
X01582Y0208D01*
X01574Y02096D01*
X0159D01*
X01586Y02092D02*
X01582Y02084D01*
X01578Y02092D01*
X01586D01*
X0122162Y0205097D02*
X0121762D01*
X0121362Y0205497D01*
X0120962Y0205097D01*
X0120562D01*
X0120962Y0204697D01*
X0120562Y0204297D01*
X0120962D01*
X0121362Y0203897D01*
X0121762Y0204297D01*
X0122162D01*
X0121762Y0204697D01*
X0122162Y0205097D01*
Y0253903D02*
X0121762Y0254303D01*
X0122162Y0254703D01*
X0121762D01*
X0121362Y0255103D01*
X0120962Y0254703D01*
X0120562D01*
X0120962Y0254303D01*
X0120562Y0253903D01*
X0120962D01*
X0121362Y0253503D01*
X0121762Y0253903D01*
X0122162D01*
X01337Y027D02*
X01329Y02716D01*
X01345D01*
X01337Y027D01*
Y02704D02*
X01333Y02712D01*
X01341D01*
X01337Y02704D01*
X01463Y02716D02*
X01479D01*
X01471Y027D01*
X01463Y02716D01*
X01467Y02712D02*
X01475D01*
X01471Y02704D01*
X01467Y02712D01*
X01471Y02766D02*
X01463Y02782D01*
X01479D01*
X01471Y02766D01*
Y0277D02*
X01467Y02778D01*
X01475D01*
X01471Y0277D01*
X01337Y02769D02*
X01333Y02777D01*
X01341D01*
X01337Y02769D01*
Y02765D02*
X01329Y02781D01*
X01345D01*
X01337Y02765D01*
X01203Y02766D02*
X01199Y02774D01*
X01207D01*
X01203Y02766D01*
Y02762D02*
X01195Y02778D01*
X01211D01*
X01203Y02762D01*
X01195Y02718D02*
X01211D01*
X01203Y02702D01*
X01195Y02718D01*
X01199Y02714D02*
X01207D01*
X01203Y02706D01*
X01199Y02714D01*
X01391Y03084D02*
X01395Y03092D01*
X01391Y031D01*
X01399Y03096D01*
X01407Y031D01*
X01403Y03092D01*
X01407Y03084D01*
X01399Y03088D01*
X01391Y03084D01*
X01226D02*
Y03088D01*
X0123D01*
Y03096D01*
X01226D01*
Y031D01*
X01218D01*
Y03096D01*
X01214D01*
Y03088D01*
X01218D01*
Y03084D01*
X01226D01*
X0136428Y0364094D02*
X0137228Y0364895D01*
X0138028Y0364094D01*
X0137228Y0363295D01*
X0136428Y0364094D01*
Y0375905D02*
X0137228Y0376706D01*
X0138028Y0375905D01*
X0137228Y0375106D01*
X0136428Y0375905D01*
X0121Y03708D02*
X01206D01*
X01202Y03704D01*
X01198Y03708D01*
X01194D01*
Y03704D01*
X01198Y037D01*
X01194Y03696D01*
Y03692D01*
X01198D01*
X01202Y03696D01*
X01206Y03692D01*
X0121D01*
Y03696D01*
X01206Y037D01*
X0121Y03704D01*
Y03708D01*
X01183Y0409701D02*
X01167D01*
Y0411301D01*
X01183D01*
Y0409701D01*
X01179Y0410101D02*
X01171D01*
Y0410901D01*
X01179D01*
Y0410101D01*
X01943Y03275D02*
X01935Y03291D01*
X01951D01*
X01943Y03275D01*
X01935Y03134D02*
X01951D01*
X01943Y03118D01*
X01935Y03134D01*
Y02977D02*
X01951D01*
X01943Y02961D01*
X01935Y02977D01*
X02509Y02323D02*
X02525D01*
X02517Y02307D01*
X02509Y02323D01*
X02513Y02319D02*
X02521D01*
X02517Y02311D01*
X02513Y02319D01*
X02463Y02269D02*
X02455Y02253D01*
X02447Y02269D01*
X02463D01*
X02459Y02265D02*
X02455Y02257D01*
X02451Y02265D01*
X02459D01*
X0251031Y0219332D02*
X0252631D01*
X0251832Y0217731D01*
X0251031Y0219332D01*
X0251431Y0218932D02*
X0252232D01*
X0251832Y0218131D01*
X0251431Y0218932D01*
X02513Y02148D02*
X02529D01*
X02521Y02132D01*
X02513Y02148D01*
X02517Y02144D02*
X02525D01*
X02521Y02136D01*
X02517Y02144D01*
X02699Y02151D02*
X02715D01*
X02707Y02135D01*
X02699Y02151D01*
X02703Y02147D02*
X02711D01*
X02707Y02139D01*
X02703Y02147D01*
X02611Y02219D02*
X02603Y02235D01*
X02619D01*
X02611Y02219D01*
Y02223D02*
X02607Y02231D01*
X02615D01*
X02611Y02223D01*
X0262Y02398D02*
X02612Y02414D01*
X02628D01*
X0262Y02398D01*
Y02402D02*
X02616Y0241D01*
X02624D01*
X0262Y02402D01*
X0259067Y0252133D02*
X0258267Y0253733D01*
X0259867D01*
X0259067Y0252133D01*
Y0252533D02*
X0258667Y0253333D01*
X0259467D01*
X0259067Y0252533D01*
Y0256267D02*
X0258267Y0257867D01*
X0259867D01*
X0259067Y0256267D01*
Y0256667D02*
X0258667Y0257467D01*
X0259467D01*
X0259067Y0256667D01*
X02466Y02586D02*
X02458Y02602D01*
X02474D01*
X02466Y02586D01*
Y0259D02*
X02462Y02598D01*
X0247D01*
X02466Y0259D01*
Y02637D02*
X02458Y02653D01*
X02474D01*
X02466Y02637D01*
Y02641D02*
X02462Y02649D01*
X0247D01*
X02466Y02641D01*
X0254133Y0257867D02*
X0255733D01*
X0254933Y0256267D01*
X0254133Y0257867D01*
X0254533Y0257467D02*
X0255333D01*
X0254933Y0256667D01*
X0254533Y0257467D01*
X0254133Y0253733D02*
X0255733D01*
X0254933Y0252133D01*
X0254133Y0253733D01*
X0254533Y0253333D02*
X0255333D01*
X0254933Y0252533D01*
X0254533Y0253333D01*
X02463Y02481D02*
X02455Y02465D01*
X02447Y02481D01*
X02463D01*
X02459Y02477D02*
X02455Y02469D01*
X02451Y02477D01*
X02459D01*
X02569Y02745D02*
X02561Y02761D01*
X02577D01*
X02569Y02745D01*
Y02749D02*
X02565Y02757D01*
X02573D01*
X02569Y02749D01*
X02798Y03062D02*
X0279Y03078D01*
X02806D01*
X02798Y03062D01*
Y03066D02*
X02794Y03074D01*
X02802D01*
X02798Y03066D01*
X02973Y02882D02*
X02989D01*
X02981Y02866D01*
X02973Y02882D01*
X02977Y02878D02*
X02985D01*
X02981Y0287D01*
X02977Y02878D01*
X02973Y02852D02*
X02989D01*
X02981Y02836D01*
X02973Y02852D01*
X02977Y02848D02*
X02985D01*
X02981Y0284D01*
X02977Y02848D01*
X03009Y02852D02*
X03025D01*
X03017Y02836D01*
X03009Y02852D01*
X03013Y02848D02*
X03021D01*
X03017Y0284D01*
X03013Y02848D01*
X03017Y02866D02*
X03009Y02882D01*
X03025D01*
X03017Y02866D01*
Y0287D02*
X03013Y02878D01*
X03021D01*
X03017Y0287D01*
X030344Y029796D02*
X030264Y029956D01*
X030424D01*
X030344Y029796D01*
Y029836D02*
X030304Y029916D01*
X030384D01*
X030344Y029836D01*
X0339657Y0306657D02*
X0338857Y0308257D01*
X0340457D01*
X0339657Y0306657D01*
Y0307057D02*
X0339257Y0307857D01*
X0340057D01*
X0339657Y0307057D01*
X03492Y02988D02*
X03508D01*
X035Y02972D01*
X03492Y02988D01*
X03496Y02984D02*
X03504D01*
X035Y02976D01*
X03496Y02984D01*
X03492Y02935D02*
X03508D01*
X035Y02919D01*
X03492Y02935D01*
X03496Y02931D02*
X03504D01*
X035Y02923D01*
X03496Y02931D01*
X035485Y02935D02*
X035645D01*
X035565Y02919D01*
X035485Y02935D01*
X035525Y02931D02*
X035605D01*
X035565Y02923D01*
X035525Y02931D01*
X035565Y02972D02*
X035485Y02988D01*
X035645D01*
X035565Y02972D01*
Y02976D02*
X035525Y02984D01*
X035605D01*
X035565Y02976D01*
X03613D02*
X03609Y02984D01*
X03617D01*
X03613Y02976D01*
Y02972D02*
X03605Y02988D01*
X03621D01*
X03613Y02972D01*
X03605Y02935D02*
X03621D01*
X03613Y02919D01*
X03605Y02935D01*
X03609Y02931D02*
X03617D01*
X03613Y02923D01*
X03609Y02931D01*
X03613Y03025D02*
X03605Y03041D01*
X03621D01*
X03613Y03025D01*
Y03029D02*
X03609Y03037D01*
X03617D01*
X03613Y03029D01*
X035645Y03041D02*
X035565Y03025D01*
X035485Y03041D01*
X035645D01*
X035605Y03037D02*
X035565Y03029D01*
X035525Y03037D01*
X035605D01*
X03508Y03041D02*
X035Y03025D01*
X03492Y03041D01*
X03508D01*
X03504Y03037D02*
X035Y03029D01*
X03496Y03037D01*
X03504D01*
X03565Y0334657D02*
X03557Y0336257D01*
X03573D01*
X03565Y0334657D01*
Y0335057D02*
X03561Y0335857D01*
X03569D01*
X03565Y0335057D01*
X0347043Y0342443D02*
X0346643Y0343243D01*
X0347443D01*
X0347043Y0342443D01*
X0346243Y0343643D02*
X0347843D01*
X0347043Y0342043D01*
X0346243Y0343643D01*
X03315Y0357D02*
X03307Y03586D01*
X03323D01*
X03315Y0357D01*
Y03574D02*
X03311Y03582D01*
X03319D01*
X03315Y03574D01*
X03384Y03444D02*
X034D01*
X03392Y03428D01*
X03384Y03444D01*
X03388Y0344D02*
X03396D01*
X03392Y03432D01*
X03388Y0344D01*
X03384Y03408D02*
X034D01*
X03392Y03392D01*
X03384Y03408D01*
X03388Y03404D02*
X03396D01*
X03392Y03396D01*
X03388Y03404D01*
X032185Y033055D02*
X032105Y032895D01*
X032025Y033055D01*
X032185D01*
X032145Y033015D02*
X032105Y032935D01*
X032065Y033015D01*
X032145D01*
X030965Y035025D02*
X030885Y035185D01*
X031045D01*
X030965Y035025D01*
Y035065D02*
X030925Y035145D01*
X031005D01*
X030965Y035065D01*
X03117Y03668D02*
X03109Y03684D01*
X03125D01*
X03117Y03668D01*
Y03672D02*
X03113Y0368D01*
X03121D01*
X03117Y03672D01*
X0307D02*
X03066Y0368D01*
X03074D01*
X0307Y03672D01*
Y03668D02*
X03062Y03684D01*
X03078D01*
X0307Y03668D01*
Y037255D02*
X03062Y037415D01*
X03078D01*
X0307Y037255D01*
Y037295D02*
X03066Y037375D01*
X03074D01*
X0307Y037295D01*
X03117D02*
X03113Y037375D01*
X03121D01*
X03117Y037295D01*
Y037255D02*
X03109Y037415D01*
X03125D01*
X03117Y037255D01*
Y03783D02*
X03109Y03799D01*
X03125D01*
X03117Y03783D01*
Y03787D02*
X03113Y03795D01*
X03121D01*
X03117Y03787D01*
X0307D02*
X03066Y03795D01*
X03074D01*
X0307Y03787D01*
Y03783D02*
X03062Y03799D01*
X03078D01*
X0307Y03783D01*
X0296757Y0348343D02*
X0295957Y0346743D01*
X0295157Y0348343D01*
X0296757D01*
X0296357Y0347943D02*
X0295957Y0347143D01*
X0295557Y0347943D01*
X0296357D01*
X02805Y03481D02*
X02797Y03497D01*
X02813D01*
X02805Y03481D01*
Y03485D02*
X02801Y03493D01*
X02809D01*
X02805Y03485D01*
X0281043Y0326757D02*
X0282643D01*
X0281843Y0325157D01*
X0281043Y0326757D01*
X0281443Y0326357D02*
X0282243D01*
X0281843Y0325557D01*
X0281443Y0326357D01*
X0281Y03173D02*
X02802Y03157D01*
X02794Y03173D01*
X0281D01*
X02806Y03169D02*
X02802Y03161D01*
X02798Y03169D01*
X02806D01*
X02498Y03502D02*
X02482D01*
Y03518D01*
X02498D01*
Y03502D01*
Y03602D02*
X02482D01*
Y03618D01*
X02498D01*
Y03602D01*
X02601Y03832D02*
X02593Y03848D01*
X02609D01*
X02601Y03832D01*
Y03836D02*
X02597Y03844D01*
X02605D01*
X02601Y03836D01*
Y03878D02*
X02593Y03894D01*
X02609D01*
X02601Y03878D01*
Y03882D02*
X02597Y0389D01*
X02605D01*
X02601Y03882D01*
Y03924D02*
X02593Y0394D01*
X02609D01*
X02601Y03924D01*
Y03928D02*
X02597Y03936D01*
X02605D01*
X02601Y03928D01*
X0251D02*
X02506Y03936D01*
X02514D01*
X0251Y03928D01*
Y03924D02*
X02502Y0394D01*
X02518D01*
X0251Y03924D01*
X02502Y03894D02*
X02518D01*
X0251Y03878D01*
X02502Y03894D01*
X02506Y0389D02*
X02514D01*
X0251Y03882D01*
X02506Y0389D01*
X02502Y03848D02*
X02518D01*
X0251Y03832D01*
X02502Y03848D01*
X02506Y03844D02*
X02514D01*
X0251Y03836D01*
X02506Y03844D01*
X02338Y03613D02*
Y03597D01*
X02322D01*
Y03613D01*
X02338D01*
Y03513D02*
Y03497D01*
X02322D01*
Y03513D01*
X02338D01*
X02449Y03178D02*
X02465D01*
X02457Y03162D01*
X02449Y03178D01*
X02453Y03174D02*
X02461D01*
X02457Y03166D01*
X02453Y03174D01*
X02505Y03178D02*
X02521D01*
X02513Y03162D01*
X02505Y03178D01*
X02509Y03174D02*
X02517D01*
X02513Y03166D01*
X02509Y03174D01*
X02505Y0313D02*
X02521D01*
X02513Y03114D01*
X02505Y0313D01*
X02509Y03126D02*
X02517D01*
X02513Y03118D01*
X02509Y03126D01*
X02465Y0313D02*
X02457Y03114D01*
X02449Y0313D01*
X02465D01*
X02461Y03126D02*
X02457Y03118D01*
X02453Y03126D01*
X02461D01*
X03152Y02368D02*
X03168D01*
Y02352D01*
X03152D01*
Y02368D01*
X03292D02*
X03308D01*
Y02352D01*
X03292D01*
Y02368D01*
Y02452D02*
Y02468D01*
X03308D01*
Y02452D01*
X03292D01*
X03168D02*
X03152D01*
Y02468D01*
X03168D01*
Y02452D01*
X0291328Y0222528D02*
X0290528Y0220928D01*
X0289728Y0222528D01*
X0291328D01*
X0290928Y0222128D02*
X0290528Y0221328D01*
X0290128Y0222128D01*
X0290928D01*
X04012Y02941D02*
X04004Y02957D01*
X0402D01*
X04012Y02941D01*
Y02945D02*
X04008Y02953D01*
X04016D01*
X04012Y02945D01*
X040545D02*
X040505Y02953D01*
X040585D01*
X040545Y02945D01*
Y02941D02*
X040465Y02957D01*
X040625D01*
X040545Y02941D01*
X04097D02*
X04089Y02957D01*
X04105D01*
X04097Y02941D01*
Y02945D02*
X04093Y02953D01*
X04101D01*
X04097Y02945D01*
Y03004D02*
X04089Y0302D01*
X04105D01*
X04097Y03004D01*
Y03008D02*
X04093Y03016D01*
X04101D01*
X04097Y03008D01*
X040545D02*
X040505Y03016D01*
X040585D01*
X040545Y03008D01*
Y03004D02*
X040465Y0302D01*
X040625D01*
X040545Y03004D01*
X04012D02*
X04004Y0302D01*
X0402D01*
X04012Y03004D01*
Y03008D02*
X04008Y03016D01*
X04016D01*
X04012Y03008D01*
Y03067D02*
X04004Y03083D01*
X0402D01*
X04012Y03067D01*
Y03071D02*
X04008Y03079D01*
X04016D01*
X04012Y03071D01*
X040545D02*
X040505Y03079D01*
X040585D01*
X040545Y03071D01*
Y03067D02*
X040465Y03083D01*
X040625D01*
X040545Y03067D01*
X04097D02*
X04089Y03083D01*
X04105D01*
X04097Y03067D01*
Y03071D02*
X04093Y03079D01*
X04101D01*
X04097Y03071D01*
X01943Y04025D02*
X01935Y04041D01*
X01951D01*
X01943Y04025D01*
X01935Y03884D02*
X01951D01*
X01943Y03868D01*
X01935Y03884D01*
Y03727D02*
X01951D01*
X01943Y03711D01*
X01935Y03727D01*
D44*
X024335Y008204D02*
X0247349D01*
X0248682Y0083373D01*
Y0088705D01*
X0247349Y0090038D01*
X024335D01*
Y008204D01*
X024555D02*
X0249549D01*
X0250882Y0083373D01*
Y0088705D01*
X0249549Y0090038D01*
X024555D01*
Y008204D01*
X0251347D02*
Y0084706D01*
X025268Y0086039D01*
X0254013Y0087372D01*
X0255346D01*
X0256213D02*
X0257546D01*
X0256213D02*
X025488Y0086039D01*
X0253547Y0084706D01*
Y008204D01*
Y0087372D01*
X0251347D02*
Y008204D01*
X0259345D02*
X0262011D01*
X0260678D01*
Y0087372D01*
X0259345D01*
X0261545D02*
X0262878D01*
Y008204D01*
X0264211D01*
X0261545D01*
X0266009D02*
X0268675D01*
X0267342D01*
Y0090038D01*
X0266009D01*
X0268209D02*
X0269542D01*
Y008204D01*
X0270875D01*
X0268209D01*
X0272674D02*
X027534D01*
X0274007D01*
Y0090038D01*
X0272674D01*
X0274874D02*
X0276207D01*
Y008204D01*
X027754D01*
X0274874D01*
X0287336D02*
X0291334D01*
X0292667Y0083373D01*
Y0088705D01*
X0291334Y0090038D01*
X0287336D01*
Y008204D01*
X0289536D02*
X0293534D01*
X0294867Y0083373D01*
Y0088705D01*
X0293534Y0090038D01*
X0289536D01*
Y008204D01*
X0295333D02*
Y0084706D01*
X0296666Y0086039D01*
X0297999Y0087372D01*
X0299332D01*
X0300199D02*
X0301532D01*
X0304663D02*
X0307329D01*
X0308662Y0086039D01*
Y008204D01*
X0304663D01*
X030333Y0083373D01*
X0304663Y0084706D01*
X0308662D01*
X0306863D02*
X0310862D01*
Y0086039D02*
Y008204D01*
X0306863D01*
X0305531Y0083373D01*
X0306863Y0084706D01*
Y0087372D02*
X0309529D01*
X0310862Y0086039D01*
X0311328Y0087372D02*
Y0083373D01*
X0312661Y008204D01*
X0313994Y0083373D01*
X0315327Y008204D01*
X0316659Y0083373D01*
Y0087372D01*
X031886D02*
Y0083373D01*
X0317527Y008204D01*
X0316194Y0083373D01*
X0314861Y008204D01*
X0313528Y0083373D01*
Y0087372D01*
X0319325D02*
X0320658D01*
Y008204D01*
X0321991D01*
X0319325D01*
X0321525D02*
X0324191D01*
X0322858D01*
Y0087372D01*
X0321525D01*
X032599D02*
X0329989D01*
X0331322Y0086039D01*
Y008204D01*
X0333522D02*
Y0086039D01*
X0332189Y0087372D01*
X032819D01*
Y008204D01*
X032599D02*
Y0087372D01*
X033532D02*
X0333987Y0086039D01*
Y0083373D01*
X033532Y008204D01*
X0339319D01*
Y0080707D02*
Y0087372D01*
X033532D01*
X033752D02*
X0336187Y0086039D01*
Y0083373D01*
X033752Y008204D01*
X0341519D01*
Y0080707D02*
Y0087372D01*
X033752D01*
X0337986Y0079374D02*
X0339319Y0080707D01*
X0338853Y0079374D02*
X0340186D01*
X0341519Y0080707D01*
X0337986Y0079374D02*
X0336653D01*
X0297533Y008204D02*
Y0084706D01*
X0298866Y0086039D01*
X0300199Y0087372D01*
X0297533D02*
Y008204D01*
X0295333D02*
Y0087372D01*
D117*
X0604734Y0276D02*
X0606733Y0277999D01*
Y0278499D01*
X0606233Y0278999D01*
X0605234D01*
X0604734Y0278499D01*
Y0276D02*
X0606733D01*
X0606233Y0282D02*
Y0284999D01*
X0604734Y02835D01*
X0606733D01*
X0607733Y0278499D02*
X0608233Y0278999D01*
X0609232D01*
X0609732Y0278499D01*
Y0277999D01*
X0609232Y02775D01*
X0609732Y0277D01*
Y02765D01*
X0609232Y0276D01*
X0608233D01*
X0607733Y02765D01*
Y0277D01*
X0608233Y02775D01*
X0607733Y0277999D01*
Y0278499D01*
X0608233Y02775D02*
X0609232D01*
X0610732D02*
X0612731D01*
X0612231Y0278999D02*
X0610732Y02775D01*
X0612231Y0278999D02*
Y0276D01*
X0620211D02*
Y0278999D01*
X0621211D01*
X0619211D01*
X062221Y02775D02*
Y02765D01*
X062271Y0276D01*
X062371D01*
X062421Y02765D01*
Y02775D01*
X062371Y0277999D01*
X062271D01*
X062221Y02775D01*
X0625209Y0277999D02*
X0626209D01*
X0625709D01*
X0625209D01*
X0625709D02*
Y02765D01*
X0626209Y0276D01*
X0628208D02*
X0627708Y02765D01*
X0628208Y0277D01*
X0629708D01*
Y02775D02*
Y0276D01*
X0628208D01*
Y0277999D02*
X0629208D01*
X0629708Y02775D01*
X0630708Y0278999D02*
X0631207D01*
Y0276D01*
X0631707D01*
X0630708D01*
X0625709Y0277999D02*
Y0278499D01*
X0640965Y0282D02*
X0641964D01*
X0641464D01*
Y0284999D01*
X0640965Y0284499D01*
X0643464Y0284999D02*
Y02835D01*
X0644463Y0283999D01*
X0644963D01*
X0645463Y02835D01*
Y02825D01*
X0644963Y0282D01*
X0643964D01*
X0643464Y02825D01*
Y0284999D02*
X0645463D01*
X0646463Y0284499D02*
X0646963Y0284999D01*
X0647962D01*
X0648462Y0284499D01*
Y02825D01*
X0647962Y0282D01*
X0646963D01*
X0646463Y02825D01*
Y0284499D01*
X0649462Y0283999D02*
X0649962D01*
X0650461Y02835D01*
Y0282D01*
Y02835D01*
X0650961Y0283999D01*
X0651461Y02835D01*
Y0282D01*
X0652461D02*
X0653461D01*
X0652961D01*
Y0283999D01*
X0652461D01*
X0649462D02*
Y0282D01*
X065496D02*
X065596D01*
X065546D01*
Y0284999D01*
X065496D01*
X0660458Y0283999D02*
X0661458Y0284999D01*
X0662957Y0284499D02*
X0663457Y0284999D01*
X0664457D01*
X0664957Y0284499D01*
Y0283999D01*
X0664457Y02835D01*
X0663957D01*
X0664457D01*
X0664957Y0283D01*
Y02825D01*
X0664457Y0282D01*
X0663457D01*
X0662957Y02825D01*
X0661458Y0282D02*
X0660458Y0283D01*
Y0283999D01*
X0665956Y02825D02*
X0666456D01*
Y0282D01*
X0665956D01*
Y02825D01*
X0668456D02*
Y0283D01*
X0668956Y02835D01*
X0668456Y0283999D01*
Y0284499D01*
X0668956Y0284999D01*
X0669955D01*
X0670455Y0284499D01*
Y0283999D01*
X0669955Y02835D01*
X0670455Y0283D01*
Y02825D01*
X0669955Y0282D01*
X0668956D01*
X0668456Y02825D01*
X0668956Y02835D02*
X0669955D01*
X0671455Y0284499D02*
X0671954Y0284999D01*
Y0282D01*
X0672454D01*
X0671455D01*
X0673954D02*
Y0283999D01*
X0674454D01*
X0674954Y02835D01*
Y0282D01*
Y02835D01*
X0675453Y0283999D01*
X0675953Y02835D01*
Y0282D01*
X0676953D02*
Y0283999D01*
X0677453D01*
X0677952Y02835D01*
Y0282D01*
Y02835D01*
X0678452Y0283999D01*
X0678952Y02835D01*
Y0282D01*
X0679952D02*
X0680952Y0283D01*
Y0283999D01*
X0679952Y0284999D01*
X0678952Y0288D02*
X0679952Y0289D01*
Y0289999D01*
X0678952Y0290999D01*
X0677453Y0289999D02*
X0677952Y0289499D01*
Y0288D01*
X0677453Y0289999D02*
X0676953Y0289499D01*
Y0288D01*
Y0289499D01*
X0676453Y0289999D01*
X0675953D01*
Y0288D01*
X0674954D02*
Y0289499D01*
X0674454Y0289999D01*
X0673954Y0289499D01*
Y0288D01*
Y0289499D01*
X0673454Y0289999D01*
X0672954D01*
Y0288D01*
X0671455D02*
X0670455D01*
X0669955Y02885D01*
X0668456Y0288D02*
X0667456Y0289D01*
Y0289999D01*
X0668456Y0290999D01*
X0669955Y0290499D02*
X0670455Y0290999D01*
X0671455D01*
X0671954Y0290499D01*
Y0289999D01*
X0671455Y0289499D01*
X0670955D01*
X0671455D01*
X0671954Y0289D01*
Y02885D01*
X0671455Y0288D01*
X0671954Y0294D02*
X0672954D01*
X0672454D01*
Y0296999D01*
X0671954Y0296499D01*
X0670455Y0296999D02*
X0669455Y0295999D01*
Y0295D01*
X0670455Y0294D01*
X0674454D02*
Y02945D01*
X0674954D01*
Y0294D01*
X0674454D01*
X0676953Y02945D02*
X0677453Y0294D01*
X0678452D01*
X0678952Y02945D01*
Y0296499D01*
X0678452Y0296999D01*
X0677453D01*
X0676953Y0296499D01*
Y0295999D01*
X0677453Y0295499D01*
X0678952D01*
X0679952Y0295999D02*
X0680452D01*
X0680952Y0295499D01*
Y0294D01*
Y0295499D01*
X0681451Y0295999D01*
X0681951Y0295499D01*
Y0294D01*
X0682951D02*
Y0295999D01*
X0683451D01*
X0683951Y0295499D01*
Y0294D01*
Y0295499D01*
X068445Y0295999D01*
X068495Y0295499D01*
Y0294D01*
X068595D02*
X068695Y0295D01*
Y0295999D01*
X068595Y0296999D01*
Y03D02*
X068695Y0301D01*
Y0301999D01*
X068595Y0302999D01*
X068445Y0301999D02*
X068495Y03015D01*
Y03D01*
X0683951D02*
Y03015D01*
Y03D01*
X0682951D02*
Y0301999D01*
X0683451D01*
X0683951Y03015D01*
X068445Y0301999D01*
X0681451D02*
X0681951Y03015D01*
Y03D01*
X0680952D02*
Y03015D01*
Y03D01*
X0679952D02*
Y0301999D01*
X0680452D01*
X0680952Y03015D01*
X0681451Y0301999D01*
X0678952D02*
X0678452Y03015D01*
X0678952Y0301D01*
Y03005D01*
X0678452Y03D01*
X0677453D01*
X0676953Y03005D01*
Y0301D01*
X0677453Y03015D01*
X0676953Y0301999D01*
Y0302499D01*
X0677453Y0302999D01*
X0678452D01*
X0678952Y0302499D01*
Y0301999D01*
X0678452Y03015D02*
X0677453D01*
Y0306D02*
Y0307999D01*
X0677952D01*
X0678452Y03075D01*
Y0306D01*
Y03075D01*
X0678952Y0307999D01*
X0679452Y03075D01*
Y0306D01*
X0680452D02*
Y0307999D01*
X0680952D01*
X0681451Y03075D01*
Y0306D01*
Y03075D01*
X0681951Y0307999D01*
X0682451Y03075D01*
Y0306D01*
X0683451D02*
X068445Y0307D01*
Y0307999D01*
X0683451Y0308999D01*
X0680452Y0312D02*
X0681451Y0313D01*
Y0313999D01*
X0680452Y0314999D01*
X0681451Y0318D02*
X0679452D01*
X0681451Y0319999D01*
Y0320499D01*
X0680952Y0320999D01*
X0679952D01*
X0679452Y0320499D01*
X0678452D02*
Y03185D01*
X0677952Y0318D01*
X0676953D01*
X0676453Y03185D01*
Y0320499D01*
X0676953Y0320999D01*
X0677952D01*
X0678452Y0320499D01*
X0677952Y0324D02*
X0678952D01*
X0679452Y03245D01*
Y0326499D01*
X0678952Y0326999D01*
X0677952D01*
X0677453Y0326499D01*
Y0325999D01*
X0677952Y03255D01*
X0679452D01*
X0680452Y0325999D02*
X0680952D01*
X0681451Y03255D01*
Y0324D01*
Y03255D01*
X0681951Y0325999D01*
X0682451Y03255D01*
Y0324D01*
X0683451D02*
Y0325999D01*
X0683951D01*
X068445Y03255D01*
Y0324D01*
Y03255D01*
X068495Y0325999D01*
X068545Y03255D01*
Y0324D01*
X068645D02*
X068745Y0325D01*
Y0325999D01*
X068645Y0326999D01*
X0680452Y0325999D02*
Y0324D01*
X0677952D02*
X0677453Y03245D01*
X0682451Y0319999D02*
X0682951D01*
X0683451Y0319499D01*
Y0318D01*
Y0319499D01*
X0683951Y0319999D01*
X068445Y0319499D01*
Y0318D01*
X068545D02*
Y0319999D01*
X068595D01*
X068645Y0319499D01*
Y0318D01*
Y0319499D01*
X068695Y0319999D01*
X068745Y0319499D01*
Y0318D01*
X0688449D02*
X0689449Y0319D01*
Y0319999D01*
X0688449Y0320999D01*
X0682451Y0319999D02*
Y0318D01*
X0678952Y0313999D02*
X0679452Y0313499D01*
Y0312D01*
X0678452D02*
Y0313499D01*
Y0312D01*
X0677453D02*
Y0313999D01*
X0677952D01*
X0678452Y0313499D01*
X0678952Y0313999D01*
X0679952Y0295999D02*
Y0294D01*
X0674954Y03005D02*
Y03D01*
X0674454D01*
Y03005D01*
X0674954D01*
X0672454Y0302999D02*
X0671954Y0302499D01*
X0672454Y0302999D02*
Y03D01*
X0672954D01*
X0671954D01*
X0670455D02*
X0669455Y0301D01*
Y0301999D01*
X0670455Y0302999D01*
X0669955Y0306D02*
X0668956D01*
X0668456Y03065D01*
Y0308499D01*
X0668956Y0308999D01*
X0669955D01*
X0670455Y0308499D01*
Y03065D01*
X0669955Y0306D01*
X0671954D02*
X0671455Y03065D01*
Y0308499D01*
X0671954Y0308999D01*
X0672954D01*
X0673454Y0308499D01*
Y03065D01*
X0672954Y0306D01*
X0671954D01*
X0674454D02*
X0676453Y0307999D01*
Y0308499D01*
X0675953Y0308999D01*
X0674954D01*
X0674454Y0308499D01*
Y0306D02*
X0676453D01*
Y0312D02*
Y0313499D01*
X0675953Y0313999D01*
X0675453Y0313499D01*
Y0312D01*
Y0313499D01*
X0674954Y0313999D01*
X0674454D01*
Y0312D01*
X0671455D02*
Y03125D01*
X0673454Y0314499D01*
Y0314999D01*
X0671455D01*
X0669955D02*
X0668956D01*
X0668456Y0314499D01*
Y0313999D01*
X0668956Y0313499D01*
X0670455D01*
Y03125D02*
Y0314499D01*
X0669955Y0314999D01*
X0666956D02*
X0667456Y0314499D01*
Y0313999D01*
X0666956Y0313499D01*
X0666456D01*
X0666956D01*
X0667456Y0313D01*
Y03125D01*
X0666956Y0312D01*
X0665956D01*
X0665457Y03125D01*
X0663457D02*
Y0312D01*
X0662957D01*
Y03125D01*
X0663457D01*
X0668456D02*
X0668956Y0312D01*
X0669955D01*
X0670455Y03125D01*
X0667456Y0308999D02*
X0666456Y0308499D01*
X0665457Y03075D01*
Y03065D01*
X0665956Y0306D01*
X0666956D01*
X0667456Y03065D01*
Y0307D01*
X0666956Y03075D01*
X0665457D01*
X0663457Y03065D02*
Y0306D01*
X0662957D01*
Y03065D01*
X0663457D01*
X0663957Y0302999D02*
X0664457D01*
Y03D01*
X0664957D01*
X0663957D01*
Y0296999D02*
X0664457D01*
Y0294D01*
X0664957D01*
X0663957D01*
X0661958Y0301999D02*
X0661458D01*
X0661958D02*
Y03D01*
X0662458D01*
X0661458D01*
X0660458D02*
Y03015D01*
X0659958Y0301999D01*
X0659458Y03015D01*
Y03D01*
Y03015D01*
X0658959Y0301999D01*
X0658459D01*
Y03D01*
X0656959D02*
X0657459Y03005D01*
Y0301D01*
X0656959Y03015D01*
X065546D01*
Y03005D01*
X065596Y03D01*
X0656959D01*
X065396D02*
X065446Y03005D01*
Y0301D01*
X065396Y03015D01*
X0652461D01*
Y03005D01*
X0652961Y03D01*
X065396D01*
X0650961D02*
X0649962D01*
X0649462Y03005D01*
Y0301D01*
X0649962Y03015D01*
X0649462Y0301999D01*
Y0302499D01*
X0649962Y0302999D01*
X0650961D01*
X0651461Y0302499D01*
Y0301999D01*
X0650961Y03015D01*
X0651461Y0301D01*
Y03005D01*
X0650961Y03D01*
Y0296999D02*
X0651461Y0296499D01*
Y0295999D01*
X0650961Y0295499D01*
X0651461Y0295D01*
Y02945D01*
X0650961Y0294D01*
X0649962D01*
X0649462Y02945D01*
Y0295D01*
X0649962Y0295499D01*
X0649462Y0295999D01*
Y0296499D01*
X0649962Y0296999D01*
X0650961D01*
Y0295499D02*
X0649962D01*
X0652461Y0296499D02*
X0652961Y0296999D01*
X065396D01*
X065446Y0296499D01*
Y02945D01*
X065396Y0294D01*
X0652961D01*
X0652461Y02945D01*
Y0296499D01*
X065546D02*
X065596Y0296999D01*
X0656959D01*
X0657459Y0296499D01*
Y0295999D01*
X0656959Y0295499D01*
X065646D01*
X0656959D01*
X0657459Y0295D01*
Y02945D01*
X0656959Y0294D01*
X065596D01*
X065546Y02945D01*
X0658459Y0294D02*
Y0295999D01*
X0658959D01*
X0659458Y0295499D01*
Y0294D01*
Y0295499D01*
X0659958Y0295999D01*
X0660458Y0295499D01*
Y0294D01*
X0661458D02*
X0662458D01*
X0661958D01*
Y0295999D01*
X0661458D01*
X0661958Y0290999D02*
X0662458D01*
Y0288D01*
X0662957D01*
X0661958D01*
X0660458D02*
X0659958D01*
Y0289999D01*
X0659458D01*
X0657959D02*
X0658459Y0289499D01*
Y0288D01*
X0657459D02*
Y0289499D01*
Y0288D01*
X065646D02*
Y0289999D01*
X0656959D01*
X0657459Y0289499D01*
X0657959Y0289999D01*
X0659458Y0288D02*
X0660458D01*
X065496D02*
X065446D01*
Y0290999D01*
X065396Y0290499D01*
X0651961Y0290999D02*
X0651461Y0290499D01*
X0651961Y0290999D02*
Y0288D01*
X0652461D01*
X0651461D01*
X0649462D02*
X0648962D01*
Y02885D01*
X0649462D01*
Y0288D01*
X065396D02*
X065496D01*
X065546Y03015D02*
X065646Y0302499D01*
X0657459Y0302999D01*
X065446D02*
X0653461Y0302499D01*
X0652461Y03015D01*
X0650961D02*
X0649962D01*
Y0306D02*
X0650961D01*
X0650461D01*
Y0307999D01*
X0649962D01*
X0652461Y0308999D02*
X0652961D01*
Y0306D01*
X0653461D01*
X0652461D01*
Y0312D02*
X0653461D01*
X0652961D01*
Y0314999D01*
X0652461D01*
Y0318D02*
X0651961Y03185D01*
Y0319499D02*
X0652961Y0319999D01*
X0653461D01*
X065396Y0319499D01*
Y03185D01*
X0653461Y0318D01*
X0652461D01*
X0650461D02*
X0649962D01*
Y0320999D01*
X0649462Y0320499D01*
Y0318D02*
X0650461D01*
X0651961Y0319499D02*
Y0320999D01*
X065396D01*
X065496D02*
X0656959D01*
Y0320499D01*
X065496Y03185D01*
Y0318D01*
X0657959D02*
Y0319999D01*
X0658459D01*
X0658959Y0319499D01*
Y0318D01*
Y0319499D01*
X0659458Y0319999D01*
X0659958Y0319499D01*
Y0318D01*
X0660958D02*
X0661958D01*
X0661458D01*
Y0319999D01*
X0660958D01*
X0661458Y0324D02*
X0662458D01*
X0661958D01*
Y0325999D01*
X0661458D01*
X0659958D02*
X0660458Y03255D01*
Y0324D01*
X0659458D02*
Y03255D01*
Y0324D01*
X0658459D02*
Y0325999D01*
X0658959D01*
X0659458Y03255D01*
X0659958Y0325999D01*
X0657459D02*
X0656959Y03255D01*
X065646D01*
X0656959D01*
X0657459Y0325D01*
Y03245D01*
X0656959Y0324D01*
X065596D01*
X065546Y03245D01*
X065446D02*
X065396Y0324D01*
X0652961D01*
X0652461Y03245D01*
X0650961Y0324D02*
Y0326999D01*
X0649462Y03255D01*
X0651461D01*
X0652461Y0326499D02*
X0652961Y0326999D01*
X065396D01*
X065446Y0326499D01*
Y0325999D01*
X065396Y03255D01*
X0653461D01*
X065396D01*
X065446Y0325D01*
Y03245D01*
X065546Y0326499D02*
X065596Y0326999D01*
X0656959D01*
X0657459Y0326499D01*
Y0325999D01*
X0658959Y0314999D02*
X0657959Y0313999D01*
Y0313D01*
X0658959Y0312D01*
X0660458D02*
X0661458D01*
X0660958D01*
Y0314999D01*
X0660458Y0314499D01*
X0660958Y0308999D02*
X0660458Y0308499D01*
X0660958Y0308999D02*
Y0306D01*
X0661458D01*
X0660458D01*
X0658959D02*
X0657959Y0307D01*
Y0307999D01*
X0658959Y0308999D01*
X0650961Y0312D02*
X0650461D01*
Y0313999D01*
X0649962D01*
Y0312D02*
X0650961D01*
X0665457Y0314499D02*
X0665956Y0314999D01*
X0666956D01*
X0664457Y0318D02*
X0663957D01*
Y0320999D01*
X0663457D01*
Y0318D02*
X0664457D01*
X0669955D02*
X0668956Y0319D01*
Y0319999D01*
X0669955Y0320999D01*
X0671954D02*
X0671455Y0320499D01*
X0671954Y0320999D02*
Y0318D01*
X0672454D01*
X0671455D01*
X0673954D02*
Y03185D01*
X0674454D01*
Y0318D01*
X0673954D01*
X0673454Y0324D02*
X0672454D01*
X0671954Y03245D01*
Y0326499D01*
X0672454Y0326999D01*
X0673454D01*
X0673954Y0326499D01*
Y03245D01*
X0673454Y0324D01*
X0674954D02*
Y03245D01*
X0675453D01*
Y0324D01*
X0674954D01*
X0670455D02*
X0669455Y0325D01*
Y0325999D01*
X0670455Y0326999D01*
X0664457D02*
X0663957D01*
X0664457D02*
Y0324D01*
X0664957D01*
X0663957D01*
X0677952Y033D02*
Y0331999D01*
X0678452D01*
X0678952Y03315D01*
Y033D01*
Y03315D01*
X0679452Y0331999D01*
X0679952Y03315D01*
Y033D01*
X0680952D02*
X0681951Y0331D01*
Y0331999D01*
X0680952Y0332999D01*
Y0336D02*
X0681951Y0337D01*
Y0337999D01*
X0680952Y0338999D01*
X0679452Y0337999D02*
X0679952Y0337499D01*
Y0336D01*
X0678952D02*
Y0337499D01*
Y0336D01*
X0677952D02*
Y0337999D01*
X0678452D01*
X0678952Y0337499D01*
X0679452Y0337999D01*
X0679952Y0342D02*
Y0343499D01*
X0679452Y0343999D01*
X0678952Y0343499D01*
Y0342D01*
Y0343499D01*
X0678452Y0343999D01*
X0677952D01*
Y0342D01*
X0680952D02*
X0681951Y0343D01*
Y0343999D01*
X0680952Y0344999D01*
X0679952Y0348D02*
X0680952Y0349D01*
Y0349999D01*
X0679952Y0350999D01*
X0678452Y0349999D02*
X0678952Y03495D01*
Y0348D01*
X0677952D02*
Y03495D01*
Y0348D01*
Y03495D02*
X0678452Y0349999D01*
X0677952Y03495D02*
X0677453Y0349999D01*
X0676953D01*
Y0348D01*
X0675953D02*
Y03495D01*
X0675453Y0349999D01*
X0674954Y03495D01*
Y0348D01*
Y03495D01*
X0674454Y0349999D01*
X0673954D01*
Y0348D01*
X0672454D02*
X0671954D01*
Y0350999D01*
X0671455Y0350499D01*
X0670455D02*
Y0349999D01*
X0669955Y03495D01*
X0670455Y0349D01*
Y03485D01*
X0669955Y0348D01*
X0668956D01*
X0668456Y03485D01*
Y0349D01*
X0668956Y03495D01*
X0668456Y0349999D01*
Y0350499D01*
X0668956Y0350999D01*
X0669955D01*
X0670455Y0350499D01*
X0669955Y03495D02*
X0668956D01*
X0667456Y0349999D02*
X0666956Y03495D01*
X0666456D01*
X0666956D01*
X0667456Y0349D01*
Y03485D01*
X0666956Y0348D01*
X0665956D01*
X0665457Y03485D01*
X0663457D02*
Y0348D01*
X0662957D01*
Y03485D01*
X0663457D01*
X0665457Y0350499D02*
X0665956Y0350999D01*
X0666956D01*
X0667456Y0350499D01*
Y0349999D01*
X0667956Y0344999D02*
X0665956D01*
Y0343499D01*
X0666956Y0343999D01*
X0667456D01*
X0667956Y0343499D01*
Y03425D01*
X0667456Y0342D01*
X0666456D01*
X0665956Y03425D01*
X0663957D02*
Y0342D01*
X0663457D01*
Y03425D01*
X0663957D01*
X0668956D02*
Y0344499D01*
X0669455Y0344999D01*
X0670455D01*
X0670955Y0344499D01*
Y03425D01*
X0670455Y0342D01*
X0669455D01*
X0668956Y03425D01*
X0671954D02*
Y0343D01*
X0672454Y0343499D01*
X0671954Y0343999D01*
Y0344499D01*
X0672454Y0344999D01*
X0673454D01*
X0673954Y0344499D01*
Y0343999D01*
X0673454Y0343499D01*
X0673954Y0343D01*
Y03425D01*
X0673454Y0342D01*
X0672454D01*
X0671954Y03425D01*
X0672454Y0343499D02*
X0673454D01*
X0674954Y0343999D02*
X0675453D01*
X0675953Y0343499D01*
Y0342D01*
Y0343499D01*
X0676453Y0343999D01*
X0676953Y0343499D01*
Y0342D01*
X0674954D02*
Y0343999D01*
X0672454Y0348D02*
X0671455D01*
X0670955Y0338999D02*
X0669955Y0338499D01*
X0668956Y0337499D01*
Y03365D01*
X0669455Y0336D01*
X0670455D01*
X0670955Y03365D01*
Y0337D01*
X0670455Y0337499D01*
X0668956D01*
X0667956Y0338499D02*
X0665956Y03365D01*
Y0336D01*
X0663957D02*
X0663457D01*
Y03365D01*
X0663957D01*
Y0336D01*
X0665956Y0338999D02*
X0667956D01*
Y0338499D01*
X0671954D02*
X0672454Y0338999D01*
X0673454D01*
X0673954Y0338499D01*
Y0337999D01*
X0671954Y0336D01*
X0673954D01*
X0674954D02*
Y0337999D01*
X0675453D01*
X0675953Y0337499D01*
Y0336D01*
Y0337499D01*
X0676453Y0337999D01*
X0676953Y0337499D01*
Y0336D01*
X0676453Y0331999D02*
X0676953Y03315D01*
Y033D01*
X0675953D02*
Y03315D01*
Y033D01*
X0674954D02*
Y0331999D01*
X0675453D01*
X0675953Y03315D01*
X0676453Y0331999D01*
X0673954Y03315D02*
X0672454D01*
X0671954Y0331999D01*
Y0332499D01*
X0672454Y0332999D01*
X0673454D01*
X0673954Y0332499D01*
Y03305D01*
X0673454Y033D01*
X0672454D01*
X0671954Y03305D01*
X0670955D02*
X0670455Y033D01*
X0669455D01*
X0668956Y03305D01*
Y0331D01*
X0669455Y03315D01*
X0668956Y0331999D01*
Y0332499D01*
X0669455Y0332999D01*
X0670455D01*
X0670955Y0332499D01*
Y0331999D01*
X0670455Y03315D01*
X0670955Y0331D01*
Y03305D01*
X0670455Y03315D02*
X0669455D01*
X0667956Y0331999D02*
X0667456Y03315D01*
X0667956Y0331D01*
Y03305D01*
X0667456Y033D01*
X0666456D01*
X0665956Y03305D01*
Y0331D01*
X0666456Y03315D01*
X0665956Y0331999D01*
Y0332499D01*
X0666456Y0332999D01*
X0667456D01*
X0667956Y0332499D01*
Y0331999D01*
X0667456Y03315D02*
X0666456D01*
X0663957Y03305D02*
Y033D01*
X0663457D01*
Y03305D01*
X0663957D01*
X0662458Y03425D02*
X0661958Y0342D01*
X0660958D01*
X0660458Y03425D01*
Y0344499D01*
X0660958Y0344999D01*
X0661958D01*
X0662458Y0344499D01*
Y03425D01*
X0657959Y0343D02*
Y0343999D01*
X0658959Y0344999D01*
X0657959Y0343D02*
X0658959Y0342D01*
Y0338999D02*
X0657959Y0337999D01*
Y0337D01*
X0658959Y0336D01*
X0660958D02*
X0660458Y03365D01*
Y0338499D01*
X0660958Y0338999D01*
X0661958D01*
X0662458Y0338499D01*
Y03365D01*
X0661958Y0336D01*
X0660958D01*
Y0332999D02*
X0661958D01*
X0662458Y0332499D01*
Y03305D01*
X0661958Y033D01*
X0660958D01*
X0660458Y03305D01*
Y0332499D01*
X0660958Y0332999D01*
X0658959D02*
X0657959Y0331999D01*
Y0331D01*
X0658959Y033D01*
X0653461D02*
X0652961D01*
Y0332999D01*
X0652461D01*
X0650461Y0331999D02*
X0649962D01*
X0650461D02*
Y033D01*
X0650961D01*
X0649962D01*
X0652461D02*
X0653461D01*
Y0336D02*
X0652961D01*
Y0338999D01*
X0652461D01*
X0650461Y0337999D02*
X0649962D01*
X0650461D02*
Y0336D01*
X0650961D01*
X0649962D01*
X0652461D02*
X0653461D01*
Y0342D02*
X0652961D01*
Y0344999D01*
X0652461D01*
X0650461Y0343999D02*
X0649962D01*
X0650461D02*
Y0342D01*
X0650961D01*
X0649962D01*
X0652461D02*
X0653461D01*
X0652961Y0348D02*
X0652461D01*
Y0350999D01*
X0651961D01*
X0649962Y0349999D02*
X0649462D01*
X0649962D02*
Y0348D01*
X0650461D01*
X0649462D01*
X0651961D02*
X0652961D01*
X0658459D02*
X0657459Y0349D01*
Y0349999D01*
X0658459Y0350999D01*
X0659958Y0350499D02*
X0660458Y0350999D01*
X0661458D01*
X0661958Y0350499D01*
Y03485D01*
X0661458Y0348D01*
X0660458D01*
X0659958Y03485D01*
Y0350499D01*
X0647962Y0349999D02*
X0648462Y03495D01*
Y0348D01*
X0647462D02*
Y03495D01*
Y0348D01*
X0646463D02*
Y0349999D01*
X0646963D01*
X0647462Y03495D01*
X0647962Y0349999D01*
X0644963D02*
X0645463Y03495D01*
Y03485D01*
X0644963Y0348D01*
X0643964D01*
X0643464Y03485D01*
Y03495D02*
X0644463Y0349999D01*
X0644963D01*
X0645463Y0350999D02*
X0643464D01*
Y03495D01*
X0641964Y0348D02*
X0641464D01*
Y0350999D01*
X0640965Y0350499D01*
Y0348D02*
X0641964D01*
X0642464Y0344999D02*
X0641464D01*
X0640965Y0344499D01*
X0642964D02*
X0642464Y0344999D01*
X0642964Y0344499D02*
Y0343999D01*
X0640965Y0342D01*
X0642964D01*
X0644463D02*
X0643964Y03425D01*
Y0344499D01*
X0644463Y0344999D01*
X0645463D01*
X0645963Y0344499D01*
Y03425D01*
X0645463Y0342D01*
X0644463D01*
X0646963D02*
Y0343999D01*
X0647462D01*
X0647962Y0343499D01*
Y0342D01*
Y0343499D01*
X0648462Y0343999D01*
X0648962Y0343499D01*
Y0342D01*
X0648462Y0337999D02*
X0648962Y0337499D01*
Y0336D01*
X0647962D02*
Y0337499D01*
Y0336D01*
X0646963D02*
Y0337999D01*
X0647462D01*
X0647962Y0337499D01*
X0648462Y0337999D01*
X0645963Y0338499D02*
Y03365D01*
X0645463Y0336D01*
X0644463D01*
X0643964Y03365D01*
Y0338499D01*
X0644463Y0338999D01*
X0645463D01*
X0645963Y0338499D01*
X0642964D02*
Y0337999D01*
X0642464Y0337499D01*
X0641964D01*
X0642464D01*
X0642964Y0337D01*
Y03365D01*
X0642464Y0336D01*
X0641464D01*
X0640965Y03365D01*
Y0338499D02*
X0641464Y0338999D01*
X0642464D01*
X0642964Y0338499D01*
X0642464Y0332999D02*
X0642964Y0332499D01*
Y0331999D01*
X0642464Y03315D01*
X0641964D01*
X0642464D01*
X0642964Y0331D01*
Y03305D01*
X0642464Y033D01*
X0641464D01*
X0640965Y03305D01*
Y0332499D02*
X0641464Y0332999D01*
X0642464D01*
X0643964D02*
Y03315D01*
X0644963Y0331999D01*
X0645463D01*
X0645963Y03315D01*
Y03305D01*
X0645463Y033D01*
X0644463D01*
X0643964Y03305D01*
Y0332999D02*
X0645963D01*
X0646963Y0331999D02*
X0647462D01*
X0647962Y03315D01*
Y033D01*
Y03315D01*
X0648462Y0331999D01*
X0648962Y03315D01*
Y033D01*
X0646963D02*
Y0331999D01*
X0645963Y0326999D02*
X0643964D01*
Y03255D01*
X0644963Y0325999D01*
X0645463D01*
X0645963Y03255D01*
Y03245D01*
X0645463Y0324D01*
X0644463D01*
X0643964Y03245D01*
X0642964D02*
X0642464Y0324D01*
X0641464D01*
X0640965Y03245D01*
Y0326499D02*
X0641464Y0326999D01*
X0642464D01*
X0642964Y0326499D01*
Y0325999D01*
X0642464Y03255D01*
X0641964D01*
X0642464D01*
X0642964Y0325D01*
Y03245D01*
X0646963D02*
X0647462D01*
Y0324D01*
X0646963D01*
Y03245D01*
X0645463Y0320999D02*
X0645963Y0320499D01*
Y03185D01*
X0645463Y0318D01*
X0644463D01*
X0643964Y03185D01*
Y0320499D01*
X0644463Y0320999D01*
X0645463D01*
X0642464D02*
X0640965Y0319499D01*
X0642964D01*
X0642464Y0320999D02*
Y0318D01*
X0642964Y0314999D02*
X0640965D01*
Y0313499D01*
X0641964Y0313999D01*
X0642464D01*
X0642964Y0313499D01*
Y03125D01*
X0642464Y0312D01*
X0641464D01*
X0640965Y03125D01*
X0643964D02*
X0644463Y0312D01*
X0645463D01*
X0645963Y03125D01*
Y0313499D01*
X0645463Y0313999D01*
X0644963D01*
X0643964Y0313499D01*
Y0314999D01*
X0645963D01*
X0646963Y0318D02*
Y03185D01*
X0647462D01*
Y0318D01*
X0646963D01*
Y0313999D02*
X0647462D01*
X0647962Y0313499D01*
Y0312D01*
Y0313499D01*
X0648462Y0313999D01*
X0648962Y0313499D01*
Y0312D01*
X0646963D02*
Y0313999D01*
Y0307999D02*
X0647462D01*
X0647962Y03075D01*
Y0306D01*
Y03075D01*
X0648462Y0307999D01*
X0648962Y03075D01*
Y0306D01*
X0646963D02*
Y0307999D01*
X0645963D02*
X0645463Y03075D01*
X0644963D01*
X0645463D01*
X0645963Y0307D01*
Y03065D01*
X0645463Y0306D01*
X0644463D01*
X0643964Y03065D01*
X0642964D02*
Y0307D01*
X0642464Y03075D01*
X0640965D01*
Y03065D01*
X0641464Y0306D01*
X0642464D01*
X0642964Y03065D01*
Y0308999D02*
X0641964Y0308499D01*
X0640965Y03075D01*
X0643964Y0308499D02*
X0644463Y0308999D01*
X0645463D01*
X0645963Y0308499D01*
Y0307999D01*
X0645463Y0302999D02*
X0645963Y0302499D01*
Y03005D01*
X0645463Y03D01*
X0644463D01*
X0643964Y03005D01*
Y0302499D01*
X0644463Y0302999D01*
X0645463D01*
X0642964D02*
Y0302499D01*
X0640965Y03005D01*
Y03D01*
Y0296999D02*
X0642964D01*
Y0296499D01*
X0640965Y02945D01*
Y0294D01*
X0641464Y0290999D02*
X0640965Y0290499D01*
X0641464Y0290999D02*
Y0288D01*
X0641964D01*
X0640965D01*
X0643464D02*
X0644463D01*
X0643964D01*
Y0290999D01*
X0643464Y0290499D01*
X0645963D02*
X0646463Y0290999D01*
X0647462D01*
X0647962Y0290499D01*
Y0289999D01*
X0647462Y0289499D01*
X0647962Y0289D01*
Y02885D01*
X0647462Y0288D01*
X0646463D01*
X0645963Y02885D01*
Y0289D01*
X0646463Y0289499D01*
X0645963Y0289999D01*
Y0290499D01*
X0646463Y0289499D02*
X0647462D01*
Y0294D02*
X0646963D01*
Y02945D01*
X0647462D01*
Y0294D01*
X0645463D02*
Y0296999D01*
X0643964Y0295499D01*
X0645963D01*
X0646963Y03D02*
Y03005D01*
X0647462D01*
Y03D01*
X0646963D01*
X0642964Y0302999D02*
X0640965D01*
X0609232Y0342D02*
X0608233D01*
X0607733Y03425D01*
Y0344499D02*
X0608233Y0344999D01*
X0609232D01*
X0609732Y0344499D01*
Y0343999D01*
X0609232Y0343499D01*
X0608733D01*
X0609232D01*
X0609732Y0343D01*
Y03425D01*
X0609232Y0342D01*
Y0326999D02*
X0609732Y0326499D01*
Y0325999D01*
X0609232Y03255D01*
X0609732Y0325D01*
Y03245D01*
X0609232Y0324D01*
X0608233D01*
X0607733Y03245D01*
Y0325D01*
X0608233Y03255D01*
X0607733Y0325999D01*
Y0326499D01*
X0608233Y0326999D01*
X0609232D01*
Y03255D02*
X0608233D01*
X0606233Y033D02*
X0606733Y03305D01*
Y0332499D01*
X0606233Y0332999D01*
X0605234D01*
X0604734Y0332499D01*
Y0331999D01*
X0605234Y03315D01*
X0606733D01*
X0606233Y033D02*
X0605234D01*
X0604734Y03305D01*
X0605234Y0336D02*
X0604734Y03365D01*
Y0337D01*
X0605234Y0337499D01*
X0604734Y0337999D01*
Y0338499D01*
X0605234Y0338999D01*
X0606233D01*
X0606733Y0338499D01*
Y0337999D01*
X0606233Y0337499D01*
X0606733Y0337D01*
Y03365D01*
X0606233Y0336D01*
X0605234D01*
Y0337499D02*
X0606233D01*
Y0342D02*
X0605234D01*
X0604734Y03425D01*
Y0344499D02*
X0605234Y0344999D01*
X0606233D01*
X0606733Y0344499D01*
Y0343999D01*
X0606233Y0343499D01*
X0605733D01*
X0606233D01*
X0606733Y0343D01*
Y03425D01*
X0606233Y0342D01*
X0606733Y0326999D02*
X0605733Y0326499D01*
X0604734Y03255D01*
Y03245D01*
X0605234Y0324D01*
X0606233D01*
X0606733Y03245D01*
Y0325D01*
X0606233Y03255D01*
X0604734D01*
X0605234Y0320999D02*
X0604734Y0320499D01*
X0605234Y0320999D02*
X0606233D01*
X0606733Y0320499D01*
Y0319999D01*
X0604734Y0318D01*
X0606733D01*
Y0314999D02*
X0605733Y0314499D01*
X0604734Y0313499D01*
Y03125D01*
X0605234Y0312D01*
X0606233D01*
X0606733Y03125D01*
Y0313D01*
X0606233Y0313499D01*
X0604734D01*
X0605234Y0308999D02*
X0604734Y0308499D01*
X0605234Y0308999D02*
Y0306D01*
X0605733D01*
X0604734D01*
X0605234Y0302999D02*
X0604734Y0302499D01*
X0605234Y0302999D02*
Y03D01*
X0605733D01*
X0604734D01*
X0605234Y0296999D02*
X0604734Y0296499D01*
X0605234Y0296999D02*
X0606233D01*
X0606733Y0296499D01*
Y0295999D01*
X0604734Y0294D01*
X0606733D01*
X0605234Y0290999D02*
X0604734Y0290499D01*
X0605234Y0290999D02*
Y0288D01*
X0605733D01*
X0604734D01*
X0608733Y0348D02*
Y0350999D01*
X0607233Y03495D01*
X0609232D01*
X0610232Y0349999D02*
X0610732Y03495D01*
X0612231D01*
Y0350499D02*
X0611731Y0350999D01*
X0610732D01*
X0610232Y0350499D01*
Y0349999D01*
Y03485D02*
X0610732Y0348D01*
X0611731D01*
X0612231Y03485D01*
Y0350499D01*
X0605234Y0350999D02*
X0604734Y0350499D01*
X0605234Y0350999D02*
Y0348D01*
X0605733D01*
X0604734D01*
X0709585Y0284999D02*
X0711584Y0282D01*
Y0284999D01*
X0712584D02*
X0714083D01*
X0714583Y0284499D01*
Y02835D01*
X0714083Y0283D01*
X0712584D01*
Y0282D02*
Y0284999D01*
X0715583D02*
X0717582D01*
X0716582D01*
Y0282D01*
X0718582D02*
Y02835D01*
X0720581D01*
Y0284999D01*
Y0282D01*
X0736219D02*
Y0284999D01*
X0737718D01*
X0738218Y0284499D01*
Y02835D01*
X0737718Y0283D01*
X0736219D01*
X0737218D02*
X0738218Y0282D01*
X0739717D02*
X0740717D01*
X0741217Y02825D01*
Y02835D01*
X0740717Y0283999D01*
X0739717D01*
X0739218Y02835D01*
Y02825D01*
X0739717Y0282D01*
X0742217Y02825D02*
X0742717Y0282D01*
X0744216D01*
Y0283999D01*
X0745216D02*
X0746715D01*
X0747215Y02835D01*
Y0282D01*
X0748714D02*
X0748215Y02825D01*
Y02835D01*
X0748714Y0283999D01*
X0750214D01*
Y0284999D02*
Y0282D01*
X0748714D01*
Y0288D02*
X0748215Y02885D01*
Y0289499D01*
X0748714Y0289999D01*
X0750214D01*
Y0290999D02*
Y0288D01*
X0748714D01*
X0747215D02*
Y0289499D01*
X0746715Y0289999D01*
X0745216D01*
Y0288D01*
X0744216D02*
Y0289999D01*
X0742217D02*
Y02885D01*
X0742717Y0288D01*
X0744216D01*
X0740717D02*
X0741217Y02885D01*
Y0289499D01*
X0740717Y0289999D01*
X0739717D01*
X0739218Y0289499D01*
Y02885D01*
X0739717Y0288D01*
X0740717D01*
X0738218D02*
X0737218Y0289D01*
X0737718D02*
X0736219D01*
Y0288D02*
Y0290999D01*
X0737718D01*
X0738218Y0290499D01*
Y0289499D01*
X0737718Y0289D01*
X0738218Y0294D02*
X0737218Y0295D01*
X0737718D02*
X0736219D01*
Y0294D02*
Y0296999D01*
X0737718D01*
X0738218Y0296499D01*
Y0295499D01*
X0737718Y0295D01*
X0739218Y0295499D02*
Y02945D01*
X0739717Y0294D01*
X0740717D01*
X0741217Y02945D01*
Y0295499D01*
X0740717Y0295999D01*
X0739717D01*
X0739218Y0295499D01*
X0742217Y0295999D02*
Y02945D01*
X0742717Y0294D01*
X0744216D01*
Y0295999D01*
X0745216D02*
X0746715D01*
X0747215Y0295499D01*
Y0294D01*
X0748714D02*
X0748215Y02945D01*
Y0295499D01*
X0748714Y0295999D01*
X0750214D01*
Y0296999D02*
Y0294D01*
X0748714D01*
Y03D02*
X0748215Y03005D01*
Y03015D01*
X0748714Y0301999D01*
X0750214D01*
Y0302999D02*
Y03D01*
X0748714D01*
X0747215D02*
Y03015D01*
X0746715Y0301999D01*
X0745216D01*
Y03D01*
X0744216D02*
Y0301999D01*
X0742217D02*
Y03005D01*
X0742717Y03D01*
X0744216D01*
X0740717D02*
X0741217Y03005D01*
Y03015D01*
X0740717Y0301999D01*
X0739717D01*
X0739218Y03015D01*
Y03005D01*
X0739717Y03D01*
X0740717D01*
X0738218D02*
X0737218Y0301D01*
X0737718D02*
X0736219D01*
X0737718D02*
X0738218Y03015D01*
Y0302499D01*
X0737718Y0302999D01*
X0736219D01*
Y03D01*
X0745216Y0295999D02*
Y0294D01*
Y0283999D02*
Y0282D01*
X0742217Y02825D02*
Y0283999D01*
X0720581Y0288D02*
Y0290999D01*
Y0289499D01*
X0718582D01*
Y0288D01*
Y0290999D01*
X0717582D02*
X0716582D01*
Y0288D01*
X0714083Y0289D02*
X0712584D01*
Y0288D02*
Y0290999D01*
X0714083D01*
X0714583Y0290499D01*
Y0289499D01*
X0714083Y0289D01*
X0715583Y0290999D02*
X0717582D01*
X0716582Y0294D02*
Y0296999D01*
X0717582D01*
X0715583D01*
X0714083D02*
X0714583Y0296499D01*
Y0295499D01*
X0714083Y0295D01*
X0712584D01*
Y0294D02*
Y0296999D01*
X0714083D01*
X0711584D02*
Y0294D01*
X0709585Y0296999D01*
Y0294D01*
Y0290999D02*
X0711584Y0288D01*
Y0290999D01*
X0709585D02*
Y0288D01*
Y03D02*
Y0302999D01*
X0711584Y03D01*
Y0302999D01*
X0712584D02*
X0714083D01*
X0714583Y0302499D01*
Y03015D01*
X0714083Y0301D01*
X0712584D01*
Y0302999D02*
Y03D01*
X0716582D02*
Y0302999D01*
X0717582D01*
X0715583D01*
X0718582D02*
Y03D01*
Y03015D01*
X0720581D01*
Y0302999D01*
Y03D01*
Y0296999D02*
Y0294D01*
Y0295499D02*
Y0296999D01*
Y0295499D02*
X0718582D01*
Y0294D01*
Y0296999D01*
Y0284999D02*
Y0282D01*
X0709585D02*
Y0284999D01*
X0736219Y0306D02*
Y0308999D01*
X0737718D01*
X0738218Y0308499D01*
Y03075D01*
X0737718Y0307D01*
X0736219D01*
X0737218D02*
X0738218Y0306D01*
X0739717D02*
X0740717D01*
X0741217Y03065D01*
Y03075D01*
X0740717Y0307999D01*
X0739717D01*
X0739218Y03075D01*
Y03065D01*
X0739717Y0306D01*
X0742217Y03065D02*
X0742717Y0306D01*
X0744216D01*
Y0307999D01*
X0745216D02*
X0746715D01*
X0747215Y03075D01*
Y0306D01*
X0748714D02*
X0748215Y03065D01*
Y03075D01*
X0748714Y0307999D01*
X0750214D01*
Y0308999D02*
Y0306D01*
X0748714D01*
Y0312D02*
X0748215Y03125D01*
Y0313499D01*
X0748714Y0313999D01*
X0750214D01*
Y0312D02*
X0748714D01*
X0750214D02*
Y0314999D01*
Y0318D02*
X0748714D01*
X0748215Y03185D01*
Y0319499D01*
X0748714Y0319999D01*
X0750214D01*
Y0320999D02*
Y0318D01*
X0747215D02*
Y0319499D01*
X0746715Y0319999D01*
X0745216D01*
Y0318D01*
X0744216D02*
Y0319999D01*
X0742217D02*
Y03185D01*
X0742717Y0318D01*
X0744216D01*
X0740717D02*
X0741217Y03185D01*
Y0319499D01*
X0740717Y0319999D01*
X0739717D01*
X0739218Y0319499D01*
Y03185D01*
X0739717Y0318D01*
X0740717D01*
X0738218D02*
X0737218Y0319D01*
X0737718D02*
X0736219D01*
Y0318D02*
Y0320999D01*
X0737718D01*
X0738218Y0320499D01*
Y0319499D01*
X0737718Y0319D01*
Y0314999D02*
X0738218Y0314499D01*
Y0313499D01*
X0737718Y0313D01*
X0736219D01*
Y0312D02*
Y0314999D01*
X0737718D01*
X0738218Y0324D02*
X0737218Y0325D01*
X0737718D02*
X0736219D01*
Y0324D02*
Y0326999D01*
X0737718D01*
X0738218Y0326499D01*
Y03255D01*
X0737718Y0325D01*
X0739218Y03255D02*
Y03245D01*
X0739717Y0324D01*
X0740717D01*
X0741217Y03245D01*
Y03255D01*
X0740717Y0325999D01*
X0739717D01*
X0739218Y03255D01*
X0742217Y0325999D02*
Y03245D01*
X0742717Y0324D01*
X0744216D01*
Y0325999D01*
X0745216D02*
X0746715D01*
X0747215Y03255D01*
Y0324D01*
X0748714D02*
X0748215Y03245D01*
Y03255D01*
X0748714Y0325999D01*
X0750214D01*
Y0326999D02*
Y0324D01*
X0748714D01*
X0747215Y0313499D02*
Y0312D01*
Y0313499D02*
X0746715Y0313999D01*
X0745216D01*
Y0312D01*
X0744216D02*
Y0313999D01*
X0742217D02*
Y03125D01*
X0742717Y0312D01*
X0744216D01*
X0740717D02*
X0741217Y03125D01*
Y0313499D01*
X0740717Y0313999D01*
X0739717D01*
X0739218Y0313499D01*
Y03125D01*
X0739717Y0312D01*
X0740717D01*
X0738218D02*
X0737218Y0313D01*
X0742217Y0307999D02*
Y03065D01*
X0745216Y0306D02*
Y0307999D01*
Y0324D02*
Y0325999D01*
X0747215Y033D02*
Y03315D01*
X0746715Y0331999D01*
X0745216D01*
Y033D01*
X0744216D02*
Y0331999D01*
X0742217D02*
Y03305D01*
X0742717Y033D01*
X0744216D01*
X0740717D02*
X0741217Y03305D01*
Y03315D01*
X0740717Y0331999D01*
X0739717D01*
X0739218Y03315D01*
Y03305D01*
X0739717Y033D01*
X0740717D01*
X0738218D02*
X0737218Y0331D01*
X0737718D02*
X0736219D01*
Y033D02*
Y0332999D01*
X0737718D01*
X0738218Y0332499D01*
Y03315D01*
X0737718Y0331D01*
X0738218Y0336D02*
X0737218Y0337D01*
X0737718D02*
X0736219D01*
Y0336D02*
Y0338999D01*
X0737718D01*
X0738218Y0338499D01*
Y0337499D01*
X0737718Y0337D01*
X0739218Y0337499D02*
Y03365D01*
X0739717Y0336D01*
X0740717D01*
X0741217Y03365D01*
Y0337499D01*
X0740717Y0337999D01*
X0739717D01*
X0739218Y0337499D01*
X0742217Y0337999D02*
Y03365D01*
X0742717Y0336D01*
X0744216D01*
Y0337999D01*
X0745216D02*
X0746715D01*
X0747215Y0337499D01*
Y0336D01*
X0748714D02*
X0748215Y03365D01*
Y0337499D01*
X0748714Y0337999D01*
X0750214D01*
Y0338999D02*
Y0336D01*
X0748714D01*
Y0331999D02*
X0750214D01*
Y0332999D02*
Y033D01*
X0748714D01*
X0748215Y03305D01*
Y03315D01*
X0748714Y0331999D01*
Y0342D02*
X0748215Y03425D01*
Y0343499D01*
X0748714Y0343999D01*
X0750214D01*
Y0344999D02*
Y0342D01*
X0748714D01*
X0747215D02*
Y0343499D01*
X0746715Y0343999D01*
X0745216D01*
Y0342D01*
X0744216D02*
Y0343999D01*
X0742217D02*
Y03425D01*
X0742717Y0342D01*
X0744216D01*
X0740717D02*
X0741217Y03425D01*
Y0343499D01*
X0740717Y0343999D01*
X0739717D01*
X0739218Y0343499D01*
Y03425D01*
X0739717Y0342D01*
X0740717D01*
X0738218D02*
X0737218Y0343D01*
X0737718D02*
X0736219D01*
X0737718D02*
X0738218Y0343499D01*
Y0344499D01*
X0737718Y0344999D01*
X0736219D01*
Y0342D01*
X0745216Y0337999D02*
Y0336D01*
X0747215Y0348D02*
Y03495D01*
X0746715Y0349999D01*
X0745216D01*
Y0348D01*
X0744216D02*
Y0349999D01*
X0742217D02*
Y03485D01*
X0742717Y0348D01*
X0744216D01*
X0740717D02*
X0741217Y03485D01*
Y03495D01*
X0740717Y0349999D01*
X0739717D01*
X0739218Y03495D01*
Y03485D01*
X0739717Y0348D01*
X0740717D01*
X0738218D02*
X0737218Y0349D01*
X0737718D02*
X0736219D01*
Y0348D02*
Y0350999D01*
X0737718D01*
X0738218Y0350499D01*
Y03495D01*
X0737718Y0349D01*
X0748215Y03485D02*
Y03495D01*
X0748714Y0349999D01*
X0750214D01*
Y0350999D02*
Y0348D01*
X0748714D01*
X0748215Y03485D01*
X0720581Y0314999D02*
Y0312D01*
Y0313499D02*
Y0314999D01*
Y0313499D02*
X0718582D01*
Y0312D01*
Y0314999D01*
X0717582D02*
X0716582D01*
Y0312D01*
Y0308999D02*
Y0306D01*
X0718582D02*
Y03075D01*
X0720581D01*
Y0308999D01*
Y0306D01*
X0717582Y0314999D02*
X0715583D01*
X0714083D02*
X0714583Y0314499D01*
Y0313499D01*
X0714083Y0313D01*
X0712584D01*
Y0312D02*
Y0314999D01*
X0714083D01*
X0711584D02*
Y0312D01*
X0709585Y0314999D01*
Y0312D01*
Y0308999D02*
X0711584Y0306D01*
Y0308999D01*
X0712584D02*
X0714083D01*
X0714583Y0308499D01*
Y03075D01*
X0714083Y0307D01*
X0712584D01*
Y0306D02*
Y0308999D01*
X0715583D02*
X0717582D01*
X0716582D01*
X0718582D02*
Y0306D01*
X0709585D02*
Y0308999D01*
Y0318D02*
Y0320999D01*
X0711084D01*
X0711584Y0320499D01*
Y0319499D01*
X0711084Y0319D01*
X0709585D01*
X0712584Y0320999D02*
X0714583D01*
X0713584D01*
Y0318D01*
X0715583D02*
Y0319499D01*
X0717582D01*
Y0320999D01*
Y0318D01*
X0715583D02*
Y0320999D01*
Y0324D02*
Y03255D01*
X0717582D01*
Y0326999D01*
Y0324D01*
X0715583D02*
Y0326999D01*
X0714583D02*
X0713584D01*
Y0324D01*
X0711084Y0325D02*
X0709585D01*
Y0324D02*
Y0326999D01*
X0711084D01*
X0711584Y0326499D01*
Y03255D01*
X0711084Y0325D01*
X0712584Y0326999D02*
X0714583D01*
X0713584Y033D02*
Y0332999D01*
X0714583D01*
X0712584D01*
X0711084D02*
X0711584Y0332499D01*
Y03315D01*
X0711084Y0331D01*
X0709585D01*
Y033D02*
Y0332999D01*
X0711084D01*
Y0337D02*
X0709585D01*
Y0336D02*
Y0338999D01*
X0711084D01*
X0711584Y0338499D01*
Y0337499D01*
X0711084Y0337D01*
X0712584Y0338999D02*
X0714583D01*
X0713584D01*
Y0336D01*
X0715583D02*
Y0337499D01*
X0717582D01*
Y0338999D01*
Y0336D01*
X0715583D02*
Y0338999D01*
Y0342D02*
Y0343499D01*
X0717582D01*
Y0344999D01*
Y0342D01*
X0715583D02*
Y0344999D01*
X0714583D02*
X0713584D01*
Y0342D01*
X0709585D02*
Y0344999D01*
X0711084D01*
X0711584Y0344499D01*
Y0343499D01*
X0711084Y0343D01*
X0709585D01*
X0712584Y0344999D02*
X0714583D01*
X0713584Y0348D02*
Y0350999D01*
X0714583D01*
X0712584D01*
X0711084D02*
X0711584Y0350499D01*
Y03495D01*
X0711084Y0349D01*
X0709585D01*
Y0348D02*
Y0350999D01*
X0711084D01*
X0715583D02*
Y0348D01*
Y03495D01*
X0717582D01*
Y0350999D01*
Y0348D01*
Y0332999D02*
Y033D01*
Y03315D02*
Y0332999D01*
Y03315D02*
X0715583D01*
Y033D01*
Y0332999D01*
D163*
X05805Y03135D02*
G03*
X05805Y03135I-00012J0D01*
G01*
Y03435D02*
G03*
X05805Y03435I-00012J0D01*
G01*
D164*
X01563Y0154D02*
G03*
X01563Y0154I-00008J0D01*
G01*
X01933Y01676D02*
G03*
X01933Y01676I-00008J0D01*
G01*
X02123Y01866D02*
G03*
X02123Y01866I-00008J0D01*
G01*
X02186D02*
G03*
X02186Y01866I-00008J0D01*
G01*
Y01997D02*
G03*
X02186Y01997I-00008J0D01*
G01*
X02123D02*
G03*
X02123Y01997I-00008J0D01*
G01*
X02009Y01795D02*
G03*
X02009Y01795I-00008J0D01*
G01*
X02238Y0154D02*
G03*
X02238Y0154I-00008J0D01*
G01*
X02613Y01679D02*
G03*
X02613Y01679I-00008J0D01*
G01*
X02812Y01835D02*
G03*
X02812Y01835I-00008J0D01*
G01*
X02872D02*
G03*
X02872Y01835I-00008J0D01*
G01*
X02875Y01992D02*
G03*
X02875Y01992I-00008J0D01*
G01*
X02811D02*
G03*
X02811Y01992I-00008J0D01*
G01*
X0267894Y0179406D02*
G03*
X0267894Y0179406I-00008J0D01*
G01*
X02903Y0154D02*
G03*
X02903Y0154I-00008J0D01*
G01*
X0327284Y0167716D02*
G03*
X0327284Y0167716I-00008J0D01*
G01*
X03372Y01794D02*
G03*
X03372Y01794I-00008J0D01*
G01*
X03481Y01866D02*
G03*
X03481Y01866I-00008J0D01*
G01*
X03534D02*
G03*
X03534Y01866I-00008J0D01*
G01*
X03573Y0154D02*
G03*
X03573Y0154I-00008J0D01*
G01*
X03948Y0166D02*
G03*
X03948Y0166I-00008J0D01*
G01*
X0404Y01795D02*
G03*
X0404Y01795I-00008J0D01*
G01*
X04137Y01835D02*
G03*
X04137Y01835I-00008J0D01*
G01*
X0421D02*
G03*
X0421Y01835I-00008J0D01*
G01*
X0432528Y0178228D02*
G03*
X0432528Y0178228I-00008J0D01*
G01*
X04238Y0154D02*
G03*
X04238Y0154I-00008J0D01*
G01*
X0460784Y0168516D02*
G03*
X0460784Y0168516I-00008J0D01*
G01*
X04629Y01759D02*
G03*
X04629Y01759I-00008J0D01*
G01*
X04671Y01773D02*
G03*
X04671Y01773I-00008J0D01*
G01*
X0421Y02069D02*
G03*
X0421Y02069I-00008J0D01*
G01*
X04137D02*
G03*
X04137Y02069I-00008J0D01*
G01*
X03534Y02084D02*
G03*
X03534Y02084I-00008J0D01*
G01*
X03481D02*
G03*
X03481Y02084I-00008J0D01*
G01*
X0203Y0342D02*
G03*
X0203Y0342I-00008J0D01*
G01*
X01786Y0358D02*
G03*
X01786Y0358I-00008J0D01*
G01*
X0203Y0417D02*
G03*
X0203Y0417I-00008J0D01*
G01*
X01786Y0283D02*
G03*
X01786Y0283I-00008J0D01*
G01*
X02025Y0267D02*
G03*
X02025Y0267I-00008J0D01*
G01*
X01781Y0208D02*
G03*
X01781Y0208I-00008J0D01*
G01*
X05801Y03435D02*
G03*
X05801Y03435I-00008J0D01*
G01*
D165*
X01559Y0154D02*
G03*
X01559Y0154I-00004J0D01*
G01*
X01929Y01676D02*
G03*
X01929Y01676I-00004J0D01*
G01*
X02119Y01866D02*
G03*
X02119Y01866I-00004J0D01*
G01*
X02182D02*
G03*
X02182Y01866I-00004J0D01*
G01*
Y01997D02*
G03*
X02182Y01997I-00004J0D01*
G01*
X02119D02*
G03*
X02119Y01997I-00004J0D01*
G01*
X02005Y01795D02*
G03*
X02005Y01795I-00004J0D01*
G01*
X02234Y0154D02*
G03*
X02234Y0154I-00004J0D01*
G01*
X02609Y01679D02*
G03*
X02609Y01679I-00004J0D01*
G01*
X02808Y01835D02*
G03*
X02808Y01835I-00004J0D01*
G01*
X02868D02*
G03*
X02868Y01835I-00004J0D01*
G01*
X02871Y01992D02*
G03*
X02871Y01992I-00004J0D01*
G01*
X02807D02*
G03*
X02807Y01992I-00004J0D01*
G01*
X0267494Y0179406D02*
G03*
X0267494Y0179406I-00004J0D01*
G01*
X02899Y0154D02*
G03*
X02899Y0154I-00004J0D01*
G01*
X0326884Y0167716D02*
G03*
X0326884Y0167716I-00004J0D01*
G01*
X03368Y01794D02*
G03*
X03368Y01794I-00004J0D01*
G01*
X03477Y01866D02*
G03*
X03477Y01866I-00004J0D01*
G01*
X0353D02*
G03*
X0353Y01866I-00004J0D01*
G01*
X03569Y0154D02*
G03*
X03569Y0154I-00004J0D01*
G01*
X03944Y0166D02*
G03*
X03944Y0166I-00004J0D01*
G01*
X04036Y01795D02*
G03*
X04036Y01795I-00004J0D01*
G01*
X04133Y01835D02*
G03*
X04133Y01835I-00004J0D01*
G01*
X04206D02*
G03*
X04206Y01835I-00004J0D01*
G01*
X0432128Y0178228D02*
G03*
X0432128Y0178228I-00004J0D01*
G01*
X04234Y0154D02*
G03*
X04234Y0154I-00004J0D01*
G01*
X0460384Y0168516D02*
G03*
X0460384Y0168516I-00004J0D01*
G01*
X04625Y01759D02*
G03*
X04625Y01759I-00004J0D01*
G01*
X04667Y01773D02*
G03*
X04667Y01773I-00004J0D01*
G01*
X04206Y02069D02*
G03*
X04206Y02069I-00004J0D01*
G01*
X04133D02*
G03*
X04133Y02069I-00004J0D01*
G01*
X0353Y02084D02*
G03*
X0353Y02084I-00004J0D01*
G01*
X03477D02*
G03*
X03477Y02084I-00004J0D01*
G01*
D166*
X057322Y02745D02*
X0774249D01*
Y03606D01*
X057322D01*
Y02745D01*
Y02805D02*
X0774249D01*
X0733779Y02745D02*
Y03606D01*
X0736219Y0358799D02*
Y03552D01*
Y0356999D01*
X0738618D01*
Y0358799D01*
Y03552D01*
X0740417D02*
X0741617D01*
X0742217Y03558D01*
Y0356999D01*
X0741617Y0357599D01*
X0740417D01*
X0739817Y0356999D01*
Y03558D01*
X0740417Y03552D01*
X0743416D02*
X0744616D01*
X0744016D01*
Y0358799D01*
X0743416D01*
X0746415Y0356999D02*
X0747015Y0357599D01*
X0748215D01*
X0748814Y0356999D01*
Y03564D01*
X0746415D01*
Y0356999D02*
Y03558D01*
X0747015Y03552D01*
X0748215D01*
X0754813D02*
Y0358799D01*
X0756012D01*
X0753613D01*
X0757212Y0357599D02*
Y03558D01*
X0757812Y03552D01*
X0759611D01*
Y03546D01*
X0759011Y0354D01*
X0758411D01*
X0759611Y03552D02*
Y0357599D01*
X0760811D02*
X076261D01*
X076321Y0356999D01*
Y03558D01*
X076261Y03552D01*
X0760811D01*
Y0354D02*
Y0357599D01*
X0764409Y03558D02*
Y0356999D01*
X0765009Y0357599D01*
X0766209D01*
X0766809Y0356999D01*
Y03564D01*
X0764409D01*
Y03558D02*
X0765009Y03552D01*
X0766209D01*
X0774249Y03525D02*
X057322D01*
X05787Y03552D02*
X05781Y03558D01*
X05787Y03552D02*
X0579899D01*
X0580499Y03558D01*
Y03564D01*
X0579899Y0356999D01*
X05787D01*
X05781Y0357599D01*
Y0358199D01*
X05787Y0358799D01*
X0579899D01*
X0580499Y0358199D01*
X0581699Y0357599D02*
Y03558D01*
X0582299Y03552D01*
X0584098D01*
Y03546D01*
X0583498Y0354D01*
X0582898D01*
X0584098Y03552D02*
Y0357599D01*
X0585298D02*
X0585897D01*
X0586497Y0356999D01*
Y03552D01*
Y0356999D01*
X0587097Y0357599D01*
X0587697Y0356999D01*
Y03552D01*
X0588897D02*
X0590696D01*
X0591296Y03558D01*
Y03564D01*
Y0356999D01*
X0590696Y0357599D01*
X0588897D01*
Y0358799D02*
Y03552D01*
X0585298D02*
Y0357599D01*
X0592495Y0356999D02*
Y03558D01*
X0593095Y03552D01*
X0594295D01*
X0594895Y03558D01*
Y0356999D01*
X0594295Y0357599D01*
X0593095D01*
X0592495Y0356999D01*
X0596094Y03552D02*
X0597294D01*
X0596694D01*
Y0358799D01*
X0596094D01*
X0602294Y03606D02*
Y02745D01*
X0638524D02*
Y03606D01*
X0640965Y0358799D02*
Y0356999D01*
X0642164D01*
X0640965D01*
Y03552D01*
X0644563D02*
X0645763D01*
X0645163D01*
Y0357599D01*
X0644563D01*
X0643364Y0358799D02*
X0640965D01*
X0647562Y0357599D02*
X0649362D01*
X0649962Y0356999D01*
Y03552D01*
X0651161D02*
X0652361D01*
X0651761D01*
Y0357599D01*
X0651161D01*
X065416Y0356999D02*
X065476Y0357599D01*
X065656D01*
X065596Y03564D02*
X065476D01*
X065416Y0356999D01*
X065596Y03564D02*
X065656Y03558D01*
X065596Y03552D01*
X065416D01*
X0657759D02*
Y0356999D01*
X0658359Y0357599D01*
X0659558D01*
X0660158Y0356999D01*
Y03552D01*
X0661958D02*
X0661358Y03558D01*
Y0356999D01*
X0661958Y0357599D01*
X0663157D01*
X0663757Y0356999D01*
Y03564D01*
X0661358D01*
X0657759Y0358799D02*
Y03552D01*
X0661958D02*
X0663157D01*
X0665557D02*
X0664957Y03558D01*
Y0356999D01*
X0665557Y0357599D01*
X0667356D01*
Y0358799D02*
Y03552D01*
X0665557D01*
X0672155D02*
Y0356999D01*
X0674554D01*
Y0358799D01*
Y03552D01*
X0676353D02*
X0677553D01*
X0678153Y03558D01*
Y0356999D01*
X0677553Y0357599D01*
X0676353D01*
X0675753Y0356999D01*
Y03558D01*
X0676353Y03552D01*
X0672155D02*
Y0358799D01*
X0679352Y03552D02*
X0680552D01*
X0679952D01*
Y0358799D01*
X0679352D01*
X0682351Y0356999D02*
X0682951Y0357599D01*
X0684151D01*
X068475Y0356999D01*
Y03564D01*
X0682351D01*
Y0356999D02*
Y03558D01*
X0682951Y03552D01*
X0684151D01*
X0690149D02*
X0689549Y03558D01*
X0690149Y03552D02*
X0691348D01*
X0691948Y03558D01*
Y03564D01*
X0691348Y0356999D01*
X0690149D01*
X0689549Y0357599D01*
Y0358199D01*
X0690149Y0358799D01*
X0691348D01*
X0691948Y0358199D01*
X0693148Y0357599D02*
X0693748D01*
Y03552D01*
X0694347D01*
X0693148D01*
X0696147D02*
X0698546D01*
X0700345D02*
X0699746Y03558D01*
Y0356999D01*
X0700345Y0357599D01*
X0701545D01*
X0702145Y0356999D01*
Y03564D01*
X0699746D01*
X0698546Y0357599D02*
X0696147Y03552D01*
X0700345D02*
X0701545D01*
X0709585D02*
Y0358799D01*
X0711384D01*
X0711984Y0358199D01*
Y0356999D01*
X0711384Y03564D01*
X0709585D01*
X0713184Y0358799D02*
X0713783D01*
Y03552D01*
X0714383D01*
X0713184D01*
X0716783D02*
X0716183Y03558D01*
X0716783Y03564D01*
X0718582D01*
Y0356999D02*
Y03552D01*
X0716783D01*
X0720981D02*
X0720381Y03558D01*
Y0357599D01*
X0719781D01*
X0720981D01*
X0720381D01*
Y0358199D01*
X0722781Y0356999D02*
X072338Y0357599D01*
X072458D01*
X072518Y0356999D01*
Y03564D01*
X0722781D01*
Y0356999D02*
Y03558D01*
X072338Y03552D01*
X072458D01*
X0726979D02*
X0726379Y03558D01*
Y0356999D01*
X0726979Y0357599D01*
X0728779D01*
Y0358799D02*
Y03552D01*
X0726979D01*
X0718582Y0356999D02*
X0717982Y0357599D01*
X0716783D01*
X0707145Y03606D02*
Y02745D01*
X0647562Y03552D02*
Y0357599D01*
X0633525D02*
X0632925D01*
X0632325D01*
X0633525D01*
X0632925D02*
Y03558D01*
X0633525Y03552D01*
X0631125D02*
Y0356999D01*
X0630525Y0357599D01*
X0628726D01*
Y03552D01*
X0627527D02*
Y0357599D01*
X0625127D02*
Y03558D01*
X0625727Y03552D01*
X0627527D01*
X0623328D02*
X0623928Y03558D01*
Y0356999D01*
X0623328Y0357599D01*
X0622128D01*
X0621528Y0356999D01*
Y03558D01*
X0622128Y03552D01*
X0623328D01*
X0632925Y0357599D02*
Y0358199D01*
X0620329D02*
X0619729Y0358799D01*
X0618529D01*
X061793Y0358199D01*
Y03558D01*
X0618529Y03552D01*
X0619729D01*
X0620329Y03558D01*
X0611932D02*
X0612531Y03552D01*
X0611932Y03558D02*
Y0357599D01*
X0611332D01*
X0612531D01*
X0611932D01*
Y0358199D01*
X0608932Y0357599D02*
X0608333D01*
X0608932D02*
Y03552D01*
X0609532D01*
X0608333D01*
X0607133Y0356999D02*
Y0358799D01*
Y03552D01*
X0604734D02*
Y0356999D01*
X0607133D01*
X0604734Y0358799D02*
Y03552D01*
X0696147Y0357599D02*
X0698546D01*
M02*
