M48
;Layer_Color=9474304
;FILE_FORMAT=2:5
INCH,LZ
;TYPE=PLATED
T1F00S00C0.01500
T2F00S00C0.02000
T3F00S00C0.03000
T4F00S00C0.03500
T5F00S00C0.03543
T6F00S00C0.04016
;TYPE=NON_PLATED
T7F00S00C0.05500
T8F00S00C0.06300
T9F00S00C0.07087
T10F00S00C0.07480
T11F00S00C0.11811
T12F00S00C0.15000
%
T01
X01755Y01535
X01815
X0187
X0243
X0249
X02545
X03095
X03155
X0321
X03765
X03825
X0388
X0443
X0449
X0472131Y0309368
X04634Y031
Y0307
X04635Y03024
X04601
X04669
X04097Y03012
X040545
X04012
Y03075
X040545
X04097
Y02949
X040545
X04012
X03613Y02927
Y0298
Y03033
X035565
Y0298
Y02927
X035
Y0298
Y03033
X0339657Y0307457
X033Y01754
X0315Y0175154
Y01785
Y0181748
X03185Y01695
X0321Y01575
X03155
X03765
X03825
X0388
X03855Y01695
X03785
X0382Y0175154
Y01785
Y0181748
X0397502Y0175098
X04485Y0175154
Y01785
Y0181748
X0452Y01695
X0445
X0443Y01575
X0449
X03095
X03115Y01695
X02623Y01757
X02485Y0175154
Y01785
Y0181748
X0252Y01695
X0245
X0243Y01575
X0249
X02545
X02521Y0214
X0251832Y0218531
X02517Y02315
X02455Y02261
X02611Y02227
X02707Y02143
X0290528Y0221728
X0262Y02406
X0259067Y0252933
X0254933
Y0257067
X0259067
X02466Y02594
Y02645
X02455Y02473
X02569Y02753
X02513Y03122
X02457
X02798Y0307
X030344Y029876
X03017Y02874
Y02844
X02981
Y02874
X01636Y02192
Y0214
Y02088
X01582
Y0214
Y02192
X0181Y0181748
Y01785
Y0175154
X01775Y01695
X01845
X0187Y01575
X01815
X01755
X01959Y01766
X01471Y02708
Y02774
X01337Y02773
Y02708
X01203Y0271
Y0277
X02457Y0317
X02513
X02802Y03165
X0281843Y0325957
X02805Y03489
X0295957Y0347543
X030965Y035105
X03117Y03676
X0307
Y037335
X03117
Y03791
X0307
X02601Y0384
Y03886
Y03932
X0251
Y03886
Y0384
X03315Y03578
X03392Y03436
Y034
X0347043Y0342843
X03565Y0335457
X032105Y032975
X04513Y03243
Y0321
X04553
Y03243
X04674Y03177
X04634Y0313
T02
X01555Y0154
X0223
X02895
X03565
X0423
X04202Y01835
X04129
X04032Y01795
X0394Y0166
X0431728Y0178228
X04621Y01759
X04663Y01773
X0459984Y0168516
X04202Y02069
X04129
X03526Y02084
X03473
Y01866
X03526
X03364Y01794
X0326484Y0167716
X02864Y01835
X02804
X02803Y01992
X02867
X0267094Y0179406
X02605Y01679
X02178Y01866
X02115
Y01997
X02178
X02001Y01795
X01925Y01676
T03
X04787Y03428
Y03518
X0488367
Y03428
X0498033
Y03518
X05077
Y03428
T04
X01852Y02217
Y02374
Y02531
X01943Y02969
Y03126
Y03283
Y03719
Y03876
Y04033
T05
X013725Y01265
X014725
X015725
X016725
X017725
X018725
X0203813
X0213812
X0223813
X0233812
X0243812
X0253813
X0270375
X0280375
X0290375
X0300375
X0310375
X0320375
X0336937
X0346937
X0356938
X0366937
X0376938
X0386937
X04035
X04135
X04235
X04335
X04435
X04535
X04965Y01505
X05065
Y01605
X04965
Y01705
X05065
Y01805
X04965
Y01905
X05065
Y02005
X04965
Y02105
X05065
Y02205
X04965
Y02305
X05065
Y02405
X04965
Y02505
X05065
Y02605
X04965
Y02705
X05065
Y02805
X04965
Y02905
X05065
X033Y0246
Y0236
X0316
Y0246
X0249Y0351
Y0361
X0233Y03605
Y03505
T06
X0137228Y0364094
Y0375905
T07
X01773Y0208
X01778Y0283
X02017Y0267
X02022Y0342
X01778Y0358
X02022Y0417
T08
X01222Y03092
T09
X01399Y03092
T10
X0121362Y0204697
Y0254303
T11
X01202Y037
T12
X01175Y01195
X05425Y0119501
X01175Y0410501
X05425
M30
