G04 Layer_Color=65535*
%FSTAX25Y25*%
%MOIN*%
G70*
G01*
G75*
%ADD44C,0.01000*%
%ADD112C,0.00394*%
%ADD113C,0.02362*%
%ADD114C,0.00984*%
%ADD115C,0.00787*%
%ADD116C,0.00600*%
%ADD117C,0.00800*%
D44*
X0192128Y0173382D02*
G03*
X0192128Y0173382I-0000793J0D01*
G01*
X022905Y01934D02*
Y0199398D01*
X0231049Y0197399D01*
X0233049Y0199398D01*
Y01934D01*
X0236048D02*
X0238047D01*
X0239047Y01944D01*
Y0196399D01*
X0238047Y0197399D01*
X0236048D01*
X0235048Y0196399D01*
Y01944D01*
X0236048Y01934D01*
X0243045D02*
X0242046Y01944D01*
Y0197399D01*
X0241046D01*
X0243045D01*
X0242046D01*
Y0198398D01*
X0247044Y0197399D02*
X0246044Y0196399D01*
Y01944D01*
X0247044Y01934D01*
X0249043D01*
X0250043Y01944D01*
Y0196399D01*
X0249043Y0197399D01*
X0247044D01*
X0252043D02*
Y01934D01*
Y0195399D01*
X0253042Y0196399D01*
X0254042Y0197399D01*
X0255042D01*
X0264039Y0196399D02*
X0267038D01*
X0264039D01*
Y0199398D02*
Y01934D01*
X0267038D01*
X0268037Y01944D01*
Y0195399D01*
X0267038Y0196399D01*
X0268037Y0197399D01*
Y0198398D01*
X0267038Y0199398D01*
X0264039D01*
X0259628Y0173382D02*
G03*
X0259628Y0173382I-0000793J0D01*
G01*
X02953Y01934D02*
Y0199398D01*
X0297299Y0197399D01*
X0299299Y0199398D01*
Y01934D01*
X0302298D02*
X0304297D01*
X0305297Y01944D01*
Y0196399D01*
X0304297Y0197399D01*
X0302298D01*
X0301298Y0196399D01*
Y01944D01*
X0302298Y01934D01*
X0309296D02*
X0308296Y01944D01*
Y0197399D01*
X0307296D01*
X0309296D01*
X0308296D01*
Y0198398D01*
X0313294Y0197399D02*
X0312295Y0196399D01*
Y01944D01*
X0313294Y01934D01*
X0315294D01*
X0316293Y01944D01*
Y0196399D01*
X0315294Y0197399D01*
X0313294D01*
X0318293D02*
Y01934D01*
Y0195399D01*
X0319292Y0196399D01*
X0320292Y0197399D01*
X0321292D01*
X0330289Y0198398D02*
Y01944D01*
X0331288Y01934D01*
X0333288D01*
X0334287Y01944D01*
Y0198398D02*
X0333288Y0199398D01*
X0331288D01*
X0330289Y0198398D01*
X0326128Y0173382D02*
G03*
X0326128Y0173382I-0000793J0D01*
G01*
X036145Y01928D02*
Y0198798D01*
X0363449Y0196799D01*
X0365449Y0198798D01*
Y01928D01*
X0368448D02*
X0370447D01*
X0371447Y01938D01*
Y0195799D01*
X0370447Y0196799D01*
X0368448D01*
X0367448Y0195799D01*
Y01938D01*
X0368448Y01928D01*
X03664Y02012D02*
X04368D01*
Y02889D01*
X03664D01*
Y02012D01*
X0373446Y0196799D02*
X0375446D01*
X0374446D01*
X0373446D01*
X0374446D02*
Y01938D01*
X0375446Y01928D01*
X0379444D02*
X0381444D01*
X0382443Y01938D01*
Y0195799D01*
X0381444Y0196799D01*
X0379444D01*
X0378445Y0195799D01*
Y01938D01*
X0379444Y01928D01*
X0374446Y0196799D02*
Y0197798D01*
X0384443Y0196799D02*
Y01928D01*
Y0194799D01*
X0385442Y0195799D01*
X0386442Y0196799D01*
X0387442D01*
X0396439Y0198798D02*
Y01928D01*
X0399438D01*
X0400437Y01938D01*
Y0197798D01*
X0399438Y0198798D01*
X0396439D01*
X04017Y02016D02*
Y02887D01*
X0360279Y0302242D02*
Y0298244D01*
X0358279Y0300243D02*
X0362278D01*
X03197Y03555D02*
X03178Y03574D01*
X0316272D01*
X0305201Y03628D02*
Y0366799D01*
X0303202Y0364799D02*
X03072D01*
X0261166Y0365621D02*
X0257167D01*
X0259166Y0363622D02*
Y0367621D01*
X0206Y0421D02*
Y03541D01*
X0174D01*
Y0421D01*
X0206D01*
X0211605Y04035D02*
G03*
X0211605Y04035I-0001005J0D01*
G01*
X0174Y0346D02*
X0206D01*
Y02791D01*
X0174D01*
Y0346D01*
X0147272Y0364094D02*
G03*
X0147272Y0364094I-0000891J0D01*
G01*
X0142838Y0351201D02*
Y0389193D01*
X0102188D01*
Y0351201D01*
X0142838D01*
X0135158Y0335775D02*
G03*
X0135158Y0335775I-0001245J0D01*
G01*
X0160783Y0323964D02*
Y0338728D01*
X0102515D01*
Y0323964D01*
X0107436Y0319042D01*
Y0299358D01*
X0102515Y0294436D01*
Y0279672D01*
X0160783D01*
Y0294436D01*
Y0301818D01*
Y0316582D01*
Y0323964D01*
X01735Y02709D02*
X02055D01*
Y0204D01*
X01735D01*
Y02709D01*
X0155521Y0239441D02*
G03*
X0155521Y0239441I-0000989J0D01*
G01*
X0169905Y02215D02*
G03*
X0169905Y02215I-0001005J0D01*
G01*
X0169798Y0197399D02*
X0168798Y0196399D01*
Y01944D01*
X0169798Y01934D01*
X0171797D01*
X0172797Y01944D01*
Y0196399D01*
X0171797Y0197399D01*
X0169798D01*
X0166799Y0199398D02*
Y01934D01*
X01628D02*
Y0199398D01*
X0164799Y0197399D01*
X0166799Y0199398D01*
X0174796Y0197399D02*
X0176795D01*
X0175796D01*
X0174796D01*
X0175796D02*
Y01944D01*
X0176795Y01934D01*
X0180794D02*
X0182793D01*
X0183793Y01944D01*
Y0196399D01*
X0182793Y0197399D01*
X0180794D01*
X0179795Y0196399D01*
Y01944D01*
X0180794Y01934D01*
X0185793D02*
Y0195399D01*
X0186792Y0196399D01*
X0187792Y0197399D01*
X0188792D01*
X0197789D02*
X0199788Y0199398D01*
X0201787Y0197399D01*
Y01934D01*
Y0196399D01*
X0197789D01*
Y0197399D02*
Y01934D01*
X0185793D02*
Y0197399D01*
X0175796D02*
Y0198398D01*
X024925Y022775D02*
X02505Y02265D01*
X02535D01*
X02545Y02255D01*
X02601Y02381D02*
X02607D01*
X0261Y02378D01*
X02625D01*
X0253768Y0265335D02*
G03*
X0253768Y0265335I-0000311J0D01*
G01*
X0211605Y03285D02*
G03*
X0211605Y03285I-0001005J0D01*
G01*
X0393128Y0173382D02*
G03*
X0393128Y0173382I-0000793J0D01*
G01*
X04279Y01927D02*
Y0198698D01*
X0429899Y0196699D01*
X0431899Y0198698D01*
Y01927D01*
X0434898D02*
X0436897D01*
X0437897Y01937D01*
Y0195699D01*
X0436897Y0196699D01*
X0434898D01*
X0433898Y0195699D01*
Y01937D01*
X0434898Y01927D01*
X0439896Y0196699D02*
X0441895D01*
X0440896D01*
X0439896D01*
X0440896D02*
Y01937D01*
X0441895Y01927D01*
X0445894D02*
X0447893D01*
X0448893Y01937D01*
Y0195699D01*
X0447893Y0196699D01*
X0445894D01*
X0444895Y0195699D01*
Y01937D01*
X0445894Y01927D01*
X0450893D02*
Y0194699D01*
X0451892Y0195699D01*
X0452892Y0196699D01*
X0453892D01*
X0450893D02*
Y01927D01*
X0440896Y0196699D02*
Y0197698D01*
X0462889Y0198698D02*
Y01927D01*
X0466887D01*
X0464888Y0195699D02*
X0462889D01*
Y0198698D02*
X0466887D01*
X04818Y01873D02*
X04845D01*
X048595Y018585D01*
X04731Y02011D02*
X04671Y02071D01*
Y02076D01*
Y02092D01*
X0459628Y0173382D02*
G03*
X0459628Y0173382I-0000793J0D01*
G01*
X0325123Y0086972D02*
Y008164D01*
Y0080307D01*
X032379Y0078974D01*
X0322457D01*
X0321124Y008164D02*
X0325123D01*
X0321124D02*
X0319791Y0082973D01*
Y0086972D01*
X0315792D02*
X0317125Y0085639D01*
Y008164D01*
X0313127D01*
X0311794Y0082973D01*
X0313127Y0084306D01*
X0317125D01*
X0315792Y0086972D02*
X0313127D01*
X0306462Y0089638D02*
X0305129D01*
X0306462D02*
Y008164D01*
X0307795D01*
X0305129D01*
X0301131Y0086972D02*
X0299798D01*
X0298465Y0085639D01*
X0297132Y0084306D01*
Y008164D01*
Y0086972D01*
X0293133D02*
X0294466Y0085639D01*
Y0084306D01*
X0289134D01*
Y0082973D02*
Y0085639D01*
X0290467Y0086972D01*
X0293133D01*
Y008164D02*
X0290467D01*
X0289134Y0082973D01*
X0286469Y0086972D02*
X0283803Y008164D01*
X0281137Y0086972D01*
X0278471Y0088305D02*
X0277138Y0089638D01*
X0274472D01*
X027314Y0088305D01*
Y0082973D01*
X0274472Y008164D01*
X0277138D01*
X0278471Y0082973D01*
Y0088305D01*
X0261143Y0086972D02*
X0262476Y0085639D01*
Y0082973D01*
X0261143Y008164D01*
X0257145D01*
Y0078974D02*
Y0086972D01*
X0261143D01*
X0254479Y0085639D02*
X0253146Y0086972D01*
X025048D01*
X0249147Y0085639D01*
Y0082973D01*
X025048Y008164D01*
X0253146D01*
X0254479Y0082973D01*
Y0085639D01*
X0246482Y0089638D02*
X0243816D01*
Y008164D01*
X024115Y0089638D02*
X0246482D01*
X0456707Y0315512D02*
G03*
X0456707Y0315512I-0000492J0D01*
G01*
D112*
X0365417Y0310087D02*
G03*
X0365417Y0310087I-0000197J0D01*
G01*
X0284003Y0360425D02*
G03*
X0284003Y0360425I-0000197J0D01*
G01*
X0263003D02*
G03*
X0263003Y0360425I-0000197J0D01*
G01*
D113*
X0319819Y0336906D02*
G03*
X0319819Y0336906I-0001181J0D01*
G01*
X0328319Y0374905D02*
G03*
X0328319Y0374905I-0001181J0D01*
G01*
D114*
X0256707Y03285D02*
G03*
X0256707Y03285I-0000492J0D01*
G01*
X0310665Y0342801D02*
G03*
X0310665Y0342801I-0000492J0D01*
G01*
X0318969Y0379945D02*
G03*
X0318969Y0379945I-0000492J0D01*
G01*
X0303778Y0394D02*
G03*
X0303778Y0394I-0000492J0D01*
G01*
D115*
X013225Y01215D02*
Y01315D01*
X019225D01*
Y01215D01*
X013225D01*
X0174799Y0144626D02*
Y0160374D01*
X0187201D02*
Y0144626D01*
X0198812Y01315D02*
X0258812D01*
Y01215D01*
X0198812D01*
Y01315D01*
X0242299Y0144626D02*
Y0160374D01*
X0254701Y0144626D02*
Y0160374D01*
X0265375Y01315D02*
X0325375D01*
Y01215D01*
X0265375D01*
Y01315D01*
X0308799Y0144626D02*
Y0160374D01*
X0321201Y0144626D02*
Y0160374D01*
X0331938Y01315D02*
X0391937D01*
Y01215D01*
X0331938D01*
Y01315D01*
X0375799Y0144626D02*
Y0160374D01*
X0388201Y0144626D02*
Y0160374D01*
X03985Y01315D02*
X04585D01*
Y01215D01*
X03985D01*
Y01315D01*
X0442299Y0144626D02*
Y0160374D01*
X0454701Y0144626D02*
Y0160374D01*
X04915Y01455D02*
Y02955D01*
X05115D01*
Y01455D01*
X04915D01*
X0388102Y0291142D02*
X0375898D01*
X0388102Y0308858D02*
X0375898D01*
X0379858Y0326622D02*
Y0329378D01*
X0384803Y0333303D02*
X0397795D01*
X0384803D02*
Y0383697D01*
X0397795D01*
X0422205D02*
X0435197D01*
Y0333303D01*
X0422205D01*
X0449825Y0314197D02*
Y0313803D01*
X0452975D02*
Y0314197D01*
X0463203Y0320739D02*
X0463597D01*
Y0325661D02*
X0463203D01*
X0472467Y0325197D02*
Y0324803D01*
X0493333D02*
Y0325197D01*
X0358461Y0348803D02*
Y0349197D01*
X0362142Y0329378D02*
Y0326622D01*
X0349697Y0329539D02*
X0349303D01*
Y0334461D02*
X0349697D01*
X0349697Y0325461D02*
X0349303D01*
Y0320539D02*
X0349697D01*
X0336461Y0311197D02*
Y0310803D01*
X0331539D02*
Y0311197D01*
X0327299Y0321158D02*
Y0340843D01*
X0314701D01*
Y0321158D01*
X0327299D01*
X0321197Y0316862D02*
X0320803D01*
Y0312138D02*
X0321197D01*
Y0308362D02*
X0320803D01*
Y0303638D02*
X0321197D01*
X0311362Y0302697D02*
Y0302303D01*
X0306638D02*
Y0302697D01*
X0289197Y0318961D02*
X0288803D01*
Y0314039D02*
X0289197D01*
Y0309461D02*
X0288803D01*
Y0304539D02*
X0289197D01*
X029685Y0276665D02*
Y0272335D01*
X0304264Y0257768D02*
Y0262886D01*
X0274736D01*
Y0257768D01*
Y0241232D02*
Y0236114D01*
X0304264D01*
Y0241232D01*
X0311Y0231D02*
X0321D01*
Y0251D01*
X0311D01*
Y0231D01*
X0325D02*
Y0251D01*
X0335D01*
Y0231D01*
X0325D01*
X030315Y0272335D02*
Y0276665D01*
X0274197Y0271961D02*
X0273803D01*
Y0267039D02*
X0274197D01*
X0261197Y0233961D02*
X0260803D01*
Y0229039D02*
X0261197D01*
Y0216461D02*
X0260803D01*
Y0211539D02*
X0261197D01*
X0275579Y02205D02*
Y0220894D01*
X02805D02*
Y02205D01*
X0253697Y0238039D02*
X0253303D01*
Y0242961D02*
X0253697D01*
X024275Y0256535D02*
Y0260865D01*
X023645D02*
Y0256535D01*
X0248004Y0317004D02*
Y0319425D01*
Y0317004D02*
X0220996D01*
Y0319425D01*
Y0337575D02*
Y0339996D01*
X0248004D01*
Y0337575D01*
X0259079Y0341815D02*
Y0331185D01*
X0268921D02*
Y0341815D01*
X0276803Y0341575D02*
X0277197D01*
Y0338425D02*
X0276803D01*
Y0334575D02*
X0277197D01*
Y0331425D02*
X0276803D01*
X0285539Y0329697D02*
Y0329303D01*
X0290461D02*
Y0329697D01*
X0306303Y0344925D02*
X0306697D01*
Y0348075D02*
X0306303D01*
X0323201Y0359157D02*
Y0378842D01*
X0335799D01*
Y0359157D01*
X0323201D01*
X0329039Y0350197D02*
Y0349803D01*
X0333961D02*
Y0350197D01*
X0343303Y0350961D02*
X0343697D01*
Y0346039D02*
X0343303D01*
X0353539Y0348803D02*
Y0349197D01*
X0338504Y0382504D02*
Y0384925D01*
Y0382504D02*
X0311496D01*
Y0384925D01*
X0301965Y0382815D02*
Y0372185D01*
X0299697Y0356362D02*
X0299303D01*
Y0351638D02*
X0299697D01*
X0290461Y0344197D02*
Y0343803D01*
X0283197Y0358461D02*
X0282803D01*
Y0353539D02*
X0283197D01*
X0285539Y0344197D02*
Y0343803D01*
X0285035Y0372185D02*
Y0382815D01*
X0280965D02*
Y0372185D01*
X0264035D02*
Y0382815D01*
X0254Y0366D02*
X0244D01*
Y0346D01*
X0254D01*
Y0366D01*
X0238Y03655D02*
Y03455D01*
X0228D01*
Y03655D01*
X0238D01*
X0311496Y0403075D02*
Y0405496D01*
X0338504D01*
Y0403075D01*
D116*
X0172831Y0171906D02*
Y0185094D01*
X0189169D01*
Y0171906D01*
X0172831D01*
X0149413Y020135D02*
Y0215917D01*
Y020135D02*
X0125102D01*
X011772D02*
X010276D01*
Y025765D01*
X0117622D01*
X0125102D02*
X0149413D01*
Y0243378D01*
Y0235602D02*
Y0223398D01*
X0240331Y0171906D02*
Y0185094D01*
X0256669D01*
Y0171906D01*
X0240331D01*
X0306831D02*
Y0185094D01*
X0323169D01*
Y0171906D01*
X0306831D01*
X0373831D02*
Y0185094D01*
X0390169D01*
Y0171906D01*
X0373831D01*
X0440331D02*
Y0185094D01*
X0456669D01*
Y0171906D01*
X0440331D01*
X045945Y03041D02*
X0461225D01*
X0465576D02*
X046735D01*
Y03159D02*
X0465576D01*
X0461225D02*
X045945D01*
X0264185Y0262185D02*
Y0260848D01*
Y0262185D02*
X0261863D01*
Y0247815D02*
X0264185D01*
Y0249152D01*
X0252137Y0262185D02*
X0249815D01*
Y0260848D01*
Y0249152D02*
Y0247815D01*
X0252137D01*
D117*
X013575Y0134D02*
X013675D01*
X013625D01*
Y0136999D01*
X013575Y0136499D01*
X01595Y0135D02*
X016Y01345D01*
X01605D01*
X0161Y0135D01*
Y0137499D01*
X01605D01*
X0161499D01*
X0162499D02*
X0164498D01*
Y0136999D01*
X0162499Y0135D01*
Y01345D01*
X018525Y01345D02*
X018575Y0134D01*
X0186749D01*
X0187249Y01345D01*
Y0135D01*
X0186749Y01355D01*
X018525D01*
Y01345D01*
Y01355D02*
X018625Y0136499D01*
X0187249Y0136999D01*
X0202312Y0136499D02*
X0202812Y0136999D01*
Y0134D01*
X0203312D01*
X0202312D01*
X0200998Y0113999D02*
X0201497Y0113499D01*
Y0112999D01*
X0200998Y0112499D01*
X0201497Y0112D01*
Y01115D01*
X0200998Y0111D01*
X0199998D01*
X0199498Y01115D01*
Y0112D01*
X0199998Y0112499D01*
X0199498Y0112999D01*
Y0113499D01*
X0199998Y0113999D01*
X0200998D01*
Y0112499D02*
X0199998D01*
X0198498D02*
X0197999Y0112D01*
X0196499D01*
Y0111D02*
Y0113999D01*
X0197999D01*
X0198498Y0113499D01*
Y0112499D01*
X0195499Y0113999D02*
X01945D01*
Y0111D01*
X0195499Y0113999D02*
X01935D01*
X02275Y0114499D02*
X0229499D01*
X02285D01*
Y01115D01*
X0230499D02*
Y0114499D01*
X0231998D01*
X0232498Y0113999D01*
Y0112999D01*
X0231998Y01125D01*
X0230499D01*
X0233498Y01115D02*
X0234498D01*
X0233998D01*
Y0114499D01*
X0233498Y0113999D01*
X0235997Y0112999D02*
Y0112D01*
X0236497Y01115D01*
X0237497D01*
X0237997Y0112D01*
Y01125D01*
X0237497Y0112999D01*
X0235997D01*
X0236997Y0113999D01*
X0237997Y0114499D01*
X026Y0113999D02*
X0261999D01*
X0261D01*
Y0111D01*
X0262999D02*
Y0113999D01*
X0264498D01*
X0264998Y0113499D01*
Y0112499D01*
X0264498Y0112D01*
X0262999D01*
X0265998Y0111D02*
X0266998D01*
X0266498D01*
Y0113999D01*
X0265998Y0113499D01*
X0268497D02*
X0268997Y0113999D01*
X0269997D01*
X0270497Y0113499D01*
Y01115D01*
X0269997Y0111D01*
X0268997D01*
X0268497Y01115D01*
Y0113499D01*
X02945Y0113999D02*
X0296499D01*
X02955D01*
Y0111D01*
X0297499D02*
Y0113999D01*
X0298998D01*
X0299498Y0113499D01*
Y0112499D01*
X0298998Y0112D01*
X0297499D01*
X0300498Y0111D02*
X0301498D01*
X0300998D01*
Y0113999D01*
X0300498Y0113499D01*
X0302997D02*
X0303497Y0113999D01*
X0304497D01*
X0304997Y0113499D01*
Y0112999D01*
X0304497Y0112499D01*
X0304997Y0112D01*
Y01115D01*
X0304497Y0111D01*
X0303497D01*
X0302997Y01115D01*
Y0112D01*
X0303497Y0112499D01*
X0302997Y0112999D01*
Y0113499D01*
X0303497Y0112499D02*
X0304497D01*
X03275Y01115D02*
Y0114499D01*
X0328499D01*
X03265D01*
X0329499D02*
X0330998D01*
X0331498Y0113999D01*
Y0112999D01*
X0330998Y01125D01*
X0329499D01*
Y01115D02*
Y0114499D01*
X0332998D02*
X0332498Y0113999D01*
X0332998Y0114499D02*
Y01115D01*
X0333498D01*
X0332498D01*
X0334997D02*
X0336997Y0113499D01*
Y0113999D01*
X0336497Y0114499D01*
X0335497D01*
X0334997Y0113999D01*
Y01115D02*
X0336997D01*
X03615Y0111D02*
Y0113999D01*
X0362499D01*
X03605D01*
X0363499D02*
X0364999D01*
X0365498Y0113499D01*
Y0112499D01*
X0364999Y0112D01*
X0363499D01*
Y0111D02*
Y0113999D01*
X0366998D02*
X0366498Y0113499D01*
X0366998Y0113999D02*
X0367998D01*
X0368497Y0113499D01*
Y0112999D01*
X0366498Y0111D01*
X0368497D01*
X0369997D02*
X0369497Y01115D01*
Y0112499D02*
X0370497Y0112999D01*
X0370997D01*
X0371496Y0112499D01*
Y01115D01*
X0370997Y0111D01*
X0369997D01*
X0369497Y0112499D02*
Y0113999D01*
X0371496D01*
X03925Y0114499D02*
X0394499D01*
X03935D01*
Y01115D01*
X0395499D02*
Y0114499D01*
X0396999D01*
X0397498Y0113999D01*
Y0112999D01*
X0396999Y01125D01*
X0395499D01*
X0398498Y01115D02*
X0400497Y0113499D01*
Y0113999D01*
X0399998Y0114499D01*
X0398998D01*
X0398498Y0113999D01*
Y01115D02*
X0400497D01*
X0401497D02*
X0402497D01*
X0401997D01*
Y0114499D01*
X0401497Y0113999D01*
X0427Y0114499D02*
X0428999D01*
X0428D01*
Y01115D01*
X0429999D02*
Y0114499D01*
X0431498D01*
X0431998Y0113999D01*
Y0112999D01*
X0431498Y01125D01*
X0429999D01*
X0432998Y01115D02*
X0434997Y0113499D01*
Y0113999D01*
X0434498Y0114499D01*
X0433498D01*
X0432998Y0113999D01*
Y01115D02*
X0434997D01*
X0435997D02*
Y0112D01*
X0437996Y0113999D01*
Y0114499D01*
X0435997D01*
X046Y0114999D02*
X0461999D01*
X0461D01*
Y0112D01*
X0462999D02*
Y0114999D01*
X0464499D01*
X0464998Y0114499D01*
Y0113499D01*
X0464499Y0113D01*
X0462999D01*
X0465998Y0112D02*
X0467997Y0113999D01*
Y0114499D01*
X0467498Y0114999D01*
X0466498D01*
X0465998Y0114499D01*
Y0112D02*
X0467997D01*
X0469497D02*
X0468997Y01125D01*
X0469497Y0112D02*
X0470497D01*
X0470996Y01125D01*
Y0113D01*
X0470497Y0113499D01*
X0469997D01*
X0470497D01*
X0470996Y0113999D01*
Y0114499D01*
X0470497Y0114999D01*
X0469497D01*
X0468997Y0114499D01*
X0476Y0130507D02*
X0477D01*
X0477499Y0130008D01*
X0477999Y0129508D01*
Y0129008D01*
Y0130507D02*
X0476D01*
Y0132007D02*
Y0132507D01*
X0477999D01*
Y0133007D01*
X0478499Y0134006D02*
X0478999Y0134506D01*
Y0136006D01*
X0476D01*
Y0134506D01*
X04765Y0134006D01*
X0478499D01*
X0476Y0133007D02*
Y0132007D01*
X0495533Y0135169D02*
X0498865D01*
X0499698Y0136002D01*
Y0137669D01*
X0498865Y0138502D01*
X0498032D01*
X0497199Y0137669D01*
Y0135169D01*
X0498032Y0140168D02*
X0498865D01*
X0499698Y0141001D01*
Y0142667D01*
X0498865Y01435D01*
X0498032Y0140168D02*
X04947Y01435D01*
Y0140168D01*
X0495533Y0138502D02*
X04947Y0137669D01*
Y0136002D01*
X0495533Y0135169D01*
X0505333D02*
X05045Y0136002D01*
Y0137669D01*
X0505333Y0138502D01*
X0508665D01*
X0509498Y0137669D01*
Y0136002D01*
X0508665Y0135169D01*
X0505333D01*
Y0140168D02*
X05045Y0141001D01*
Y0142667D01*
X0505333Y01435D01*
X0508665D02*
X0509498Y0142667D01*
Y0141001D01*
X0508665Y0140168D01*
X0507832D01*
X0506999Y0141001D01*
Y0141834D01*
Y0141001D01*
X0506166Y0140168D01*
X0505333D01*
X05153Y01567D02*
X05148Y01572D01*
X05153Y01567D02*
X05158D01*
X0516299Y01572D01*
Y0159699D01*
X05158D01*
X0516799D01*
X0517799D02*
Y01582D01*
X0518799Y0158699D01*
X0519299D01*
X0519798Y01582D01*
Y01572D01*
X0519299Y01567D01*
X0518299D01*
X0517799Y01572D01*
Y0159699D02*
X0519798D01*
X05305Y01695D02*
Y0172499D01*
X05315Y0171499D01*
X0532499Y0172499D01*
Y01695D01*
X0533999D02*
X0534999D01*
X0535498Y017D01*
Y0171D01*
X0534999Y0171499D01*
X0533999D01*
X0533499Y0171D01*
Y017D01*
X0533999Y01695D01*
X0536998Y017D02*
X0537498Y01695D01*
X0536998Y017D02*
Y0171499D01*
X0536498D01*
X0537498D01*
X0536998D01*
Y0171999D01*
X0541996Y0172499D02*
Y01695D01*
X0543996D01*
X0542996Y0171D02*
X0541996D01*
Y0172499D02*
X0543996D01*
X0547994D02*
X0549494D01*
X0549994Y0171999D01*
Y0171D01*
X0549494Y01705D01*
X0547994D01*
Y01695D02*
Y0172499D01*
X0550993D02*
Y01695D01*
X0551993Y01705D01*
X0552993Y01695D01*
Y0172499D01*
X0553992D02*
X0554992Y0171499D01*
X0555992Y0172499D01*
Y01695D01*
X0553992D02*
Y0172499D01*
Y01895D02*
Y0192499D01*
X0554992Y0191499D01*
X0555992Y0192499D01*
Y01895D01*
X0552993D02*
Y0192499D01*
X0551993Y01905D02*
X0552993Y01895D01*
X0551993Y01905D02*
X0550993Y01895D01*
Y0192499D01*
X0549494D02*
X0549994Y0191999D01*
Y0190999D01*
X0549494Y01905D01*
X0547994D01*
Y01895D02*
Y0192499D01*
X0549494D01*
X0543496D02*
X0541996D01*
Y01895D01*
X0543496D01*
X0543996Y019D01*
Y0191999D01*
X0543496Y0192499D01*
X0552993Y0209D02*
Y0211999D01*
X0553992D02*
X0554992Y0210999D01*
X0555992Y0211999D01*
Y0209D01*
X0553992D02*
Y0211999D01*
X0551993Y021D02*
X0552993Y0209D01*
X0551993Y021D02*
X0550993Y0209D01*
Y0211999D01*
X0549494D02*
X0549994Y0211499D01*
Y02105D01*
X0549494Y021D01*
X0547994D01*
Y0209D02*
Y0211999D01*
X0549494D01*
X0543496D02*
X0542496D01*
X0541996Y0211499D01*
Y02095D01*
X0542496Y0209D01*
X0543496D01*
X0543996Y02095D01*
Y0211499D02*
X0543496Y0211999D01*
X0552993Y0229D02*
Y0231999D01*
X0553992D02*
X0554992Y0230999D01*
X0555992Y0231999D01*
Y0229D01*
X0553992D02*
Y0231999D01*
X0551993Y023D02*
X0552993Y0229D01*
X0551993Y023D02*
X0550993Y0229D01*
Y0231999D01*
X0549494D02*
X0549994Y0231499D01*
Y02305D01*
X0549494Y023D01*
X0547994D01*
Y0229D02*
Y0231999D01*
X0549494D01*
X0543496D02*
X0541996D01*
Y0229D01*
X0543496D01*
X0543996Y02295D01*
Y023D01*
X0543496Y02305D01*
X0541996D01*
X0543496D01*
X0543996Y0230999D01*
Y0231499D01*
X0543496Y0231999D01*
X0553493Y0249D02*
Y0251999D01*
X0554492D02*
X0555492Y0250999D01*
X0556492Y0251999D01*
Y0249D01*
X0554492D02*
Y0251999D01*
X0552493Y025D02*
X0553493Y0249D01*
X0552493Y025D02*
X0551493Y0249D01*
Y0251999D01*
X0549994D02*
X0550494Y0251499D01*
Y02505D01*
X0549994Y025D01*
X0548494D01*
Y0249D02*
Y0251999D01*
X0549994D01*
X0543496D02*
X0544496Y0250999D01*
Y0249D01*
Y02505D01*
X0542496D01*
Y0250999D02*
X0543496Y0251999D01*
X0542496Y0250999D02*
Y0249D01*
X0537998D02*
X0537498Y02495D01*
Y0250999D01*
X0536998D01*
X0537998D01*
X0537498D01*
Y0251499D01*
X0535998Y02505D02*
X0535499Y0250999D01*
X0534499D01*
X0533999Y02505D01*
Y02495D01*
X0534499Y0249D01*
X0535499D01*
X0535998Y02495D01*
Y02505D01*
X0536198Y02545D02*
Y0255D01*
X0538197Y0256999D01*
Y0257499D01*
X0536198D01*
X0534698D02*
X0535198Y0256999D01*
Y0255999D01*
X0534698Y02555D01*
X0533199D01*
Y02545D02*
Y0257499D01*
X0534698D01*
X0532199D02*
X05312D01*
Y02545D01*
X0531Y0251999D02*
X0532Y0250999D01*
X0532999Y0251999D01*
Y0249D01*
X0531D02*
Y0251999D01*
X05302Y0257499D02*
X0532199D01*
X0529398Y0240199D02*
X0528398D01*
X0527898Y0239699D01*
Y0239199D01*
X0528398Y02387D01*
X0529897D01*
Y0239699D02*
X0529398Y0240199D01*
X0529897Y0239699D02*
Y02377D01*
X0529398Y02372D01*
X0528398D01*
X0527898Y02377D01*
X0526399Y02382D02*
X0524899D01*
Y02372D02*
Y0240199D01*
X0526399D01*
X0526898Y0239699D01*
Y02387D01*
X0526399Y02382D01*
X0523899Y0240199D02*
X05229D01*
Y02372D01*
X05219Y0240199D02*
X0523899D01*
X05305Y0231999D02*
X05315Y0230999D01*
X0532499Y0231999D01*
Y0229D01*
X0533999D02*
X0534999D01*
X0535498Y02295D01*
Y02305D01*
X0534999Y0230999D01*
X0533999D01*
X0533499Y02305D01*
Y02295D01*
X0533999Y0229D01*
X05305D02*
Y0231999D01*
X0536998Y0231499D02*
Y0230999D01*
X0536498D01*
X0537498D01*
X0536998D01*
Y02295D01*
X0537498Y0229D01*
X0530897Y0220199D02*
X0530397Y0219699D01*
X0530897Y0220199D02*
Y02172D01*
X0531397D01*
X0530397D01*
X0528898D02*
X0528398D01*
Y0220199D01*
X0527898Y0219699D01*
X0526898D02*
Y02187D01*
X0526399Y02182D01*
X0524899D01*
Y02172D02*
Y0220199D01*
X0526399D01*
X0526898Y0219699D01*
X0523899Y0220199D02*
X05229D01*
Y02172D01*
X05219Y0220199D02*
X0523899D01*
X0527898Y02172D02*
X0528898D01*
X05305Y0211999D02*
X05315Y0210999D01*
X0532499Y0211999D01*
Y0209D01*
X0533999D02*
X0534999D01*
X0535498Y02095D01*
Y02105D01*
X0534999Y0210999D01*
X0533999D01*
X0533499Y02105D01*
Y02095D01*
X0533999Y0209D01*
X05305D02*
Y0211999D01*
X0536998Y0211499D02*
Y0210999D01*
X0536498D01*
X0537498D01*
X0536998D01*
Y02095D01*
X0537498Y0209D01*
X0532397Y0200199D02*
X0532896Y0199699D01*
Y01977D01*
X0532397Y01972D01*
X0531397D01*
X0530897Y01977D01*
Y0199699D01*
X0531397Y0200199D01*
X0532397D01*
X0529398D02*
X0528398D01*
X0527898Y0199699D01*
X0526898D02*
Y0198699D01*
X0526399Y01982D01*
X0524899D01*
Y01972D02*
Y0200199D01*
X0526399D01*
X0526898Y0199699D01*
X0529897D02*
X0529398Y0200199D01*
X0529897Y0199699D02*
Y0199199D01*
X0527898Y01972D01*
X0529897D01*
X05305Y0192499D02*
X05315Y0191499D01*
X0532499Y0192499D01*
Y01895D01*
X0533999D02*
X0534999D01*
X0535498Y019D01*
Y0190999D01*
X0534999Y0191499D01*
X0533999D01*
X0533499Y0190999D01*
Y019D01*
X0533999Y01895D01*
X05305D02*
Y0192499D01*
X0536998Y0191999D02*
Y0191499D01*
X0536498D01*
X0537498D01*
X0536998D01*
Y019D01*
X0537498Y01895D01*
X0523899Y0200199D02*
X05229D01*
Y01972D01*
X05219Y0200199D02*
X0523899D01*
Y0180199D02*
X05229D01*
Y01772D01*
X05219Y0180199D02*
X0523899D01*
X0524899D02*
X0526399D01*
X0526898Y0179699D01*
Y01787D01*
X0526399Y01782D01*
X0524899D01*
Y01772D02*
Y0180199D01*
X0528398D02*
X0527898Y0179699D01*
X0528398Y0180199D02*
X0529398D01*
X0529897Y0179699D01*
Y0179199D01*
X0527898Y01772D01*
X0529897D01*
X0530897D02*
X0532896Y0179199D01*
Y0179699D01*
X0532397Y0180199D01*
X0531397D01*
X0530897Y0179699D01*
Y01772D02*
X0532896D01*
X0482497Y02255D02*
X0481497D01*
X0480997Y0226D01*
Y0226999D02*
X0481997Y0227499D01*
X0482497D01*
X0482997Y0226999D01*
Y0226D01*
X0482497Y02255D01*
X0482997Y0228499D02*
X0480997D01*
Y0226999D01*
X0479498Y02255D02*
X0478998D01*
Y0228499D01*
X0478498Y0227999D01*
X0477498D02*
Y0226999D01*
X0476999Y02265D01*
X0475499D01*
Y02255D02*
Y0228499D01*
X0476999D01*
X0477498Y0227999D01*
X0474499Y0228499D02*
X04735D01*
Y02255D01*
X0474499Y0228499D02*
X04725D01*
X0471792Y0221299D02*
X0471292D01*
X0470792Y0220799D01*
X0470293Y02203D01*
Y02193D01*
Y0221299D01*
X0468293D02*
X0467793D01*
X0466794Y0221799D02*
X0466294Y0222299D01*
X0464794D01*
Y02193D01*
X0466294D01*
X0466794Y02198D01*
Y0221799D01*
X0467793Y02193D02*
X0468793D01*
X0468293D01*
Y0221299D01*
X0478498Y02255D02*
X0479498D01*
X0478998Y0208999D02*
X0478498Y0208499D01*
X0477498D02*
Y02075D01*
X0476999Y0207D01*
X0475499D01*
Y0206D02*
Y0208999D01*
X0476999D01*
X0477498Y0208499D01*
X0478998Y0208999D02*
Y0206D01*
X0479498D01*
X0478498D01*
X0480997D02*
Y02065D01*
X0482997Y0208499D01*
Y0208999D01*
X0480997D01*
X0474499D02*
X04735D01*
Y0206D01*
X0474499Y0208999D02*
X04725D01*
X0469493Y02119D02*
Y02129D01*
X0469992Y02134D01*
X0470492Y0213899D01*
X0470992D01*
X0469493D02*
Y02119D01*
X0467993D02*
X0467493D01*
Y0213899D01*
X0466993D01*
X0465994Y0214399D02*
X0465494Y0214899D01*
X0463994D01*
Y02119D01*
X0465494D01*
X0465994Y02124D01*
Y0214399D01*
X0466993Y02119D02*
X0467993D01*
X0460296Y02193D02*
X0460796Y02198D01*
Y02203D01*
X0460296Y0220799D01*
X0458796D01*
X0460296D01*
X0460796Y0221299D01*
Y0221799D01*
X0460296Y0222299D01*
X0458796D01*
Y02193D01*
X0460296D01*
X0454298D02*
X0453798Y02198D01*
Y0221299D01*
X0453298D01*
X0454298D01*
X0453798D01*
Y0221799D01*
X0452298Y0220799D02*
X0451798Y0221299D01*
X0450799D01*
X0450299Y0220799D01*
Y02198D01*
X0450799Y02193D01*
X0451798D01*
X0452298Y02198D01*
Y0220799D01*
X04483Y0221299D02*
X0449299Y0222299D01*
Y02193D01*
X04473D02*
Y0222299D01*
X04483Y0221299D01*
X0448499Y0214899D02*
Y02119D01*
X0449999D02*
X0450998D01*
X0451498Y02124D01*
Y02134D01*
X0450998Y0213899D01*
X0449999D01*
X0449499Y02134D01*
Y02124D01*
X0449999Y02119D01*
X04465D02*
Y0214899D01*
X04475Y0213899D01*
X0448499Y0214899D01*
X0452998Y0214399D02*
Y0213899D01*
X0452498D01*
X0453498D01*
X0452998D01*
Y02124D01*
X0453498Y02119D01*
X0452Y0189999D02*
Y01875D01*
X04525Y0187D01*
X04535D01*
X0453999Y01875D01*
Y0189999D01*
X0455999Y0189499D02*
X0454999Y0188499D01*
Y01875D01*
X0455499Y0187D01*
X0456498D01*
X0456998Y01875D01*
Y0188D01*
X0456498Y0188499D01*
X0454999D01*
X04721Y0168899D02*
X0474099D01*
X04731D01*
Y01659D01*
X0475099D02*
Y0168899D01*
X0476599D01*
X0477098Y0168399D01*
Y01674D01*
X0476599Y01669D01*
X0475099D01*
X0478098Y01659D02*
X0480097Y0167899D01*
Y0168399D01*
X0479598Y0168899D01*
X0478598D01*
X0478098Y0168399D01*
Y01659D02*
X0480097D01*
X0481097Y01664D02*
X0481597Y01659D01*
X0482597D01*
X0483096Y01664D01*
Y01669D01*
X0482597Y01674D01*
X0481097D01*
Y01664D01*
Y01674D02*
X0482097Y0168399D01*
X0483096Y0168899D01*
X04859Y0170304D02*
X04864Y0169804D01*
X0488399D01*
X0488899Y0170304D01*
Y0171804D01*
X04859D01*
Y0170304D01*
Y0165806D02*
Y0164306D01*
X04864Y0163806D01*
X0488399D01*
X0488899Y0164306D01*
Y0165806D01*
X04859D01*
Y0162807D02*
Y0161807D01*
Y0162307D01*
X0487899D01*
Y0162807D01*
Y0160307D02*
X04859D01*
X04869D01*
X0487399Y0159808D01*
X0487899Y0159308D01*
Y0158808D01*
X0478999Y01535D02*
X0477999Y01525D01*
X0478999Y0151501D01*
X0476D01*
Y0150001D02*
Y0149001D01*
X04765Y0148502D01*
X0477499D01*
X0477999Y0149001D01*
Y0150001D01*
X0477499Y0150501D01*
X04765D01*
X0476Y0150001D01*
Y01535D02*
X0478999D01*
X0478499Y0147002D02*
X0477999D01*
Y0147502D01*
Y0146502D01*
Y0147002D01*
X04765D01*
X0476Y0146502D01*
Y0142004D02*
Y0140004D01*
Y0142004D02*
X0478999D01*
Y0140004D01*
X0477499Y0141004D02*
Y0142004D01*
X0453499Y0136999D02*
X04525Y0136499D01*
X04515Y01355D01*
Y01345D01*
X0452Y0134D01*
X0452999D01*
X0453499Y01345D01*
Y0135D01*
X0452999Y01355D01*
X04515D01*
X0438498Y0151D02*
X0437498D01*
X0436998Y01515D01*
X0435499Y0151D02*
X0434999D01*
Y0153999D01*
X0434499Y0153499D01*
X0433499D02*
Y0152499D01*
X0433Y0152D01*
X04315D01*
Y0151D02*
Y0153999D01*
X0433D01*
X0433499Y0153499D01*
X04325Y0152D02*
X0433499Y0151D01*
X0434499D02*
X0435499D01*
X0438498D02*
X0438998Y01515D01*
Y0152D01*
X0438498Y0152499D01*
X0437998D01*
X0438498D01*
X0438998Y0152999D01*
Y0153499D01*
X0438498Y0153999D01*
X0437498D01*
X0436998Y0153499D01*
X0429998Y0136499D02*
X0429498Y0135999D01*
X0429998Y0136499D02*
Y01335D01*
X0430498D01*
X0429498D01*
X0427999D02*
X0427499D01*
Y0136499D01*
X0426999Y0135999D01*
X0425999Y0136499D02*
X0425D01*
X0425499D01*
Y0134D01*
X0425Y01335D01*
X04245D01*
X0424Y0134D01*
X0426999Y01335D02*
X0427999D01*
X0403Y0134D02*
X04025D01*
Y0136999D01*
X0402Y0136499D01*
Y0134D02*
X0403D01*
X0386437D02*
X0386937Y01345D01*
Y0135D01*
X0386437Y01355D01*
X0384938D01*
Y01345D01*
X0385437Y0134D01*
X0386437D01*
X0385937Y0136499D02*
X0384938Y01355D01*
X0385937Y0136499D02*
X0386937Y0136999D01*
X0372498Y01525D02*
X0370498D01*
X0372498Y0154499D01*
Y0154999D01*
X0371998Y0155499D01*
X0370998D01*
X0370498Y0154999D01*
X0368499Y0155499D02*
X0367999Y0154999D01*
X0366999D02*
Y0153999D01*
X0366499Y01535D01*
X0365D01*
Y01525D02*
Y0155499D01*
X0366499D01*
X0366999Y0154999D01*
X0368499Y0155499D02*
Y01525D01*
X0368999D01*
X0367999D01*
X0366999D02*
X0366Y01535D01*
X0363498Y0137499D02*
X0363998Y0136999D01*
Y0135D01*
X0363498Y01345D01*
X0362498D01*
X0361998Y0135D01*
Y0136999D01*
X0362498Y0137499D01*
X0363498D01*
X0359999D02*
X0359499Y0136999D01*
X0359999Y0137499D02*
Y01345D01*
X0360499D01*
X0359499D01*
X0357999Y0135D02*
X03575Y01345D01*
X0357D01*
X03565Y0135D01*
X0357999D02*
Y0137499D01*
X03575D01*
X0358499D01*
X0335937Y0136999D02*
X0335437Y0136499D01*
X0335937Y0136999D02*
Y0134D01*
X0336437D01*
X0335437D01*
X0319875D02*
X0320374Y01345D01*
Y0135D01*
X0319875Y01355D01*
X0318375D01*
Y01345D01*
X0318875Y0134D01*
X0319875D01*
X0319375Y0136499D02*
X0318375Y01355D01*
X0319375Y0136499D02*
X0320374Y0136999D01*
X0304998Y01515D02*
X0304498D01*
Y0154499D01*
X0303998Y0153999D01*
X0301999Y0154499D02*
X0301499Y0153999D01*
X0300499D02*
Y0152999D01*
X0299999Y01525D01*
X02985D01*
Y01515D02*
Y0154499D01*
X0299999D01*
X0300499Y0153999D01*
X0301999Y0154499D02*
Y01515D01*
X0302499D01*
X0301499D01*
X0300499D02*
X02995Y01525D01*
X0297998Y0136999D02*
X0296999D01*
X0296499Y0136499D01*
Y0135999D01*
X0296999Y01355D01*
X0298498D01*
Y0136499D02*
X0297998Y0136999D01*
X0298498Y0136499D02*
Y01345D01*
X0297998Y0134D01*
X0296999D01*
X0296499Y01345D01*
X0295D02*
X02945Y0134D01*
X0294D01*
X02935Y01345D01*
X0295D02*
Y0136999D01*
X02945D01*
X0295499D01*
X0303998Y01515D02*
X0304998D01*
X0317Y0188D02*
X03175Y01875D01*
X0318499D01*
X0318999Y0188D01*
Y0190499D01*
X0317D02*
Y0188D01*
X0321498Y01875D02*
Y0190499D01*
X0319999Y0188999D01*
X0321998D01*
X0343487Y02255D02*
X0341987D01*
X0341488Y0226D01*
Y0226999D01*
X0341987Y0227499D01*
X0343487D01*
X0344487D02*
X0345486D01*
X0344986D01*
X0344487D01*
X0344986D02*
Y0226D01*
X0345486Y02255D01*
X0344986Y0227499D02*
Y0227999D01*
X03486Y02299D02*
X03491Y02294D01*
X0350099D01*
X0350599Y02299D01*
Y02304D01*
X0350099Y02309D01*
X03486D01*
Y02299D01*
X0351599Y02304D02*
X0352599Y02294D01*
X0353598Y02304D01*
Y0232399D01*
X0354598Y0231899D02*
X0355098Y0232399D01*
X0356098D01*
X0356597Y0231899D01*
Y02299D01*
X0356098Y02294D01*
X0355098D01*
X0354598Y02299D01*
Y0231899D01*
X0351599Y0232399D02*
Y02304D01*
X0369243Y0215357D02*
X0370643D01*
X0371109Y0215824D01*
Y021769D01*
X0370643Y0218157D01*
X0369243D01*
Y0215357D01*
Y0206666D02*
Y0203867D01*
X0371109D01*
X0372042Y02034D02*
X0373908D01*
X0374841Y0203867D02*
X0376707D01*
X037764D02*
Y0206666D01*
X0379506Y0203867D01*
Y0206666D01*
X0380439Y0206199D02*
Y0204333D01*
X0380906Y0203867D01*
X0381839D01*
X0382306Y0204333D01*
X0383239Y0203867D02*
X0384638D01*
X0385105Y0204333D01*
Y02048D01*
X0384638Y0205266D01*
X0383239D01*
X0384638D01*
X0385105Y0205733D01*
Y0206199D01*
X0384638Y0206666D01*
X0383239D01*
Y0203867D01*
X0382306Y0206199D02*
X0381839Y0206666D01*
X0380906D01*
X0380439Y0206199D01*
Y0209145D02*
X0382306D01*
X0383239Y0209612D02*
X0385105D01*
X0384172Y0211012D02*
X0383239D01*
Y0212411D02*
Y0209612D01*
Y0212411D02*
X0385105D01*
X0384638Y0215357D02*
X0385105Y0215824D01*
Y021629D01*
X0384638Y0216757D01*
X0383239D01*
X0384638D01*
X0385105Y0217223D01*
Y021769D01*
X0384638Y0218157D01*
X0383239D01*
Y0215357D01*
X0384638D01*
X0388837Y0211012D02*
X0390703D01*
X0394435Y0211945D02*
X0394901Y0212411D01*
X0395834D01*
X0396301Y0211945D01*
Y0211478D01*
X0394435Y0209612D01*
X0396301D01*
X0397234D02*
Y0210079D01*
X03991Y0211945D01*
Y0212411D01*
X0397234D01*
X0397701Y0215357D02*
X0397234Y0215824D01*
X0397701Y0215357D02*
X0398634D01*
X03991Y0215824D01*
Y0216757D01*
X0398634Y0217223D01*
X0398167D01*
X0397234Y0216757D01*
Y0218157D01*
X03991D01*
X0398634Y0221103D02*
X0397701D01*
X0397234Y0221569D01*
X0396301Y0221103D02*
X0394435D01*
X0396301Y0222969D01*
Y0223435D01*
X0395834Y0223902D01*
X0394901D01*
X0394435Y0223435D01*
X0397234D02*
X0397701Y0223902D01*
X0398634D01*
X03991Y0223435D01*
Y0222969D01*
X0398634Y0222502D01*
X0398167D01*
X0398634D01*
X03991Y0222036D01*
Y0221569D01*
X0398634Y0221103D01*
Y0226848D02*
Y0229647D01*
X0398167Y0229181D01*
Y0226848D02*
X03991D01*
X0398634D01*
X04046Y022728D02*
X0406466Y0229146D01*
Y0229612D01*
X0406Y0230079D01*
X0405066D01*
X04046Y0229612D01*
Y022728D02*
X0406466D01*
X0407399D02*
X0409265Y0229146D01*
Y0229612D01*
X0408799Y0230079D01*
X0407866D01*
X0407399Y0229612D01*
Y022728D02*
X0409265D01*
X0408799Y0224333D02*
X0407399Y0222934D01*
X0409265D01*
X0408799Y0224333D02*
Y0221534D01*
X0406466D02*
X04046D01*
X0406466Y02234D01*
Y0223867D01*
X0406Y0224333D01*
X0405066D01*
X04046Y0223867D01*
Y0218121D02*
X0405066Y0218588D01*
X0406D01*
X0406466Y0218121D01*
Y0217655D01*
X04046Y0215789D01*
X0406466D01*
X0407399Y0216255D02*
X0407866Y0215789D01*
X0408799D01*
X0409265Y0216255D01*
Y0216722D01*
X0408799Y0217188D01*
X0407399D01*
Y0216255D01*
Y0212376D02*
X0407866Y0212842D01*
X0408799D01*
X0409265Y0212376D01*
Y0211909D01*
X0408799Y0211443D01*
X0409265Y0210976D01*
Y021051D01*
X0408799Y0210043D01*
X0407866D01*
X0407399Y021051D01*
Y0210976D01*
X0407866Y0211443D01*
X0407399Y0211909D01*
Y0212376D01*
X0406466D02*
X0406Y0212842D01*
X0405066D01*
X04046Y0212376D01*
X0406466D02*
Y0211909D01*
X04046Y0210043D01*
X0406466D01*
X0407866Y0211443D02*
X0408799D01*
Y0207097D02*
X0409265Y020663D01*
Y0204765D01*
X0408799Y0204298D01*
X0407866D01*
X0407399Y0204765D01*
Y020663D01*
X0407866Y0207097D01*
X0408799D01*
X0406D02*
X0406466Y020663D01*
Y0206164D01*
X0406Y0205697D01*
X0405533D01*
X0406D01*
X0406466Y0205231D01*
Y0204765D01*
X0406Y0204298D01*
X0405066D01*
X04046Y0204765D01*
Y020663D02*
X0405066Y0207097D01*
X0406D01*
X03991Y0206199D02*
X0398634Y0206666D01*
X0397701D01*
X0397234Y0206199D01*
Y0205733D01*
X0397701Y0205266D01*
X03991D01*
Y0204333D02*
Y0206199D01*
Y0204333D02*
X0398634Y0203867D01*
X0397701D01*
X0397234Y0204333D01*
X0396301Y0203867D02*
X0394435D01*
X0396301Y0205733D01*
Y0206199D01*
X0395834Y0206666D01*
X0394901D01*
X0394435Y0206199D01*
X0390703Y0205266D02*
X0388837D01*
X0394435Y0215357D02*
X0396301Y0217223D01*
Y021769D01*
X0395834Y0218157D01*
X0394901D01*
X0394435Y021769D01*
X0390703Y0216757D02*
X0388837D01*
Y0222502D02*
X0390703D01*
X0385105Y0221569D02*
Y0223435D01*
X0384638Y0223902D01*
X0383239D01*
Y0221103D01*
X0384638D01*
X0385105Y0221569D01*
X0385571Y0226848D02*
X0386038Y0227315D01*
Y0227781D01*
X0385571Y0228248D01*
X0384172D01*
X0385571D01*
X0386038Y0228714D01*
Y0229181D01*
X0385571Y0229647D01*
X0384172D01*
Y0226848D01*
X0385571D01*
X038977Y0228248D02*
X0391636D01*
X0395368Y0229181D02*
X0395834Y0229647D01*
X0396767D01*
X0397234Y0229181D01*
Y0228714D01*
X0395368Y0226848D01*
X0397234D01*
X0396301Y0215357D02*
X0394435D01*
X0387498Y0190499D02*
X0385499D01*
Y0188999D01*
X0386499Y0189499D01*
X0386999D01*
X0387498Y0188999D01*
Y0188D01*
X0386999Y01875D01*
X0385999D01*
X0385499Y0188D01*
X0384499D02*
Y0190499D01*
Y0188D02*
X0383999Y01875D01*
X0383D01*
X03825Y0188D01*
Y0190499D01*
X0374841Y0203867D02*
Y0206666D01*
X0376707D01*
X0375774Y0205266D02*
X0374841D01*
X0370176D02*
X0369243D01*
Y0206666D02*
X0371109D01*
X0372509Y0209612D02*
X0373908D01*
X0374375Y0210079D01*
Y0211945D01*
X0373908Y0212411D01*
X0372509D01*
Y0209612D01*
X0375308D02*
X0376241D01*
X0375774D02*
X0375308D01*
X0375774D02*
Y0212411D01*
X0376241D01*
X0375308D01*
X037764D02*
X037904D01*
X0379506Y0211945D01*
Y0211012D01*
X037904Y0210545D01*
X037764D01*
Y0209612D02*
Y0212411D01*
X0378573Y0210545D02*
X0379506Y0209612D01*
Y0215357D02*
Y0218157D01*
X0380439Y021769D02*
Y0215824D01*
X0380906Y0215357D01*
X0381839D01*
X0382306Y0215824D01*
X0379506Y0215357D02*
X037764Y0218157D01*
Y0215357D01*
X0376707D02*
X0374841D01*
Y0218157D01*
X0376707D01*
X0375774Y0216757D02*
X0374841D01*
X0375308Y0221103D02*
X0376241D01*
X0375774D02*
X0375308D01*
X0375774D02*
Y0223902D01*
X0376241D01*
X0375308D01*
X0374375Y0223435D02*
X0373908Y0223902D01*
X0372509D01*
Y0221103D01*
X0373908D01*
X0374375Y0221569D01*
Y0223435D01*
X0374841Y0226382D02*
X0372975D01*
X0371576Y0226848D02*
X0372042Y0227315D01*
X0371576Y0226848D02*
X0370643D01*
X0370176Y0227315D01*
Y0229181D01*
X0370643Y0229647D01*
X0371576D01*
X0372042Y0229181D01*
X0375774Y0229647D02*
Y0226848D01*
X037764D01*
X0378573D02*
Y0229647D01*
X0380439Y0226848D01*
Y0229647D01*
X0381372Y0229181D02*
Y0227315D01*
X0381839Y0226848D01*
X0382772D01*
X0383239Y0227315D01*
Y0229181D02*
X0382772Y0229647D01*
X0381839D01*
X0381372Y0229181D01*
X037764Y0229647D02*
X0375774D01*
Y0228248D02*
X0376707D01*
X037764Y0223902D02*
X037904D01*
X0379506Y0223435D01*
Y0222502D01*
X037904Y0222036D01*
X037764D01*
Y0221103D02*
Y0223902D01*
X0378573Y0222036D02*
X0379506Y0221103D01*
X0380439Y0220636D02*
X0382306D01*
Y021769D02*
X0381839Y0218157D01*
X0380906D01*
X0380439Y021769D01*
X0373908Y0214891D02*
X0372042D01*
X0364998Y0181499D02*
X0363998D01*
X0363498Y0180999D01*
Y0180499D01*
X0363998Y0179999D01*
X0365498D01*
Y0180999D02*
X0364998Y0181499D01*
X0365498Y0180999D02*
Y0179D01*
X0364998Y01785D01*
X0363998D01*
X0363498Y0179D01*
X0361999Y01785D02*
X0361499D01*
Y0181499D01*
X0360999Y0180999D01*
X0359999D02*
X03595Y0181499D01*
X03585D01*
X0358Y0180999D01*
Y0179D01*
X03585Y01785D01*
X03595D01*
X0359999Y0179D01*
X0360999Y01785D02*
X0361999D01*
X0407399Y0217188D02*
X0408332Y0218121D01*
X0409265Y0218588D01*
X0412997Y0211443D02*
X0414863D01*
X0418595D02*
X0419528D01*
X0420462Y0212842D02*
X0418595D01*
Y0210043D01*
X0420462D01*
X0421394Y0209577D02*
X0423261D01*
X0424194Y0210043D02*
X042606D01*
X0426993D02*
Y0212842D01*
X0428859Y0210043D01*
Y0212842D01*
X0429792Y0212376D02*
Y021051D01*
X0430258Y0210043D01*
X0431191D01*
X0431658Y021051D01*
X0432591Y0210043D02*
Y0211909D01*
X0433524Y0212842D01*
X0434457Y0211909D01*
Y0210043D01*
Y0211443D01*
X0432591D01*
X0431658Y0212376D02*
X0431191Y0212842D01*
X0430258D01*
X0429792Y0212376D01*
Y0215789D02*
X0431658D01*
X0429792D02*
Y0218588D01*
X0431658D01*
X0430725Y0217188D02*
X0429792D01*
Y0222001D02*
X0430258Y0221534D01*
X0431191D01*
X0431658Y0222001D01*
X0432591Y0221534D02*
Y02234D01*
X0433524Y0224333D01*
X0434457Y02234D01*
Y0221534D01*
Y0222934D01*
X0432591D01*
X0431658Y0223867D02*
X0431191Y0224333D01*
X0430258D01*
X0429792Y0223867D01*
Y0222001D01*
X0428859Y0221534D02*
Y0224333D01*
X0426993D02*
X0428859Y0221534D01*
X0426993D02*
Y0224333D01*
X042606D02*
X0424194D01*
Y0221534D01*
X042606D01*
Y0218588D02*
Y0215789D01*
X0426993Y0215322D02*
X0428859D01*
X042606Y0212842D02*
X0424194D01*
Y0210043D01*
Y0211443D02*
X0425127D01*
X042466Y0207097D02*
X0424194Y020663D01*
Y0204765D01*
X042466Y0204298D01*
X0425593D01*
X042606Y0204765D01*
Y020663D02*
X0425593Y0207097D01*
X042466D01*
X0423261Y0206164D02*
X0421394Y0204298D01*
X0420462D02*
Y0207097D01*
X0418595D02*
X0420462Y0204298D01*
X0418595D02*
Y0207097D01*
X0414863Y0205697D02*
X0412997D01*
X0418595Y0215789D02*
Y0218588D01*
X0419995D01*
X0420462Y0218121D01*
Y0217188D01*
X0419995Y0216722D01*
X0418595D01*
X0422328D02*
X0423261Y0215789D01*
Y0218588D01*
X0424194D02*
X0425127Y0217655D01*
X042606Y0218588D01*
Y022728D02*
Y0230079D01*
X0425127Y0229146D01*
X0424194Y0230079D01*
Y022728D01*
X0423261D02*
Y0230079D01*
X0421394D02*
Y022728D01*
X0422328Y0228213D01*
X0423261Y022728D01*
X0419995Y0228213D02*
X0418595D01*
Y022728D02*
Y0230079D01*
X0419995D01*
X0420462Y0229612D01*
Y0228679D01*
X0419995Y0228213D01*
Y0224333D02*
X0418595D01*
Y0221534D01*
X0419995D01*
X0420462Y0222001D01*
Y0223867D01*
X0419995Y0224333D01*
X0421394Y0221068D02*
X0423261D01*
X0424194Y0222934D02*
X0425127D01*
X0424194Y0218588D02*
Y0215789D01*
X0421394D02*
X0422328Y0216722D01*
X0421394Y0218588D02*
Y0215789D01*
X0426993Y0226813D02*
X0428859D01*
X0429792Y022728D02*
X0431191D01*
X0431658Y0227746D01*
Y0229612D01*
X0431191Y0230079D01*
X0429792D01*
Y022728D01*
X04476Y02387D02*
Y0241699D01*
X04486Y0240699D01*
X0449599Y0241699D01*
Y02387D01*
X0451099D02*
X0452099D01*
X0452598Y02392D01*
Y0240199D01*
X0452099Y0240699D01*
X0451099D01*
X0450599Y0240199D01*
Y02392D01*
X0451099Y02387D01*
X0453598Y0240699D02*
X0454598D01*
X0454098D01*
X0453598D01*
X0454098D02*
Y02392D01*
X0454598Y02387D01*
X0454098Y0240699D02*
Y0241199D01*
X0459096Y0240699D02*
X0460096Y0241699D01*
X0461096Y0240699D01*
Y02387D01*
Y0240199D01*
X0459096D01*
Y0240699D02*
Y02387D01*
X0465094D02*
X0466594D01*
X0467094Y02392D01*
Y0241199D01*
X0466594Y0241699D01*
X0465094D01*
Y02387D01*
X0468093D02*
X0469093D01*
X0468593D01*
Y0240699D01*
X0468093D01*
X0470593D02*
Y02387D01*
Y02397D01*
X0471092Y0240199D01*
X0471592Y0240699D01*
X0472092D01*
X04725Y0234999D02*
X0474499D01*
X04735D01*
Y0232D01*
X0475499D02*
Y0234999D01*
X0476999D01*
X0477498Y0234499D01*
Y02335D01*
X0476999Y0233D01*
X0475499D01*
X0478498Y0232D02*
X0479498D01*
X0478998D01*
Y0234999D01*
X0478498Y0234499D01*
X0480997D02*
X0481497Y0234999D01*
X0482497D01*
X0482997Y0234499D01*
Y0233999D01*
X0482497Y02335D01*
X0481997D01*
X0482497D01*
X0482997Y0233D01*
Y02325D01*
X0482497Y0232D01*
X0481497D01*
X0480997Y02325D01*
X0471395Y02472D02*
Y0250199D01*
X0469395D02*
X0471395Y02472D01*
X0469395D02*
Y0250199D01*
X0468396D02*
X0466396D01*
Y02472D01*
X0468396D01*
X0469197Y02528D02*
X0469697Y02523D01*
X0470697D01*
X0471197Y02528D01*
Y0254799D01*
X0470697Y0255299D01*
X0469697D01*
X0469197Y0254799D01*
Y0254299D01*
X0469697Y02538D01*
X0471197D01*
X0470892Y02591D02*
X0471392Y02596D01*
X0470892Y02601D01*
X0469892D01*
X0469393Y0260599D01*
X0469892Y0261099D01*
X0471392D01*
X0470892Y02591D02*
X0469393D01*
X0468393D02*
Y0260599D01*
X0467893Y0261099D01*
X0466394D01*
Y02591D01*
X0464894D02*
X0465394Y02596D01*
X0464894Y02601D01*
X0463894D01*
X0463394Y0260599D01*
X0463894Y0261099D01*
X0465394D01*
X0464894Y02591D02*
X0463394D01*
X0461895D02*
X0460895D01*
X0461395D01*
Y0262099D01*
X0461895D01*
X0460895D01*
X04613Y02642D02*
Y0267199D01*
X0462299D01*
X04603D01*
X0463299D02*
X0464798D01*
X0465298Y0266699D01*
Y02657D01*
X0464798Y02652D01*
X0463299D01*
Y02642D02*
Y0267199D01*
X0463795Y02699D02*
X0465294D01*
X0465794Y02704D01*
X0465294Y02709D01*
X0464294D01*
X0463795Y0271399D01*
X0464294Y0271899D01*
X0465794D01*
X0466793D02*
X0468293D01*
X0468793Y0271399D01*
Y02699D01*
X0469793D02*
X0471292D01*
X0471792Y02704D01*
X0471292Y02709D01*
X0470292D01*
X0469793Y0271399D01*
X0470292Y0271899D01*
X0471792D01*
X0471296Y0267199D02*
X0470297Y0266699D01*
X0469297Y02657D01*
Y02647D01*
X0469797Y02642D01*
X0470797D01*
X0471296Y02647D01*
Y02652D01*
X0470797Y02657D01*
X0469297D01*
X0468297Y0266199D02*
X0467798Y02657D01*
X0467298D01*
X0467798D01*
X0468297Y02652D01*
Y02647D01*
X0467798Y02642D01*
X0466798D01*
X0466298Y02647D01*
Y0266699D02*
X0466798Y0267199D01*
X0467798D01*
X0468297Y0266699D01*
Y0266199D01*
X0482597Y02862D02*
X0484596Y0288199D01*
Y0288699D01*
X0484097Y0289199D01*
X0483097D01*
X0482597Y0288699D01*
X04947Y0299834D02*
Y0300667D01*
X0499698D01*
X0498865Y03015D01*
X05044Y03022D02*
X0507732Y0298868D01*
X0508565D01*
X0509398Y0299701D01*
Y0301367D01*
X0508565Y03022D01*
X05044D02*
Y0298868D01*
X05207Y02863D02*
Y0289299D01*
X0521699D01*
X05197D01*
X0522699D02*
X0524198D01*
X0524698Y0288799D01*
Y02878D01*
X0524198Y02873D01*
X0522699D01*
Y0289299D02*
Y02863D01*
X05302Y0272099D02*
X05312Y0271099D01*
X0532199Y0272099D01*
Y02691D01*
X0533699D02*
X0534698D01*
X0535198Y02696D01*
Y02706D01*
X0534698Y0271099D01*
X0533699D01*
X0533199Y02706D01*
Y02696D01*
X0533699Y02691D01*
X0532999Y0266799D02*
X0534499D01*
X0534998Y0266299D01*
Y02653D01*
X0534499Y02648D01*
X0532999D01*
Y02638D02*
Y0266799D01*
X0531999D02*
X0531D01*
Y02638D01*
X0531999Y0266799D02*
X053D01*
X05302Y02691D02*
Y0272099D01*
X0536698Y0271599D02*
Y0271099D01*
X0536198D01*
X0537198D01*
X0536698D01*
Y02696D01*
X0537198Y02691D01*
X0537498Y0266799D02*
X0537997Y0266299D01*
Y0265799D01*
X0537498Y02653D01*
X0536998D01*
X0537498D01*
X0537997Y02648D01*
Y02643D01*
X0537498Y02638D01*
X0536498D01*
X0535998Y02643D01*
Y0266299D02*
X0536498Y0266799D01*
X0537498D01*
X0538997D02*
Y02653D01*
X0539997Y0265799D01*
X0540497D01*
X0540996Y02653D01*
Y02643D01*
X0540497Y02638D01*
X0539497D01*
X0538997Y02643D01*
Y0266799D02*
X0540996D01*
X0540197Y02691D02*
X0540697Y02696D01*
Y0271599D01*
X0540197Y0272099D01*
X0538697D01*
Y02691D01*
X0540197D01*
X0544695D02*
X0545695D01*
X0545195D02*
X0544695D01*
X0545195D02*
Y0272099D01*
X0545695D01*
X0544695D01*
X0547194Y02706D02*
X0547694Y0271099D01*
X0549194D01*
X0550194D02*
X0551693D01*
X0552193Y02706D01*
Y02691D01*
X0553193D02*
X0554692D01*
X0555192Y02696D01*
X0554692Y02701D01*
X0553692D01*
X0553193Y02706D01*
X0553692Y0271099D01*
X0555192D01*
X0554592Y02793D02*
X0555092Y02798D01*
X0554592Y02803D01*
X0553592D01*
X0553093Y02808D01*
X0553592Y0281299D01*
X0555092D01*
X0554592Y02793D02*
X0553093D01*
X0552093D02*
Y02808D01*
X0551593Y0281299D01*
X0550094D01*
Y02793D01*
X0548594D02*
X0549094Y02798D01*
X0548594Y02803D01*
X0547594D01*
X0547094Y02808D01*
X0547594Y0281299D01*
X0549094D01*
X0548594Y02793D02*
X0547094D01*
X0545595D02*
X0544595D01*
X0545095D01*
Y0282299D01*
X0545595D01*
X0544595D01*
X0540097D02*
X0538597D01*
Y02793D01*
X0540097D01*
X0540597Y02798D01*
Y02803D01*
X0540097Y02808D01*
X0538597D01*
X0540097D01*
X0540597Y0281299D01*
Y0281799D01*
X0540097Y0282299D01*
X0547194Y02706D02*
X0547694Y02701D01*
X0548694D01*
X0549194Y02696D01*
X0548694Y02691D01*
X0547194D01*
X0550194D02*
Y0271099D01*
X0537098Y02793D02*
X0536598Y02798D01*
Y0281299D01*
X0536098D01*
X0537098D01*
X0536598D01*
Y0281799D01*
X0535098Y02808D02*
X0534598Y0281299D01*
X0533599D01*
X0533099Y02808D01*
Y02798D01*
X0533599Y02793D01*
X0534598D01*
X0535098Y02798D01*
Y02808D01*
X05311Y0281299D02*
X0532099Y0282299D01*
Y02793D01*
X05301D02*
Y0282299D01*
X05311Y0281299D01*
X0530197Y02863D02*
X0529197D01*
X0528697Y02868D01*
X0527697D02*
X0527198Y02863D01*
X0526198D01*
X0525698Y02868D01*
Y0288799D02*
X0526198Y0289299D01*
X0527198D01*
X0527697Y0288799D01*
Y0288299D01*
X0527198Y02878D01*
X0526698D01*
X0527198D01*
X0527697Y02873D01*
Y02868D01*
X0528697Y0288799D02*
X0529197Y0289299D01*
X0530197D01*
X0530696Y0288799D01*
Y0288299D01*
X0530197Y02878D01*
X0529697D01*
X0530197D01*
X0530696Y02873D01*
Y02868D01*
X0530197Y02863D01*
X0500998Y03236D02*
X0499999D01*
X0499499Y03241D01*
X0498499Y03236D02*
X04965D01*
Y0326599D01*
X0499499Y0326099D02*
X0499999Y0326599D01*
X0500998D01*
X0501498Y0326099D01*
Y0325599D01*
X0500998Y0325099D01*
X0500499D01*
X0500998D01*
X0501498Y03246D01*
Y03241D01*
X0500998Y03236D01*
X0487498Y0308899D02*
X0487997Y0308399D01*
Y03064D01*
X0487498Y03059D01*
X0486498D01*
X0485998Y03064D01*
Y0308399D01*
X0486498Y0308899D01*
X0487498D01*
X0484499D02*
X0483499D01*
X0482999Y0308399D01*
X0481999D02*
Y03074D01*
X0481499Y03069D01*
X048D01*
Y03059D02*
Y0308899D01*
X0481499D01*
X0481999Y0308399D01*
Y03059D02*
X0481Y03069D01*
X0481098Y0289199D02*
X0481597Y0288699D01*
Y0288199D01*
X0481098Y02877D01*
X0480598D01*
X0481098D01*
X0481597Y02872D01*
Y02867D01*
X0481098Y02862D01*
X0480098D01*
X0479598Y02867D01*
X0478098Y02872D02*
X0476599D01*
X0478098D02*
X0478598Y02877D01*
Y0288699D01*
X0478098Y0289199D01*
X0476599D01*
Y02862D01*
X04746D02*
Y0289199D01*
X0475599D01*
X04736D01*
X0479598Y0288699D02*
X0480098Y0289199D01*
X0481098D01*
X0471592Y0284199D02*
X0470092D01*
X0469593Y0283699D01*
X0470092Y02832D01*
X0471092D01*
X0471592Y02827D01*
X0471092Y02822D01*
X0469593D01*
X0468593D02*
Y0283699D01*
X0468093Y0284199D01*
X0466594D01*
Y02822D01*
X0465094D02*
X0465594Y02827D01*
X0465094Y02832D01*
X0464094D01*
X0463594Y0283699D01*
X0464094Y0284199D01*
X0465594D01*
X0465094Y02822D02*
X0463594D01*
X0462095D02*
X0461095D01*
X0461595D01*
Y0285199D01*
X0462095D01*
X0461095D01*
X0456097D02*
X0457097Y0284199D01*
Y02822D01*
Y0283699D01*
X0455097D01*
Y0284199D02*
X0456097Y0285199D01*
X0455097Y0284199D02*
Y02822D01*
X04607Y0278199D02*
X0462699D01*
X04617D01*
Y02752D01*
X0463699D02*
Y0278199D01*
X0465199D01*
X0465698Y0277699D01*
Y0276699D01*
X0465199Y02762D01*
X0463699D01*
X0466698Y02757D02*
X0467198Y02752D01*
X0468198D01*
X0468697Y02757D01*
Y02762D01*
X0468198Y0276699D01*
X0467698D01*
X0468198D01*
X0468697Y0277199D01*
Y0277699D01*
X0468198Y0278199D01*
X0467198D01*
X0466698Y0277699D01*
X0462295Y0272899D02*
X0461795D01*
Y02699D01*
X0461295D01*
X0462295D01*
X0466793D02*
Y0271899D01*
X0457297Y0272399D02*
X0456797Y0272899D01*
X0455797D01*
X0455297Y0272399D01*
Y02704D01*
X0455797Y02699D01*
X0456797D01*
X0457297Y02704D01*
X0456397Y0262099D02*
X0454897D01*
Y02591D01*
X0456397D01*
X0456897Y02596D01*
Y0261599D01*
X0456397Y0262099D01*
X04607Y0255299D02*
X0462699D01*
X04617D01*
Y02523D01*
X0463699D02*
Y0255299D01*
X0465199D01*
X0465698Y0254799D01*
Y02538D01*
X0465199Y02533D01*
X0463699D01*
X0466698Y02523D02*
X0467698D01*
X0467198D01*
Y0255299D01*
X0466698Y0254799D01*
X0466396Y0248699D02*
X0467396D01*
X0461898Y0249199D02*
X0461398D01*
X0460898D01*
X0461898D01*
X0461398D02*
Y02477D01*
X0461898Y02472D01*
X0459399D02*
X0459898Y02477D01*
Y0248699D01*
X0459399Y0249199D01*
X0458399D01*
X0457899Y0248699D01*
Y02477D01*
X0458399Y02472D01*
X0459399D01*
X0456899D02*
Y0250199D01*
X04559Y0249199D01*
X04549Y0250199D01*
Y02472D01*
X0461398Y0249199D02*
Y0249699D01*
X0453398Y02591D02*
X0452898Y02596D01*
Y0261099D01*
X0452398D01*
X0453398D01*
X0452898D01*
Y0261599D01*
X0451398Y0260599D02*
X0450899Y0261099D01*
X0449899D01*
X0449399Y0260599D01*
Y02596D01*
X0449899Y02591D01*
X0450899D01*
X0451398Y02596D01*
Y0260599D01*
X04474Y0261099D02*
X0448399Y0262099D01*
Y02591D01*
X04464D02*
Y0262099D01*
X04474Y0261099D01*
X04468Y02699D02*
Y0272899D01*
X04478Y0271899D01*
X0448799Y0272899D01*
Y02699D01*
X0450299D02*
X0451299D01*
X0451798Y02704D01*
Y0271399D01*
X0451299Y0271899D01*
X0450299D01*
X0449799Y0271399D01*
Y02704D01*
X0450299Y02699D01*
X0453298Y02704D02*
X0453798Y02699D01*
X0453298Y02704D02*
Y0271899D01*
X0452798D01*
X0453798D01*
X0453298D01*
Y0272399D01*
X0461295Y0272899D02*
X0462295D01*
X0471197Y02752D02*
Y0278199D01*
X0469697Y0276699D01*
X0471696D01*
X0482597Y02862D02*
X0484596D01*
X04947Y0299834D02*
Y03015D01*
X0484998Y03059D02*
X0482999D01*
X0484998Y0307899D01*
Y0308399D01*
X0484499Y0308899D01*
X0467297Y03287D02*
X0466798Y03282D01*
X0465798D01*
X0465298Y03287D01*
Y0329699D02*
X0466298Y0330199D01*
X0466798D01*
X0467297Y0329699D01*
Y03287D01*
Y0331199D02*
X0465298D01*
Y0329699D01*
X0464298Y0330199D02*
Y0330699D01*
X0463799Y0331199D01*
X0462799D01*
X0462299Y0330699D01*
X0461299D02*
X04608Y0331199D01*
X04598D01*
X04593Y0330699D01*
Y03287D01*
X04598Y03282D01*
X04608D01*
X0461299Y03287D01*
X0464298Y0330199D02*
X0462299Y03282D01*
X0464298D01*
X0445098Y0321399D02*
X0445597Y0320899D01*
Y0320399D01*
X0445098Y03199D01*
X0444598D01*
X0445098D01*
X0445597Y03194D01*
Y03189D01*
X0445098Y03184D01*
X0444098D01*
X0443598Y03189D01*
X0442598Y03194D02*
Y0321399D01*
X0443598Y0320899D02*
X0444098Y0321399D01*
X0445098D01*
X0440599D02*
Y03194D01*
X0441599Y03184D01*
X0442598Y03194D01*
X0442399Y0314999D02*
X0441899Y0314499D01*
X0440899D02*
X04404Y0314999D01*
X04394D01*
X04389Y0314499D01*
Y03125D01*
X04394Y0312D01*
X04404D01*
X0440899Y03125D01*
X0441899Y0312D02*
X0443898Y0313999D01*
Y0314499D01*
X0443399Y0314999D01*
X0442399D01*
X0445398D02*
X0444898Y0314499D01*
X0445398Y0314999D02*
X0446398D01*
X0446897Y0314499D01*
Y0313999D01*
X0444898Y0312D01*
X0446897D01*
X0443898D02*
X0441899D01*
X0441491Y0293799D02*
X0442991D01*
X0443491Y02933D01*
Y02918D01*
X044499D02*
X044599D01*
X044649Y02923D01*
Y02933D01*
X044599Y0293799D01*
X044499D01*
X044449Y02933D01*
Y02923D01*
X044499Y02918D01*
X044749Y02923D02*
X0447989Y02918D01*
X0449489D01*
Y0293799D01*
X0450489D02*
X0451488D01*
X0450988D01*
X0450489D01*
X0450988D02*
Y02923D01*
X0451488Y02918D01*
X0450988Y0293799D02*
Y0294299D01*
X044749Y0293799D02*
Y02923D01*
X0441491Y02918D02*
Y0293799D01*
X0439992Y02918D02*
X0439492D01*
Y0293799D01*
X0438992D01*
X0437993Y02933D02*
X0437493Y02928D01*
X0435993D01*
Y02918D02*
Y0294799D01*
X0437493D01*
X0437993Y0294299D01*
Y02933D01*
X0438992Y02918D02*
X0439992D01*
X04466Y0285199D02*
X04476Y0284199D01*
X0448599Y0285199D01*
Y02822D01*
X0450099D02*
X0451098D01*
X0451598Y02827D01*
Y0283699D01*
X0451098Y0284199D01*
X0450099D01*
X0449599Y0283699D01*
Y02827D01*
X0450099Y02822D01*
X04466D02*
Y0285199D01*
X0453098Y0284699D02*
Y0284199D01*
X0452598D01*
X0453598D01*
X0453098D01*
Y02827D01*
X0453598Y02822D01*
X0461Y02968D02*
X04615Y02963D01*
X04625D01*
X0462999Y02968D01*
Y0299299D01*
X0463999Y0298799D02*
X0464499Y0299299D01*
X0465498D01*
X0465998Y0298799D01*
Y0298299D01*
X0465498Y0297799D01*
X0465998Y02973D01*
Y02968D01*
X0465498Y02963D01*
X0464499D01*
X0463999Y02968D01*
Y02973D01*
X0464499Y0297799D01*
X0463999Y0298299D01*
Y0298799D01*
X0464499Y0297799D02*
X0465498D01*
X0461Y02968D02*
Y0299299D01*
X04391Y03184D02*
X04381D01*
X04376Y03189D01*
Y0320899D02*
X04381Y0321399D01*
X04391D01*
X0439599Y0320899D01*
Y0320399D01*
X04391Y03199D01*
X04386D01*
X04391D01*
X0439599Y03194D01*
Y03189D01*
X04391Y03184D01*
X0424497Y0293799D02*
X0425996D01*
Y0294799D02*
Y02918D01*
X0424497D01*
X0423997Y02923D01*
Y02933D01*
X0424497Y0293799D01*
X0422498D02*
X0422997Y02933D01*
Y02918D01*
X0421498D01*
X0420998Y02923D01*
X0421498Y02928D01*
X0422997D01*
X0422498Y0293799D02*
X0421498D01*
X0419498D02*
X0419998Y02933D01*
Y02928D01*
X0417999D01*
Y02923D02*
Y02933D01*
X0418499Y0293799D01*
X0419498D01*
Y02918D02*
X0418499D01*
X0417999Y02923D01*
X0416999Y02918D02*
Y0294799D01*
Y02933D01*
X0415D01*
Y02918D01*
Y0294799D01*
X0416263Y02866D02*
X0415796Y0286134D01*
Y0284267D01*
X0416263Y0283801D01*
X0417196D01*
X0417662Y0284267D01*
Y0285201D01*
X0416729D01*
X0417662Y0286134D02*
X0417196Y02866D01*
X0416263D01*
X0418595D02*
X0420462Y0283801D01*
Y02866D01*
X0421394D02*
Y0283801D01*
X0422794D01*
X0423261Y0284267D01*
Y0286134D01*
X0422794Y02866D01*
X0421394D01*
X0418595D02*
Y0283801D01*
X0418596Y0280388D02*
X0419995D01*
X0420928D02*
X0422328D01*
X0422794Y0279922D01*
Y0278522D01*
X0423727D02*
X0425127D01*
X0425593Y0278989D01*
X0425127Y0279455D01*
X0424194D01*
X0423727Y0279922D01*
X0424194Y0280388D01*
X0425593D01*
X0420928D02*
Y0278522D01*
X0419528D02*
X0419995Y0278989D01*
X0419528Y0279455D01*
X0418596D01*
X0418129Y0279922D01*
X0418596Y0280388D01*
X0418129Y0278522D02*
X0419528D01*
X0416729D02*
X0415796D01*
X0416263D01*
Y0281321D01*
X0416729D01*
X0415796D01*
X0412064Y0279922D02*
X0410198D01*
X0406466D02*
X04046D01*
X0406Y0281321D01*
Y0278522D01*
X0406466Y0275576D02*
X0405533Y0275109D01*
X04046Y0274176D01*
Y0273243D01*
X0405066Y0272777D01*
X0406D01*
X0406466Y0273243D01*
Y027371D01*
X0406Y0274176D01*
X04046D01*
X03991Y0274211D02*
Y0273278D01*
X0398634Y0272812D01*
X0397701D01*
X0397234Y0273278D01*
Y0274211D02*
X0398167Y0274678D01*
X0398634D01*
X03991Y0274211D01*
Y0275611D02*
X0397234D01*
Y0274211D01*
X0393502D02*
X0391636D01*
X0387904Y0275144D02*
X0387437Y0275611D01*
X0386504D01*
X0386038Y0275144D01*
Y0273278D01*
X0386504Y0272812D01*
X0387437D01*
X0387904Y0273278D01*
Y0278557D02*
Y0279957D01*
X0386038D01*
Y0280423D02*
X0386971Y0281356D01*
X0387904Y0280423D01*
Y0278557D01*
X0386038D02*
Y0280423D01*
X0385105Y0278091D02*
X0383239D01*
X0381839Y0278557D02*
X0382306Y0279024D01*
X0381839Y027949D01*
X0380906D01*
X0380439Y0279957D01*
X0380906Y0280423D01*
X0382306D01*
X0381839Y0278557D02*
X0380439D01*
X0379506D02*
Y0279957D01*
X037904Y0280423D01*
X037764D01*
Y0278557D01*
X0376241D02*
X0376707Y0279024D01*
X0376241Y027949D01*
X0375308D01*
X0374841Y0279957D01*
X0375308Y0280423D01*
X0376707D01*
X0376241Y0278557D02*
X0374841D01*
X0373442D02*
X0372509D01*
X0372975D01*
Y0281356D01*
X0373442D01*
X0372509D01*
Y0275611D02*
X0373442D01*
X0372975D01*
Y0272812D01*
X0372509D01*
X0373442D01*
X0374841D02*
X0376241D01*
X0376707Y0273278D01*
X0376241Y0273745D01*
X0375308D01*
X0374841Y0274211D01*
X0375308Y0274678D01*
X0376707D01*
X037764D02*
X037904D01*
X0379506Y0274211D01*
Y0272812D01*
X0380439D02*
X0381839D01*
X0382306Y0273278D01*
X0381839Y0273745D01*
X0380906D01*
X0380439Y0274211D01*
X0380906Y0274678D01*
X0382306D01*
X037764D02*
Y0272812D01*
X0381839Y0283836D02*
X0381372Y0284302D01*
X0381839Y0283836D02*
X0382772D01*
X0383239Y0284302D01*
Y0284769D01*
X0382772Y0285236D01*
X0382306D01*
X0382772D01*
X0383239Y0285702D01*
Y0286169D01*
X0382772Y0286635D01*
X0381839D01*
X0381372Y0286169D01*
X0383239Y0272345D02*
X0385105D01*
X0386038Y0269865D02*
Y0267066D01*
X0387904D01*
X0386971Y0268466D02*
X0386038D01*
Y0269865D02*
X0387904D01*
X0391636Y0268466D02*
X0393502D01*
X0397234Y0267533D02*
Y0267066D01*
Y0267533D02*
X03991Y0269399D01*
Y0269865D01*
X0397234D01*
Y0263653D02*
Y0263187D01*
X0397701Y026272D01*
X03991D01*
Y0261787D02*
Y0263653D01*
X0398634Y026412D01*
X0397701D01*
X0397234Y0263653D01*
Y0261787D02*
X0397701Y0261321D01*
X0398634D01*
X03991Y0261787D01*
X04046Y0261752D02*
X0405533D01*
X0405066D01*
Y0264551D01*
X04046Y0264085D01*
X0406933D02*
X0407399Y0264551D01*
X0408332D01*
X0408799Y0264085D01*
Y0262219D01*
X0408332Y0261752D01*
X0407399D01*
X0406933Y0262219D01*
Y0264085D01*
X0406Y0267031D02*
X0405066D01*
X04046Y0267498D01*
Y0267964D01*
X0405066Y0268431D01*
X04046Y0268897D01*
Y0269364D01*
X0405066Y026983D01*
X0406D01*
X0406466Y0269364D01*
Y0268897D01*
X0406Y0268431D01*
X0406466Y0267964D01*
Y0267498D01*
X0406Y0267031D01*
Y0268431D02*
X0405066D01*
X0410198D02*
X0412064D01*
X0415796Y026983D02*
X0417662Y0267031D01*
Y026983D01*
X0415796D02*
Y0267031D01*
X0418595D02*
X0420462Y0268897D01*
X0421394Y0269364D02*
Y0267498D01*
X0421861Y0267031D01*
X0422794D01*
X0423261Y0267498D01*
Y0269364D02*
X0422794Y026983D01*
X0421861D01*
X0421394Y0269364D01*
X0420928Y0264551D02*
Y0261752D01*
X0421861Y0262685D01*
X0422794Y0261752D01*
Y0264551D01*
X0423727D02*
X042466Y0263618D01*
X0425593Y0264551D01*
Y0261752D01*
X0423727D02*
Y0264551D01*
X0419528D02*
X0419995Y0264085D01*
Y0263152D01*
X0419528Y0262685D01*
X0418129D01*
Y0261752D02*
Y0264551D01*
X0419528D01*
X0419062Y0258806D02*
X0419995Y0257873D01*
Y0256007D01*
Y0257406D01*
X0418129D01*
Y0257873D02*
X0419062Y0258806D01*
X0423727D02*
Y0256007D01*
X0425593D01*
X042466Y0257406D02*
X0423727D01*
X0422794Y025554D02*
X0420928D01*
Y0253061D02*
Y0250261D01*
X0421861Y0251194D01*
X0422794Y0250261D01*
Y0253061D01*
X0423727D02*
X042466Y0252127D01*
X0425593Y0253061D01*
Y0250261D01*
X0423727D02*
Y0253061D01*
X0419528D02*
X0419995Y0252594D01*
Y0251661D01*
X0419528Y0251194D01*
X0418129D01*
Y0250261D02*
Y0253061D01*
X0419528D01*
X0418129Y0256007D02*
Y0257873D01*
X0414397Y0257406D02*
X0412531D01*
Y0251661D02*
X0414397D01*
Y0245916D02*
X0412531D01*
X0418129D02*
X0419528D01*
X0418129D01*
Y0247315D02*
Y0244516D01*
X0419528D01*
X0419995Y0244983D01*
Y0245449D01*
X0419528Y0245916D01*
X0419995Y0246382D01*
Y0246849D01*
X0419528Y0247315D01*
X0418129D01*
X0423727D02*
Y0244516D01*
X0425593D01*
Y024157D02*
Y0238771D01*
X0423727D02*
Y024157D01*
X042466Y0240637D01*
X0425593Y024157D01*
X0422794D02*
Y0238771D01*
X0421861Y0239703D01*
X0420928Y0238771D01*
Y024157D01*
X0419528D02*
X0419995Y0241103D01*
Y024017D01*
X0419528Y0239703D01*
X0418129D01*
Y0238771D02*
Y024157D01*
X0419528D01*
X0420928Y0244049D02*
X0422794D01*
X0424194Y0235824D02*
Y0233025D01*
X042606D01*
X0426993D02*
Y0235824D01*
X0428859Y0233025D01*
Y0235824D01*
X0429792Y0235358D02*
Y0233492D01*
X0430258Y0233025D01*
X0431191D01*
X0431658Y0233492D01*
X0432591Y0233025D02*
Y0234891D01*
X0433524Y0235824D01*
X0434457Y0234891D01*
Y0233025D01*
Y0234425D01*
X0432591D01*
X0431658Y0235358D02*
X0431191Y0235824D01*
X0430258D01*
X0429792Y0235358D01*
X0429792Y0238771D02*
X0430725D01*
X0431191Y0239237D01*
Y0241103D02*
X0430725Y024157D01*
X0429792D01*
X0429325Y0241103D01*
Y0239237D01*
X0429792Y0238771D01*
X0428392Y0238304D02*
X0426526D01*
X042606Y0235824D02*
X0424194D01*
Y0234425D02*
X0425127D01*
X0423261Y0232559D02*
X0421394D01*
X0419995Y0233025D02*
X0420462Y0233492D01*
X0419995Y0233025D02*
X0419062D01*
X0418595Y0233492D01*
Y0235358D01*
X0419062Y0235824D01*
X0419995D01*
X0420462Y0235358D01*
X0414863Y0234425D02*
X0412997D01*
X0412531Y024017D02*
X0414397D01*
X0414863Y0228679D02*
X0412997D01*
Y0222934D02*
X0414863D01*
Y0217188D02*
X0412997D01*
X0426526Y0244516D02*
Y0247315D01*
X0428392Y0244516D01*
Y0247315D01*
X0429325Y0246849D02*
Y0244983D01*
X0429792Y0244516D01*
X0430725D01*
X0431191Y0244983D01*
Y0246849D02*
X0430725Y0247315D01*
X0429792D01*
X0429325Y0246849D01*
X0432124Y0246382D02*
X0433057Y0247315D01*
X043399Y0246382D01*
Y0244516D01*
Y0245916D01*
X0432124D01*
Y0246382D02*
Y0244516D01*
X0430725Y0250261D02*
X0431191Y0250728D01*
Y0251194D01*
X0430725Y0251661D01*
X0429325D01*
X0430725D01*
X0431191Y0252127D01*
Y0252594D01*
X0430725Y0253061D01*
X0429325D01*
Y0250261D01*
X0430725D01*
X0428392Y0249795D02*
X0426526D01*
Y0256007D02*
Y0258806D01*
X0428392Y0256007D01*
Y0258806D01*
X0429792D02*
X0429325Y0258339D01*
Y0256473D01*
X0429792Y0256007D01*
X0430725D01*
X0431191Y0256473D01*
X0432124Y0256007D02*
Y0257873D01*
X0433057Y0258806D01*
X043399Y0257873D01*
Y0256007D01*
Y0257406D01*
X0432124D01*
X0431191Y0258339D02*
X0430725Y0258806D01*
X0429792D01*
X0429325Y0261752D02*
Y0263618D01*
X0430258Y0264551D01*
X0431191Y0263618D01*
Y0261752D01*
Y0263152D01*
X0429325D01*
X0428392Y0261286D02*
X0426526D01*
Y027231D02*
X0428392D01*
X0429325Y0272777D02*
X0430725D01*
X0431191Y0273243D01*
Y0275109D01*
X0430725Y0275576D01*
X0429325D01*
Y0272777D01*
Y0278522D02*
X0430725D01*
X0431191Y0278989D01*
Y0279455D01*
X0430725Y0279922D01*
X0429325D01*
X0430725D01*
X0431191Y0280388D01*
Y0280855D01*
X0430725Y0281321D01*
X0429325D01*
Y0278522D01*
X0428392Y0278056D02*
X0426526D01*
X0427496Y02918D02*
X0426996Y02923D01*
Y02933D01*
X0427496Y0293799D01*
X0428496D01*
X0428996Y02933D01*
Y02928D01*
X0426996D01*
X0427496Y02918D02*
X0428496D01*
X0429995D02*
Y02928D01*
X0430495Y02933D01*
X0430995Y0293799D01*
X0431495D01*
X0429995D02*
Y02918D01*
X0425593Y0274643D02*
X0424194D01*
X0423727Y0274176D01*
X0424194Y027371D01*
X0425127D01*
X0425593Y0273243D01*
X0425127Y0272777D01*
X0423727D01*
X0422794D02*
Y0274176D01*
X0422328Y0274643D01*
X0420928D01*
Y0272777D01*
X0419528D02*
X0419995Y0273243D01*
X0419528Y027371D01*
X0418596D01*
X0418129Y0274176D01*
X0418596Y0274643D01*
X0419995D01*
X0419528Y0272777D02*
X0418129D01*
X0416729D02*
X0415796D01*
X0416263D01*
Y0275576D01*
X0416729D01*
X0415796D01*
X0412064Y0274176D02*
X0410198D01*
Y0285201D02*
X0412064D01*
X0412531Y0263152D02*
X0414397D01*
X0423727Y0258806D02*
X0425593D01*
Y0247315D02*
X0423727D01*
Y0245916D02*
X042466D01*
X0408332Y0258806D02*
X0407399D01*
X0406933Y0258339D01*
X0408799D02*
X0408332Y0258806D01*
X0405066D02*
X04046Y0258339D01*
Y0256007D02*
X0405533D01*
X0405066D01*
Y0258806D01*
X0408799Y0258339D02*
Y0257873D01*
X0406933Y0256007D01*
X0408799D01*
X0408332Y0253061D02*
X0406933Y0251661D01*
X0408799D01*
X0408332Y0253061D02*
Y0250261D01*
X0405533D02*
X0405066D01*
Y0253061D01*
X04046Y0252594D01*
Y0250261D02*
X0405533D01*
X0405066Y0247315D02*
X04046Y0246849D01*
X0405066Y0247315D02*
Y0244516D01*
X0405533D01*
X04046D01*
X0407399D02*
X0408332D01*
X0408799Y0244983D01*
Y0245449D01*
X0408332Y0245916D01*
X0406933D01*
Y0244983D01*
X0407399Y0244516D01*
Y024157D02*
X0408332D01*
X0408799Y0241103D01*
Y0240637D01*
X0408332Y024017D01*
X0408799Y0239703D01*
Y0239237D01*
X0408332Y0238771D01*
X0407399D01*
X0406933Y0239237D01*
Y0239703D01*
X0407399Y024017D01*
X0406933Y0240637D01*
Y0241103D01*
X0407399Y024157D01*
Y024017D02*
X0408332D01*
X0405533Y0238771D02*
X0405066D01*
Y024157D01*
X04046Y0241103D01*
Y0238771D02*
X0405533D01*
X0405066Y0235824D02*
X04046Y0235358D01*
X0405066Y0235824D02*
X0406D01*
X0406466Y0235358D01*
Y0234891D01*
X04046Y0233025D01*
X0406466D01*
X0407866D02*
X0407399Y0233492D01*
Y0235358D01*
X0407866Y0235824D01*
X0408799D01*
X0409265Y0235358D01*
Y0233492D01*
X0408799Y0233025D01*
X0407866D01*
X03991Y023306D02*
Y0234926D01*
X0398634Y0235393D01*
X0397701D01*
X0397234Y0234926D01*
Y023446D01*
X0397701Y0233993D01*
X03991D01*
Y023306D02*
X0398634Y0232594D01*
X0397701D01*
X0397234Y023306D01*
X0395834Y0232594D02*
X0395368D01*
Y0235393D01*
X0394901Y0234926D01*
Y0232594D02*
X0395834D01*
Y0238339D02*
X0395368D01*
Y0241138D01*
X0394901Y0240672D01*
Y0238339D02*
X0395834D01*
X0397234D02*
Y0238806D01*
X03991Y0240672D01*
Y0241138D01*
X0397234D01*
X0397701Y0244085D02*
X0397234Y0244551D01*
Y0245484D02*
X0398167Y0245951D01*
X0398634D01*
X03991Y0245484D01*
Y0244551D01*
X0398634Y0244085D01*
X0397701D01*
X0395834D02*
X0395368D01*
Y0246884D01*
X0394901Y0246417D01*
X0397234Y0246884D02*
Y0245484D01*
Y0246884D02*
X03991D01*
X0398634Y024983D02*
X0397701D01*
X0397234Y0250296D01*
Y0252163D02*
X0397701Y0252629D01*
X0398634D01*
X03991Y0252163D01*
Y0251696D01*
X0398634Y025123D01*
X0398167D01*
X0398634D01*
X03991Y0250763D01*
Y0250296D01*
X0398634Y024983D01*
Y0255575D02*
Y0258375D01*
X0398167Y0257908D01*
Y0255575D02*
X03991D01*
X0398634D01*
X0407866Y0246849D02*
X0406933Y0245916D01*
X0407866Y0246849D02*
X0408799Y0247315D01*
X0393502Y026272D02*
X0391636D01*
X0387904Y026412D02*
Y0261321D01*
X0386038Y026412D01*
Y0261321D01*
X0385105D02*
X0383239D01*
Y026412D01*
X0385105D01*
X0384172Y026272D02*
X0383239D01*
X0382306Y0260854D02*
X0380439D01*
X0378573Y0261321D02*
Y026412D01*
X0379506D01*
X037764D01*
X0376241D02*
X0375308D01*
X0374841Y0263653D01*
Y0261787D01*
X0375308Y0261321D01*
X0376241D01*
X0376707Y0261787D01*
Y0263653D01*
X0376241Y026412D01*
X0373908D02*
Y0261321D01*
X0372042D02*
Y026412D01*
X0372975Y0263187D01*
X0373908Y026412D01*
X0373442Y0267066D02*
X0372509D01*
X0372975D01*
Y0269865D01*
X0373442D01*
X0372509D01*
X0374841Y0268466D02*
X0375308Y0268932D01*
X0376707D01*
X037764D02*
X037904D01*
X0379506Y0268466D01*
Y0267066D01*
X0380439D02*
X0381839D01*
X0382306Y0267533D01*
X0381839Y0267999D01*
X0380906D01*
X0380439Y0268466D01*
X0380906Y0268932D01*
X0382306D01*
X0383239Y02666D02*
X0385105D01*
X0385571Y0258375D02*
X0386504Y0257441D01*
Y0255575D01*
Y0256975D01*
X0384638D01*
Y0257441D02*
X0385571Y0258375D01*
X0384638Y0257441D02*
Y0255575D01*
X0384172Y0252629D02*
X0383705Y0252163D01*
Y0250296D01*
X0384172Y024983D01*
X0385105D01*
X0385571Y0250296D01*
X0386504Y024983D02*
X0387904D01*
X038837Y0250296D01*
Y0250763D01*
X0387904Y025123D01*
X0386504D01*
X0387904D01*
X038837Y0251696D01*
Y0252163D01*
X0387904Y0252629D01*
X0386504D01*
Y024983D01*
X0385571Y0252163D02*
X0385105Y0252629D01*
X0384172D01*
X0385105Y0246884D02*
X0383705D01*
Y0244085D01*
X0385105D01*
X0385571Y0244551D01*
Y0245018D01*
X0385105Y0245484D01*
X0383705D01*
X0385105D01*
X0385571Y0245951D01*
Y0246417D01*
X0385105Y0246884D01*
X0389303Y0245484D02*
X0391169D01*
X0392102Y025123D02*
X0393968D01*
X0394901Y0252163D02*
X0395368Y0252629D01*
Y024983D01*
X0395834D01*
X0394901D01*
X0395834Y0255575D02*
X0396767D01*
X0396301D01*
Y0258375D01*
X0395834Y0257908D01*
X0392102Y0256975D02*
X0390236D01*
X0394901Y0244085D02*
X0395834D01*
X0391169Y0239739D02*
X0389303D01*
X0385105D02*
X0383705D01*
X0385105D01*
X0385571Y0240205D01*
Y0240672D01*
X0385105Y0241138D01*
X0383705D01*
Y0238339D01*
X0385105D01*
X0385571Y0238806D01*
Y0239272D01*
X0385105Y0239739D01*
Y0235393D02*
X0384172D01*
X0383705Y0234926D01*
Y023306D01*
X0384172Y0232594D01*
X0385105D01*
X0385571Y023306D01*
Y0234926D02*
X0385105Y0235393D01*
X0389303Y0233993D02*
X0391169D01*
X0379506Y0245018D02*
X0378107D01*
X037904D02*
X0379973Y0244085D01*
X0380906Y0243618D02*
X0382772D01*
Y0240672D02*
X0382306Y0241138D01*
X0381372D01*
X0380906Y0240672D01*
Y0238806D01*
X0381372Y0238339D01*
X0382306D01*
X0382772Y0238806D01*
X0379973Y0238339D02*
Y0241138D01*
X0378107D02*
X0379973Y0238339D01*
X0378107D02*
Y0241138D01*
X0377174D02*
X0375308D01*
Y0238339D01*
X0377174D01*
X0376241Y0239739D02*
X0375308D01*
X0374375Y0237873D02*
X0372509D01*
X0371109Y0238339D02*
X0371576Y0238806D01*
Y0239272D01*
X0371109Y0239739D01*
X0369709D01*
X0371109D01*
X0371576Y0240205D01*
Y0240672D01*
X0371109Y0241138D01*
X0369709D01*
Y0238339D01*
X0371109D01*
X0372975Y0235393D02*
Y0232594D01*
X0374375D01*
X0374841Y023306D01*
Y0234926D01*
X0374375Y0235393D01*
X0372975D01*
X0375774D02*
X0376707D01*
X0376241D01*
Y0232594D01*
X0375774D01*
X0376707D01*
X0378107D02*
Y0235393D01*
X0379506D01*
X0379973Y0234926D01*
Y0233993D01*
X0379506Y0233527D01*
X0378107D01*
X037904D02*
X0379973Y0232594D01*
X0380906Y0232127D02*
X0382772D01*
X0378107Y0244085D02*
Y0246884D01*
X0379506D01*
X0379973Y0246417D01*
Y0245484D01*
X0379506Y0245018D01*
X0376707Y0246884D02*
X0376241D01*
Y0244085D01*
X0375774D01*
X0376707D01*
X0374375D02*
X0374841Y0244551D01*
Y0246417D01*
X0374375Y0246884D01*
X0372975D01*
Y0244085D01*
X0374375D01*
X0375774Y0246884D02*
X0376707D01*
X0377174Y0249363D02*
X0375308D01*
X0374375Y024983D02*
Y025123D01*
X0372509D01*
Y0251696D02*
X0373442Y0252629D01*
X0374375Y0251696D01*
Y024983D01*
X0372509D02*
Y0251696D01*
X0373908Y0255575D02*
X0375308D01*
X0375774Y0256042D01*
Y0257908D01*
X0375308Y0258375D01*
X0373908D01*
Y0255575D01*
X0376707D02*
X037764D01*
X0377174D02*
X0376707D01*
X0377174D02*
Y0258375D01*
X037764D01*
X0376707D01*
X037904D02*
X0380439D01*
X0380906Y0257908D01*
Y0256975D01*
X0380439Y0256508D01*
X037904D01*
Y0255575D02*
Y0258375D01*
X0379973Y0256508D02*
X0380906Y0255575D01*
X0381839Y0255109D02*
X0383705D01*
X0382772Y0252629D02*
Y024983D01*
X0380906Y0252629D01*
Y024983D01*
X0379973D02*
X0378107D01*
Y0252629D01*
X0379973D01*
X037904Y025123D02*
X0378107D01*
X037764Y0267066D02*
Y0268932D01*
X0376707Y0267533D02*
X0376241Y0267999D01*
X0375308D01*
X0374841Y0268466D01*
Y0267066D02*
X0376241D01*
X0376707Y0267533D01*
X0384172Y0284769D02*
X0385105Y0283836D01*
X0386038Y0284769D01*
Y0286635D01*
X0387437D02*
X038837D01*
X0388837Y0286169D01*
Y0285702D01*
X038837Y0285236D01*
X0387904D01*
X038837D01*
X0388837Y0284769D01*
Y0284302D01*
X038837Y0283836D01*
X0387437D01*
X0386971Y0284302D01*
Y0286169D02*
X0387437Y0286635D01*
X0384172D02*
Y0284769D01*
X0392569Y0285236D02*
X0394435D01*
X0393502Y0279957D02*
X0391636D01*
X0397234Y028089D02*
X0397701Y0281356D01*
X0398634D01*
X03991Y028089D01*
Y0280423D01*
X0398634Y0279957D01*
X0398167D01*
X0398634D01*
X03991Y027949D01*
Y0279024D01*
X0398634Y0278557D01*
X0397701D01*
X0397234Y0279024D01*
X0398167Y0283836D02*
X03991D01*
X0398634D01*
Y0286635D01*
X0398167Y0286169D01*
X04046Y0286134D02*
X0405066Y02866D01*
X0406D01*
X0406466Y0286134D01*
Y0285667D01*
X04046Y0283801D01*
X0406466D01*
X0391998Y03125D02*
X0391498D01*
Y0315499D01*
X0390998Y0314999D01*
X0388999Y0315499D02*
X0388499Y0314999D01*
X0387499D02*
X0387Y0315499D01*
X0386D01*
X03855Y0314999D01*
Y0313D01*
X0386Y03125D01*
X0387D01*
X0387499Y0313D01*
X0388499Y03125D02*
X0389499D01*
X0388999D01*
Y0315499D01*
X0390998Y03125D02*
X0391998D01*
X0373498Y0346D02*
X0371499D01*
X0373498Y0347999D01*
Y0348499D01*
X0372998Y0348999D01*
X0371999D01*
X0371499Y0348499D01*
X0370499D02*
Y0347499D01*
X037Y0347D01*
X03685D01*
Y0346D02*
Y0348999D01*
X037D01*
X0370499Y0348499D01*
Y0346D02*
X03695Y0347D01*
X0358498Y0357D02*
X0356499D01*
X0358498Y0358999D01*
Y0359499D01*
X0357998Y0359999D01*
X0356999D01*
X0356499Y0359499D01*
X0351199Y03709D02*
X0350699D01*
Y0373899D01*
X0350199Y0373399D01*
X0349199D02*
X0348699Y0373899D01*
X03477D01*
X03472Y0373399D01*
Y03714D01*
X03477Y03709D01*
X0348699D01*
X0349199Y03714D01*
Y0373399D01*
X03482Y03719D02*
X0349199Y03709D01*
X0350199D02*
X0351199D01*
X0354Y0359999D02*
X03535Y0359499D01*
Y03575D01*
X0354Y0357D01*
X0354999D01*
X0355499Y03575D01*
Y0359499D02*
X0354999Y0359999D01*
X0354D01*
X0347498Y0356499D02*
X0347998Y0355999D01*
Y0355499D01*
X0347498Y0354999D01*
X0346999D01*
X0347498D01*
X0347998Y03545D01*
Y0354D01*
X0347498Y03535D01*
X0346499D01*
X0345999Y0354D01*
X0344999D02*
X0344499Y03535D01*
X03435D01*
X0343Y0354D01*
Y0355999D01*
X03435Y0356499D01*
X0344499D01*
X0344999Y0355999D01*
X0345999D02*
X0346499Y0356499D01*
X0347498D01*
X0339899Y0356899D02*
X0339399Y0356399D01*
X0338399D02*
X0337899Y0356899D01*
X03369D01*
X03364Y0356399D01*
Y03544D01*
X03369Y03539D01*
X0337899D01*
X0338399Y03544D01*
X0339399Y03539D02*
X0340399D01*
X0339899D01*
Y0356899D01*
X0318199Y0350799D02*
Y03478D01*
X0320198D01*
X0320198Y0345799D02*
X0320698Y0345299D01*
Y0344799D01*
X0320198Y03443D01*
X0319698D01*
X0320198D01*
X0320698Y03438D01*
Y03433D01*
X0320198Y03428D01*
X0319198D01*
X0318698Y03433D01*
X0317199Y03428D02*
X0316699D01*
Y0345799D01*
X0316199Y0345299D01*
X0315199D02*
X03147Y0345799D01*
X03137D01*
X03132Y0345299D01*
Y03433D01*
X03137Y03428D01*
X03147D01*
X0315199Y03433D01*
X0316199Y03428D02*
X0317199D01*
X0318698Y0345299D02*
X0319198Y0345799D01*
X0320198D01*
X03162Y03478D02*
X0317199Y03488D01*
Y0350799D01*
X03152D02*
Y03488D01*
X03162Y03478D01*
X0311998Y0356899D02*
X0309999D01*
Y0355399D01*
X0310999Y0355899D01*
X0311498D01*
X0311998Y0355399D01*
Y03544D01*
X0311498Y03539D01*
X0310499D01*
X0309999Y03544D01*
X0308999Y03539D02*
X0308Y03549D01*
X03085D02*
X0307D01*
Y03539D02*
Y0356899D01*
X03085D01*
X0308999Y0356399D01*
Y0355399D01*
X03085Y03549D01*
X03081Y0359D02*
Y0361999D01*
X0309099D01*
X03071D01*
X0310099D02*
X0311598D01*
X0312098Y0361499D01*
Y03605D01*
X0311598Y036D01*
X0310099D01*
Y0359D02*
Y0361999D01*
X0313598D02*
X0313098Y0361499D01*
X0313598Y0361999D02*
Y0359D01*
X0314098D01*
X0313098D01*
X0297998Y0341999D02*
X0298498Y0341499D01*
Y0340999D01*
X0297998Y0340499D01*
X0298498Y034D01*
Y03395D01*
X0297998Y0339D01*
X0296999D01*
X0296499Y03395D01*
Y034D01*
X0296999Y0340499D01*
X0296499Y0340999D01*
Y0341499D01*
X0296999Y0341999D01*
X0297998D01*
Y0340499D02*
X0296999D01*
X0295499Y0341499D02*
X0295Y0341999D01*
X0294D01*
X02935Y0341499D01*
Y03395D01*
X0294Y0339D01*
X0295D01*
X0295499Y03395D01*
X0295Y0331499D02*
X0294D01*
X02935Y0330999D01*
Y0329D01*
X0294Y03285D01*
X0295D01*
X0295499Y0329D01*
X0296499D02*
Y03285D01*
Y0329D02*
X0298498Y0330999D01*
Y0331499D01*
X0296499D01*
X0295D02*
X0295499Y0330999D01*
X02973Y0317799D02*
X02968Y0317299D01*
Y03153D01*
X02973Y03148D01*
X02983D01*
X0298799Y03153D01*
X0299799D02*
X0300299Y03148D01*
X0301298D01*
X0301798Y03153D01*
Y03163D01*
X0301298Y0316799D01*
X0300799D01*
X0299799Y03163D01*
Y0317799D01*
X0301798D01*
X03021Y03231D02*
X0303099D01*
X0303599Y03236D01*
Y0326099D01*
X0305099D02*
X0304599Y0325599D01*
X0305099Y0326099D02*
Y03231D01*
X0305599D01*
X0304599D01*
X03021D02*
X03016Y03236D01*
Y0326099D01*
X0307Y0315999D02*
X03085D01*
X0308999Y0315499D01*
Y0314499D01*
X03085Y0314D01*
X0307D01*
Y0313D02*
Y0315999D01*
X0309999Y0315499D02*
X0310499Y0315999D01*
X0311498D01*
X0311998Y0315499D01*
Y0314999D01*
X0311498Y0314499D01*
X0311998Y0314D01*
Y03135D01*
X0311498Y0313D01*
X0310499D01*
X0309999Y03135D01*
Y0314D01*
X0310499Y0314499D01*
X0309999Y0314999D01*
Y0315499D01*
X0310499Y0314499D02*
X0311498D01*
X0308Y0314D02*
X0308999Y0313D01*
X0301298Y0308299D02*
X0299799Y03068D01*
X0301798D01*
X0301298Y0308299D02*
Y03053D01*
X03075Y0293999D02*
X0308999D01*
X0309499Y0293499D01*
Y0292499D01*
X0308999Y0292D01*
X03075D01*
Y0291D02*
Y0293999D01*
X03085Y0292D02*
X0309499Y0291D01*
X0311999D02*
Y0293999D01*
X0310499Y0292499D01*
X0312498D01*
X0311998Y0276999D02*
X0313997D01*
Y0276499D01*
X0311998Y02745D01*
Y0274D01*
X0310998D02*
X0308999D01*
X0310998Y0275999D01*
Y0276499D01*
X0310498Y0276999D01*
X0309499D01*
X0308999Y0276499D01*
X0307999D02*
X03075Y0276999D01*
X03065D01*
X0306Y0276499D01*
Y02745D01*
X03065Y0274D01*
X03075D01*
X0307999Y02745D01*
X0319Y02975D02*
Y0300499D01*
X0320499D01*
X0320999Y0299999D01*
Y0299D01*
X0320499Y02985D01*
X0319D01*
X032D02*
X0320999Y02975D01*
X0322499D02*
X0321999Y0298D01*
X0322499Y02975D02*
X0323499D01*
X0323998Y0298D01*
Y02985D01*
X0323499Y0299D01*
X0322999D01*
X0323499D01*
X0323998Y0299499D01*
Y0299999D01*
X0323499Y0300499D01*
X0322499D01*
X0321999Y0299999D01*
X03323Y0285899D02*
X0334299D01*
X03333D01*
Y02829D01*
X0335299D02*
Y0285899D01*
X0336799D01*
X0337298Y0285399D01*
Y02844D01*
X0336799Y02839D01*
X0335299D01*
X0338298Y02834D02*
X0338798Y02829D01*
X0339798D01*
X0340297Y02834D01*
Y02839D01*
X0339798Y02844D01*
X0339298D01*
X0339798D01*
X0340297Y0284899D01*
Y0285399D01*
X0339798Y0285899D01*
X0338798D01*
X0338298Y0285399D01*
X03405Y0276699D02*
Y02747D01*
X03415Y02737D01*
X0342499Y02747D01*
Y0276699D01*
X0343499D02*
Y02737D01*
X0344999D01*
X0345498Y02742D01*
Y02747D01*
X0344999Y02752D01*
X0343499D01*
X0344999D01*
X0345498Y0275699D01*
Y0276199D01*
X0344999Y0276699D01*
X0343499D01*
X0346498Y0275699D02*
X0347498Y0276699D01*
X0348497Y0275699D01*
Y02737D01*
Y02752D01*
X0346498D01*
Y0275699D02*
Y02737D01*
X0350497D02*
Y0276699D01*
X0351496D01*
X0349497D01*
X0337498Y0299D02*
X0337998Y02995D01*
Y03D01*
X0337498Y03005D01*
X0335998D01*
Y02995D01*
X0336498Y0299D01*
X0337498D01*
X0334499D02*
X0333999D01*
Y0301999D01*
X0333499Y0301499D01*
X0332499D02*
X0331999Y0301999D01*
X0331D01*
X03305Y0301499D01*
Y02995D01*
X0331Y0299D01*
X0331999D01*
X0332499Y02995D01*
X0333499Y0299D02*
X0334499D01*
X03455Y03095D02*
X0346Y0309D01*
X0347D01*
X0347499Y03095D01*
X0348499Y0309D02*
X0349499D01*
X0348999D01*
Y0311999D01*
X0348499Y0311499D01*
X0347499D02*
X0347Y0311999D01*
X0346D01*
X03455Y0311499D01*
Y03095D01*
X0346Y0314D02*
X0347D01*
X0347499Y03145D01*
Y0316499D02*
X0347Y0316999D01*
X0346D01*
X03455Y0316499D01*
Y03145D01*
X0346Y0314D01*
X0348499D02*
X0349499D01*
X0348999D01*
Y0316999D01*
X0348499Y0316499D01*
X0350998Y0316999D02*
Y0315499D01*
X0351998Y0315999D01*
X0352498D01*
X0352998Y0315499D01*
Y03145D01*
X0352498Y0314D01*
X0351498D01*
X0350998Y03145D01*
Y0316999D02*
X0352998D01*
X0352498Y0311999D02*
X0350998Y03105D01*
X0352998D01*
X0352498Y0311999D02*
Y0309D01*
X0337998Y0301999D02*
X0336998Y0301499D01*
X0335998Y03005D01*
X0298799Y0317299D02*
X02983Y0317799D01*
X02973D01*
Y0308299D02*
X02968Y0307799D01*
Y03058D01*
X02973Y03053D01*
X02983D01*
X0298799Y03058D01*
Y0307799D02*
X02983Y0308299D01*
X02973D01*
X0278998Y03255D02*
X0279498Y0326D01*
Y03265D01*
X0278998Y0326999D01*
X0277499D01*
Y0326D01*
X0277999Y03255D01*
X0278998D01*
X0276499D02*
X02755Y03265D01*
X0275999D02*
X02745D01*
Y03255D02*
Y0328499D01*
X0275999D01*
X0276499Y0327999D01*
Y0326999D01*
X0275999Y03265D01*
X0277499Y0326999D02*
X0278499Y0327999D01*
X0279498Y0328499D01*
X0274799Y03443D02*
Y03448D01*
X0276798Y0346799D01*
Y0347299D01*
X0274799D01*
X02733D02*
X0273799Y0346799D01*
Y0345799D01*
X02733Y03453D01*
X02718D01*
Y03443D02*
Y0347299D01*
X02733D01*
X02728Y03453D02*
X0273799Y03443D01*
X0273998Y03545D02*
X0274498Y0355D01*
Y03555D01*
X0273998Y0355999D01*
X0272499D01*
Y0355D01*
X0272999Y03545D01*
X0273998D01*
X0272499Y0355999D02*
X0273499Y0356999D01*
X0274498Y0357499D01*
X0258886Y03703D02*
X0259386Y03698D01*
X0259499Y0356499D02*
X0258999Y0355999D01*
Y03535D02*
X0259999D01*
X0259499D01*
Y0356499D01*
X02695Y0356999D02*
Y0355D01*
X027Y03545D01*
X0271D01*
X0271499Y0355D01*
Y0356999D02*
X0271Y0357499D01*
X027D01*
X02695Y0356999D01*
X0258886Y03703D02*
Y0371799D01*
X0258387D01*
X0259386D01*
X0258886D01*
Y0372299D01*
X0272499Y03965D02*
X0271999D01*
Y0399499D01*
X0271499Y0398999D01*
X0270499D02*
X027Y0399499D01*
X0269D01*
X02685Y0398999D01*
Y0397D01*
X0269Y03965D01*
X027D01*
X0270499Y0397D01*
X0271499Y03965D02*
X0272499D01*
X0274498D02*
X0273998Y0397D01*
Y0398999D01*
X0274498Y0399499D01*
X0275498D01*
X0275998Y0398999D01*
Y0397D01*
X0275498Y03965D01*
X0274498D01*
X02905Y03975D02*
X0291Y0397D01*
X0292D01*
X0292499Y03975D01*
X0293499D02*
X0293999Y0397D01*
X0294999D01*
X0295498Y03975D01*
Y0399499D01*
X0294999Y0399999D01*
X0293999D01*
X0293499Y0399499D01*
Y0398999D01*
X0293999Y0398499D01*
X0295498D01*
X0292499Y0399499D02*
X0292Y0399999D01*
X0291D01*
X02905Y0399499D01*
Y03975D01*
X0308Y04075D02*
X0309999D01*
X03225Y04085D02*
X0324D01*
X0324499Y0409D01*
Y0410999D01*
X0324Y0411499D01*
X03225D01*
Y04085D01*
X0325499D02*
X0327498Y0410499D01*
Y0410999D01*
X0326998Y0411499D01*
X0325999D01*
X0325499Y0410999D01*
Y04085D02*
X0327498D01*
X03845Y0392799D02*
Y03898D01*
X0386499D01*
X0387499D02*
X0388499D01*
X0387999D01*
Y0392799D01*
X0387499Y0392299D01*
X04513Y0350199D02*
X0453299D01*
X04523D01*
Y03472D01*
X0454299D02*
Y0350199D01*
X0455798D01*
X0456298Y0349699D01*
Y0348699D01*
X0455798Y03482D01*
X0454299D01*
X0457298Y03472D02*
X0459297Y0349199D01*
Y0349699D01*
X0458798Y0350199D01*
X0457798D01*
X0457298Y0349699D01*
Y03472D02*
X0459297D01*
X0460297Y03477D02*
X0460797Y03472D01*
X0461797D01*
X0462296Y03477D01*
Y0349699D01*
X0461797Y0350199D01*
X0460797D01*
X0460297Y0349699D01*
Y0349199D01*
X0460797Y0348699D01*
X0462296D01*
X0468291Y03621D02*
X0469291D01*
X0469791Y03626D01*
Y0363599D01*
X0469291Y0364099D01*
X0468291D01*
X0467792Y0363599D01*
Y03626D01*
X0468291Y03621D01*
X0470791D02*
Y0364099D01*
X047229D01*
X047279Y0363599D01*
Y03621D01*
X047429D02*
X047379Y03626D01*
Y0363599D01*
X047429Y0364099D01*
X0475289D01*
X0475789Y0363599D01*
Y03631D01*
X047379D01*
X047429Y03621D02*
X0475289D01*
X0476789D02*
X0478288D01*
X0478788Y03626D01*
X0478288Y03631D01*
X0477288D01*
X0476789Y0363599D01*
X0477288Y0364099D01*
X0478788D01*
X0475789Y0367619D02*
X047379D01*
X0475789Y0369618D01*
X047379D01*
X047229D02*
X047179D01*
X047129D01*
X047229D01*
X047179D02*
Y0368119D01*
X047229Y0367619D01*
X047179Y0369618D02*
Y0370118D01*
X0469791Y0369618D02*
X0469291D01*
X0468791Y0369118D01*
X0468291Y0368618D01*
Y0367619D01*
Y0369618D01*
Y0373138D02*
X0467792Y0373638D01*
X0468291Y0374137D01*
X0469791D01*
Y0374637D02*
Y0373138D01*
X0468291D01*
Y0375137D02*
X0469291D01*
X0469791Y0374637D01*
X0470791Y0375137D02*
Y0373138D01*
Y0374137D01*
X047129Y0374637D01*
X047179Y0375137D01*
X047229D01*
X047429D02*
X0475289D01*
X0475789Y0374637D01*
Y0373138D01*
X047429D01*
X047379Y0373638D01*
X047429Y0374137D01*
X0475789D01*
X0477288D02*
X0476789Y0374637D01*
X0477288Y0375137D01*
X0478788D01*
X0478288Y0374137D02*
X0477288D01*
X0478288D02*
X0478788Y0373638D01*
X0478288Y0373138D01*
X0476789D01*
X0468791Y0379656D02*
X0468291D01*
Y0380156D01*
X0468791D01*
Y0379656D01*
Y0381156D02*
X0468291D01*
Y0381656D01*
X0468791D01*
Y0381156D01*
X0483287Y0394919D02*
X0482787Y0395419D01*
Y0396418D01*
X0483287Y0396918D01*
X0484786D01*
Y0397918D02*
Y0394919D01*
X0483287D01*
X0495783Y0401437D02*
X0495283Y0401937D01*
Y0402937D01*
X0495783Y0403437D01*
X0496782D01*
X0497282Y0402937D01*
Y0402437D01*
X0495283D01*
X0493284Y0403437D02*
Y0400938D01*
X0492784Y0400438D01*
X0492284D01*
X0490784Y0401437D02*
X0491284Y0401937D01*
Y0402937D01*
X0490784Y0403437D01*
X0489785D01*
X0489285Y0402937D01*
Y0401937D01*
X0489785Y0401437D01*
X0490784D01*
X0486286D02*
Y0402437D01*
X0486786Y0402937D01*
X0487286Y0403437D01*
X0487785D01*
X0486286D02*
Y0401437D01*
X0484786Y0402437D02*
X0483287D01*
Y0401437D02*
Y0404436D01*
X0484786D01*
X0485286Y0403936D01*
Y0402937D01*
X0484786Y0402437D01*
X0483287Y0407956D02*
X0482287D01*
X0481787Y0408456D01*
Y0409455D01*
X0482287Y0409955D01*
X0483287D01*
X0483787Y0409455D01*
Y0408956D01*
X0481787D01*
X0480288Y0409955D02*
X0479788D01*
X0479288D01*
X0480288D01*
X0479788D02*
Y0408456D01*
X0480288Y0407956D01*
X0478288D02*
X0476789D01*
X0476289Y0408456D01*
X0476789Y0408956D01*
X0478288D01*
Y0409455D02*
Y0407956D01*
Y0409455D02*
X0477788Y0409955D01*
X0476789D01*
X0474789D02*
X047429D01*
X047379D01*
X0474789D01*
X047429D02*
Y0408456D01*
X0474789Y0407956D01*
X047229D02*
X0471291D01*
X0470791Y0408456D01*
Y0409955D02*
X0471291Y0409455D01*
X047229D01*
X047279Y0408956D01*
Y0408456D01*
X047229Y0407956D01*
X047279Y0410455D02*
X047229Y0410955D01*
X0471291D01*
X0470791Y0410455D01*
Y0409955D01*
X047429D02*
Y0410455D01*
X0479788D02*
Y0409955D01*
X0478788Y0403437D02*
X0479288Y0402937D01*
Y0401437D01*
X0477289D02*
Y0403437D01*
X0478788D01*
X0476289D02*
X0474789D01*
X047429Y0402937D01*
Y0401937D01*
X0474789Y0401437D01*
X0476289D01*
Y0400938D02*
Y0403437D01*
Y0400938D02*
X0475789Y0400438D01*
X0475289D01*
X047279Y0401437D02*
X047229D01*
Y0403437D01*
X0471791D01*
X0470791D02*
X0469291D01*
X0468791Y0402937D01*
X0469291Y0402437D01*
X0470291D01*
X0470791Y0401937D01*
X0470291Y0401437D01*
X0468791D01*
X0471791D02*
X047279D01*
X047379Y0397918D02*
Y0394919D01*
Y0396418D01*
X0475789D01*
Y0397918D01*
Y0394919D01*
X0477289D02*
X0476789Y0395419D01*
X0477289Y0395918D01*
X0478788D01*
Y0396418D02*
Y0394919D01*
X0477289D01*
Y0396918D02*
X0478288D01*
X0478788Y0396418D01*
X0479788Y0396918D02*
X0481287D01*
X0481787Y0396418D01*
Y0394919D01*
X0479788D02*
Y0396918D01*
X0469791D02*
X0468292D01*
X0467792Y0396418D01*
Y0395419D01*
X0468292Y0394919D01*
X0469791D01*
X0487785Y0408456D02*
X0488285Y0407956D01*
X0489285D01*
X0489785Y0408456D01*
Y0410955D01*
X0487785D02*
Y0408456D01*
X0490784Y0407956D02*
Y0409955D01*
X0492284D01*
X0492784Y0409455D01*
Y0407956D01*
X0493783D02*
X0494783D01*
X0494283D01*
Y0409955D01*
X0493783D01*
X0496282D02*
X0497282Y0407956D01*
X0498282Y0409955D01*
X0499282Y0409455D02*
X0499781Y0409955D01*
X0500781D01*
X0501281Y0409455D01*
Y0408956D01*
X0499282D01*
Y0408456D02*
Y0409455D01*
Y0408456D02*
X0499781Y0407956D01*
X0500781D01*
X0502281D02*
Y0408956D01*
X050278Y0409455D01*
X050328Y0409955D01*
X050378D01*
X0502281D02*
Y0407956D01*
X050528D02*
X0506779D01*
X0507279Y0408456D01*
X0506779Y0408956D01*
X050578D01*
X050528Y0409455D01*
X050578Y0409955D01*
X0507279D01*
X0508279D02*
X0508778D01*
Y0407956D01*
X0509278D01*
X0508279D01*
X0501781Y0403936D02*
Y0403437D01*
X0501281D01*
X0502281D01*
X0501781D01*
Y0401937D01*
X0502281Y0401437D01*
X0500281D02*
X0498782D01*
X0498282Y0401937D01*
Y0402937D01*
X0498782Y0403437D01*
X0500281D01*
X0496782Y0401437D02*
X0495783D01*
X0511278Y0408456D02*
X0511777Y0407956D01*
X0511278Y0408456D02*
Y0409955D01*
X0510778D01*
X0511777D01*
X0511278D01*
Y0410455D01*
X0513277Y0409955D02*
Y0408456D01*
X0513777Y0407956D01*
X0515276D01*
Y0407456D01*
X0514777Y0406956D01*
X0514277D01*
X0515276Y0407956D02*
Y0409955D01*
X0508778Y0422679D02*
X0507279D01*
X0506779Y0423179D01*
Y0424179D01*
X0507279Y0424678D01*
X0508778D01*
Y0425678D02*
Y0422679D01*
X050378D02*
Y0423679D01*
X050428Y0424179D01*
X050478Y0424678D01*
X050528D01*
X050378D02*
Y0422679D01*
X050278D02*
X0501281D01*
X0500781Y0423179D01*
X0501281Y0423679D01*
X050278D01*
Y0424179D02*
Y0422679D01*
Y0424179D02*
X0502281Y0424678D01*
X0501281D01*
X0499781Y0424179D02*
X0499282Y0424678D01*
X0498282D01*
X0497782Y0424179D01*
Y0423179D01*
X0498282Y0422679D01*
X0499282D01*
X0499781Y0423179D01*
Y0424179D01*
X0496282D02*
X0494783D01*
X0496282D01*
X0496782Y0424678D01*
Y0425178D01*
X0496282Y0425678D01*
X0494783D01*
Y0422679D01*
X0496282D01*
X0496782Y0423179D01*
Y0423679D01*
X0496282Y0424179D01*
X0490284Y0424678D02*
X0489785D01*
X0489285D01*
X0490284D01*
X0489785D02*
Y0423179D01*
X0490284Y0422679D01*
X0487785D02*
X0488285Y0423179D01*
X0487785Y0423679D01*
X0486786D01*
X0486286Y0424179D01*
X0486786Y0424678D01*
X0488285D01*
X0489785D02*
Y0425178D01*
X0487785Y0422679D02*
X0486286D01*
X0484786D02*
X0483787D01*
X0483287Y0423179D01*
Y0424179D01*
X0483787Y0424678D01*
X0484786D01*
X0485286Y0424179D01*
Y0423679D01*
X0483287D01*
X0482287Y0425678D02*
X0481287D01*
Y0422679D01*
X0480288Y0425678D02*
X0482287D01*
X0475789Y0424678D02*
X0475289D01*
X0474789Y0424179D01*
X047429Y0423679D01*
Y0422679D01*
Y0424678D01*
X047279D02*
X047329Y0424179D01*
Y0423679D01*
X0471291D01*
Y0423179D02*
Y0424179D01*
X0471791Y0424678D01*
X047279D01*
Y0422679D02*
X0471791D01*
X0471291Y0423179D01*
X0469291Y0422679D02*
X0470291Y0424678D01*
X0468292D02*
X0469291Y0422679D01*
X0466792D02*
X0466292D01*
Y0424678D01*
X0465792D01*
X0464293D02*
X0463793D01*
X0463293Y0424179D01*
X0462793Y0423679D01*
Y0422679D01*
Y0424678D01*
X0461794Y0425178D02*
X0461294Y0425678D01*
X0459794D01*
Y0422679D01*
X0461294D01*
X0461794Y0423179D01*
Y0425178D01*
X0460794Y0420159D02*
X0461294Y0419659D01*
Y041766D01*
X0460794Y041716D01*
X0459794D01*
X0459295Y041766D01*
Y0419659D01*
X0459794Y0420159D01*
X0460794D01*
X0454796D02*
X0454296Y0419659D01*
X0454796Y0420159D02*
Y041716D01*
X0455296D01*
X0454296D01*
X0456795D02*
Y041766D01*
X0457295D01*
Y041716D01*
X0456795D01*
X0455296Y0424678D02*
X0454796D01*
X0454296Y0424179D01*
X0453796Y0423679D01*
Y0422679D01*
Y0424678D01*
X0452797Y0424179D02*
X0452297Y0424678D01*
X0451297D01*
X0450797Y0424179D01*
Y0423179D01*
X0451297Y0422679D01*
X0452297D01*
X0452797Y0423179D01*
Y0424179D01*
X0449298Y0424678D02*
X0448798D01*
X0448298D01*
X0449298D01*
X0448798D02*
Y0423179D01*
X0449298Y0422679D01*
X0446799D02*
X0447298Y0423179D01*
Y0424179D01*
X0446799Y0424678D01*
X0445799D01*
X0445299Y0424179D01*
Y0423179D01*
X0445799Y0422679D01*
X0446799D01*
X0444299D02*
Y0425678D01*
X04433Y0424678D01*
X04423Y0425678D01*
Y0422679D01*
Y0420159D02*
X0443799D01*
X0444299Y0419659D01*
Y041866D01*
X0443799Y041816D01*
X04423D01*
Y041716D02*
Y0420159D01*
X04433Y041816D02*
X0444299Y041716D01*
X0445299D02*
X0447298D01*
X0445299D02*
Y0420159D01*
X0447298D01*
X0448298D02*
Y041816D01*
X0449298Y041716D01*
X0450297Y041816D01*
Y0420159D01*
X0446299Y041866D02*
X0445299D01*
X0448798Y0424678D02*
Y0425178D01*
X0448298Y0408456D02*
Y0407956D01*
X0447798D01*
Y0408456D01*
X0448298D01*
X0445799D02*
X0446299Y0407956D01*
X0445799Y0408456D02*
Y0409955D01*
X0445299D01*
X0446299D01*
X0445799D01*
Y0410455D01*
X0444299D02*
X0443799Y0410955D01*
X04428D01*
X04423Y0410455D01*
Y0409955D01*
X04428Y0409455D01*
X0443799D01*
X0444299Y0408956D01*
Y0408456D01*
X0443799Y0407956D01*
X04428D01*
X04423Y0408456D01*
X04428Y0404436D02*
X04423Y0403936D01*
Y0403437D01*
X04428Y0402937D01*
X0443799D01*
X0444299Y0402437D01*
Y0401937D01*
X0443799Y0401437D01*
X04428D01*
X04423Y0401937D01*
X0445299D02*
Y0402937D01*
X0445799Y0403437D01*
X0446799D01*
X0447298Y0402937D01*
Y0402437D01*
X0445299D01*
Y0401937D02*
X0445799Y0401437D01*
X0446799D01*
X0448298D02*
Y0403437D01*
X0449798D01*
X0450297Y0402937D01*
Y0401437D01*
X0451297D02*
X0452297D01*
X0451797D01*
Y0403437D01*
X0451297D01*
X0453796Y0402937D02*
Y0401937D01*
X0454296Y0401437D01*
X0455296D01*
X0455796Y0401937D01*
Y0402937D01*
X0455296Y0403437D01*
X0454296D01*
X0453796Y0402937D01*
Y0407956D02*
X0454796D01*
X0455296Y0408456D01*
X0456295Y0407956D02*
X0457295D01*
X0456795D01*
Y0410955D01*
X0456295D01*
X0454796D02*
X0453796D01*
X0453296Y0410455D01*
Y0408456D01*
X0453796Y0407956D01*
X0443799Y0404436D02*
X04428D01*
X0443799D02*
X0444299Y0403936D01*
X0443799Y0397918D02*
X0444299Y0397418D01*
Y0396418D01*
X0443799Y0395918D01*
X04423D01*
Y0394919D02*
Y0397918D01*
X0443799D01*
X0445299Y0396918D02*
Y0394919D01*
Y0395918D01*
X0445799Y0396418D01*
X0446299Y0396918D01*
X0446799D01*
X0448298Y0396418D02*
Y0395419D01*
X0448798Y0394919D01*
X0449798D01*
X0450297Y0395419D01*
Y0396418D01*
X0449798Y0396918D01*
X0448798D01*
X0448298Y0396418D01*
X0451297D02*
X0451797Y0396918D01*
X0453296D01*
X0452797Y0395918D02*
X0451797D01*
X0451297Y0396418D01*
Y0394919D02*
X0452797D01*
X0453296Y0395419D01*
X0452797Y0395918D01*
X0453296Y0391399D02*
X0451297Y03894D01*
X0449798D02*
X0448798D01*
X0448298Y03899D01*
Y0391899D02*
X0448798Y0392399D01*
X0449798D01*
X0450297Y0391899D01*
Y0391399D01*
X0449798Y0390899D01*
X0449298D01*
X0449798D01*
X0450297Y03904D01*
Y03899D01*
X0449798Y03894D01*
X0445299D02*
X0447298Y0391399D01*
X0444299Y0390899D02*
X04423D01*
X0443799Y0392399D01*
Y03894D01*
X0443299Y0382655D02*
X04418D01*
Y0379656D01*
X0443299D01*
X0443799Y0380156D01*
Y0382155D01*
X0443299Y0382655D01*
X0444799Y0381156D02*
X0445299Y0381656D01*
X0446299D01*
X0446798Y0381156D01*
Y0380656D01*
X0444799D01*
Y0380156D02*
Y0381156D01*
Y0380156D02*
X0445299Y0379656D01*
X0446299D01*
X0447798D02*
X0449298D01*
X0449797Y0380156D01*
X0449298Y0380656D01*
X0448298D01*
X0447798Y0381156D01*
X0448298Y0381656D01*
X0449797D01*
X0450797D02*
X0451297D01*
Y0379656D01*
X0451797D01*
X0450797D01*
X0453296Y0380156D02*
X0453796Y0379656D01*
X0455296D01*
Y0379156D02*
Y0381656D01*
X0453796D01*
X0453296Y0381156D01*
Y0380156D01*
X0452796Y0376137D02*
Y0373138D01*
Y0374637D01*
X0453296Y0375137D01*
X0454296D01*
X0454796Y0374637D01*
Y0373138D01*
X0456295D02*
X0455795Y0373638D01*
Y0374637D01*
X0456295Y0375137D01*
X0457295D01*
X0457795Y0374637D01*
Y0374137D01*
X0455795D01*
X0456295Y0373138D02*
X0457295D01*
X0458794Y0373638D02*
X0459294Y0373138D01*
X0459794Y0373638D01*
X0460294Y0373138D01*
X0460794Y0373638D01*
Y0375137D01*
X0458794D02*
Y0373638D01*
X0457295Y0370618D02*
X0456795D01*
X0457295D02*
Y0367619D01*
X0457795D01*
X0456795D01*
X0455296D02*
X0454296D01*
X0453796Y0368119D01*
Y0369118D01*
X0454296Y0369618D01*
X0455296D01*
X0455795Y0369118D01*
Y0368618D01*
X0453796D01*
X0452796Y0369118D02*
Y0367619D01*
Y0369118D02*
X0452297Y0369618D01*
X0451297D01*
X0450797Y0369118D01*
Y0367619D01*
Y0370618D01*
Y0373638D02*
X0451297Y0373138D01*
X0450797Y0373638D02*
Y0375137D01*
X0450297D01*
X0451297D01*
X0450797D01*
Y0375637D01*
X0448298D02*
Y0375137D01*
X0447798D01*
X0448798D01*
X0448298D01*
Y0373638D01*
X0448798Y0373138D01*
X0446798D02*
X0445299D01*
X0444799Y0373638D01*
X0445299Y0374137D01*
X0446798D01*
Y0374637D02*
Y0373138D01*
Y0374637D02*
X0446299Y0375137D01*
X0445299D01*
X04428D02*
X0443799Y0376137D01*
Y0373138D01*
X04418D02*
Y0376137D01*
X04428Y0375137D01*
X0443299Y0370618D02*
X0443799Y0370118D01*
Y0369118D01*
X0443299Y0368618D01*
X04418D01*
Y0367619D02*
Y0370618D01*
X0443299D01*
X04428Y0368618D02*
X0443799Y0367619D01*
X0445299D02*
X0444799Y0368119D01*
X0445299Y0368618D01*
X0446798D01*
Y0369118D02*
Y0367619D01*
X0445299D01*
Y0369618D02*
X0446299D01*
X0446798Y0369118D01*
X0447798D02*
Y0368119D01*
X0448298Y0367619D01*
X0449797D01*
Y0369618D02*
X0448298D01*
X0447798Y0369118D01*
Y0364099D02*
X0449298D01*
X0449797Y0363599D01*
Y03621D01*
X0450797D02*
Y0364099D01*
X0452297D01*
X0452796Y0363599D01*
Y03621D01*
X0453796Y03626D02*
Y0363599D01*
X0454296Y0364099D01*
X0455296D01*
X0455795Y0363599D01*
Y03631D01*
X0453796D01*
Y03626D02*
X0454296Y03621D01*
X0455296D01*
X0456795D02*
X0457795D01*
X0457295D01*
Y0365099D01*
X0456795D01*
X0459294D02*
X0459794D01*
Y03621D01*
X0460294D01*
X0459294D01*
X0465292D02*
X0464793Y03626D01*
X0465292Y03621D02*
X0465792D01*
X0466292Y03626D01*
Y0365099D01*
X0465792D01*
X0466792D01*
X0466792Y0367619D02*
X0465792D01*
X0465292Y0368119D01*
Y0369118D01*
X0465792Y0369618D01*
X0466792D01*
X0467292Y0369118D01*
Y0368618D01*
X0465292D01*
X0464293Y0367619D02*
Y0370618D01*
X0463293Y0369618D01*
X0462293Y0370618D01*
Y0367619D01*
X0464793Y0374137D02*
X0465792Y0373138D01*
X0466792Y0374137D01*
Y0376137D01*
X0464793D02*
Y0374137D01*
X0466292Y0378657D02*
X0466792D01*
X0467292Y0379156D01*
Y0379656D01*
Y0381656D01*
X0465292D02*
Y0380156D01*
X0465792Y0379656D01*
X0467292D01*
X0463793D02*
X0464293Y0380156D01*
Y0380656D01*
X0463793Y0381156D01*
X0462293D01*
X0463793D01*
X0464293Y0381656D01*
Y0382155D01*
X0463793Y0382655D01*
X0462293D01*
Y0379656D01*
X0463793D01*
X0458295D02*
Y0381156D01*
X0457795Y0381656D01*
X0456295D01*
Y0379656D01*
X0455296Y0379156D02*
X0454796Y0378657D01*
X0454296D01*
X0454296Y03894D02*
X0455296D01*
X0454796D01*
Y0392399D01*
X0454296Y0391899D01*
X0456795Y0390899D02*
Y03899D01*
X0457295Y03894D01*
X0458295D01*
X0458795Y03899D01*
Y03904D01*
X0458295Y0390899D01*
X0456795D01*
X0457795Y0391899D01*
X0458795Y0392399D01*
Y0394919D02*
Y0396418D01*
X0458295Y0396918D01*
X0457295D01*
X0456795Y0396418D01*
Y0394919D01*
Y0397918D01*
X0454796Y0397418D02*
Y0396918D01*
X0454296D01*
X0455296D01*
X0454796D01*
Y0395419D01*
X0455296Y0394919D01*
X0460294D02*
X0459794Y0395419D01*
Y0396418D01*
X0460294Y0396918D01*
X0461294D01*
X0461794Y0396418D01*
Y0395918D01*
X0459794D01*
X0460294Y0394919D02*
X0461294D01*
X0463293Y0395419D02*
X0463793Y0394919D01*
X0463293Y0395419D02*
Y0396918D01*
X0462793D01*
X0463793D01*
X0463293D01*
Y0397418D01*
X0465293Y0396918D02*
X0465792D01*
Y0394919D01*
X0466292D01*
X0465293D01*
X0464293Y0401437D02*
X0464793Y0401937D01*
Y0403936D01*
X0464293Y0404436D01*
X0462793D01*
Y0401437D01*
X0464293D01*
X0466292D02*
X0465792Y0401937D01*
Y0402937D01*
X0466292Y0403437D01*
X0467292D01*
X0467792Y0402937D01*
Y0402437D01*
X0465792D01*
X0466292Y0401437D02*
X0467292D01*
X0466792Y0407956D02*
X0465293D01*
X0464793Y0408456D01*
Y0409455D01*
X0465293Y0409955D01*
X0466792D01*
Y0410955D02*
Y0407956D01*
X0463793D02*
Y0409955D01*
X0461794D02*
Y0408456D01*
X0462293Y0407956D01*
X0463793D01*
X0460294D02*
X0460794Y0408456D01*
Y0409455D01*
X0460294Y0409955D01*
X0459295D01*
X0458795Y0409455D01*
Y0408456D01*
X0459295Y0407956D01*
X0460294D01*
X0458295Y0403437D02*
X0457795D01*
X0457295Y0402937D01*
X0456795Y0402437D01*
Y0401437D01*
Y0403437D01*
X0455296Y0410455D02*
X0454796Y0410955D01*
X0465792Y0422679D02*
X0466792D01*
X0447798Y0364099D02*
Y03621D01*
X0446299D02*
X0446798Y03626D01*
Y0363599D01*
X0446299Y0364099D01*
X0445299D01*
X0444799Y0363599D01*
Y03626D01*
X0445299Y03621D01*
X0446299D01*
X0443299D02*
X0443799Y03626D01*
Y0364599D01*
X0443299Y0365099D01*
X04418D01*
Y03621D01*
X0443299D01*
X0332398Y0257199D02*
X0331398D01*
X0330898Y0256699D01*
X0332898D02*
X0332398Y0257199D01*
X0332898Y0256699D02*
Y0256199D01*
X0330898Y02542D01*
X0332898D01*
X0329399D02*
X0328899D01*
Y0257199D01*
X0328399Y0256699D01*
Y02542D02*
X0329399D01*
X0341Y0243999D02*
X0342999D01*
X0342D01*
Y0241D01*
X0339988Y0227499D02*
X0340488Y0226999D01*
Y02265D01*
X0338489D01*
Y0226D02*
Y0226999D01*
X0338988Y0227499D01*
X0339988D01*
Y02255D02*
X0338988D01*
X0338489Y0226D01*
X0337489Y02255D02*
Y0226999D01*
X0336989Y0227499D01*
X033549D01*
Y02255D01*
X033449D02*
Y0226999D01*
X033399Y0227499D01*
X033249D01*
Y02255D01*
X0330991D02*
X0331491Y0226D01*
Y0226999D01*
X0330991Y0227499D01*
X0329991D01*
X0329491Y0226999D01*
Y0226D01*
X0329991Y02255D01*
X0330991D01*
X0328492D02*
X0326992D01*
X0326492Y0226D01*
Y0226999D01*
X0326992Y0227499D01*
X0328492D01*
X03486Y02309D02*
X03496Y0231899D01*
X0350599Y0232399D01*
X0350497Y0241D02*
X0349997Y02415D01*
Y0243499D01*
X0350497Y0243999D01*
X0351497D01*
X0351996Y0243499D01*
Y02415D01*
X0351497Y0241D01*
X0350497D01*
X0348498D02*
X0347498D01*
X0346998Y02415D01*
X0345498Y0242D02*
X0343999D01*
Y0241D02*
Y0243999D01*
X0345498D01*
X0345998Y0243499D01*
Y0242499D01*
X0345498Y0242D01*
X0346998Y0243499D02*
X0347498Y0243999D01*
X0348498D01*
X0348997Y0243499D01*
Y0242999D01*
X0348498Y0242499D01*
X0347998D01*
X0348498D01*
X0348997Y0242D01*
Y02415D01*
X0348498Y0241D01*
X03269Y02547D02*
X03264Y02542D01*
X03259D01*
X03254Y02547D01*
X03269D02*
Y0257199D01*
X03264D01*
X0327399D01*
X0317998Y0256999D02*
X0316999Y0256499D01*
X0315999Y02555D01*
Y02545D01*
X0316499Y0254D01*
X0317498D01*
X0317998Y02545D01*
Y0255D01*
X0317498Y02555D01*
X0315999D01*
X0314999Y0256999D02*
X0314D01*
X0314499D01*
Y02545D01*
X0314Y0254D01*
X03135D01*
X0313Y02545D01*
X0301398Y0232399D02*
X0299898Y02309D01*
X0301898D01*
X0301398Y0232399D02*
Y02294D01*
X0303Y0228499D02*
Y02265D01*
X0304Y02255D01*
X0304999Y02265D01*
Y0228499D01*
X0305999D02*
X0306999Y0227499D01*
X0307998Y0228499D01*
Y02255D01*
X0308998Y0226D02*
X0309498Y02255D01*
X0310498D01*
X0310997Y0226D01*
Y0227999D01*
X0310498Y0228499D01*
X0309498D01*
X0308998Y0227999D01*
Y0226D01*
X0305999Y02255D02*
Y0228499D01*
X0311997D02*
X0313996D01*
X0312997D01*
Y02255D01*
X0317995D02*
X0319495D01*
X0319994Y0226D01*
Y0227999D01*
X0319495Y0228499D01*
X0317995D01*
Y02255D01*
X0320994D02*
X0321994D01*
X0321494D01*
Y0227499D01*
X0320994D01*
X0323493Y0226999D02*
X0323993Y0227499D01*
X0325493D01*
X0324993Y02265D02*
X0323993D01*
X0323493Y0226999D01*
Y02255D02*
X0324993D01*
X0325493Y0226D01*
X0324993Y02265D01*
X0297899Y0232399D02*
X0297399Y0231899D01*
X0296399D02*
Y02309D01*
X02959Y02304D01*
X02944D01*
Y02294D02*
Y0232399D01*
X02959D01*
X0296399Y0231899D01*
X0297899Y0232399D02*
Y02294D01*
X0298399D01*
X0297399D01*
X0296399D02*
X02954Y02304D01*
X0292998Y0218499D02*
X0291998Y0217999D01*
X0290998Y0217D01*
Y0216D01*
X0291498Y02155D01*
X0292498D01*
X0292998Y0216D01*
Y02165D01*
X0292498Y0217D01*
X0290998D01*
X0288999Y0218499D02*
X0288499Y0217999D01*
X0287499D02*
Y0217D01*
X0287Y02165D01*
X02855D01*
Y02155D02*
Y0218499D01*
X0287D01*
X0287499Y0217999D01*
X0288999Y0218499D02*
Y02155D01*
X0289499D01*
X0288499D01*
X0287499D02*
X02865Y02165D01*
X0276998Y02305D02*
X0275998D01*
X0275498Y0231D01*
Y02315D01*
X0275998Y0231999D01*
X0275498Y0232499D01*
Y0232999D01*
X0275998Y0233499D01*
X0276998D01*
X0277497Y0232999D01*
Y0232499D01*
X0276998Y0231999D01*
X0277497Y02315D01*
Y0231D01*
X0276998Y02305D01*
X0274498D02*
X0272499D01*
X0274498Y0232499D01*
Y0232999D01*
X0273998Y0233499D01*
X0272999D01*
X0272499Y0232999D01*
X0275998Y0231999D02*
X0276998D01*
X0272497Y0238199D02*
X0270498D01*
X0271998Y0239699D01*
Y02367D01*
X0269498D02*
X0267499D01*
X0269498Y0238699D01*
Y0239199D01*
X0268999Y0239699D01*
X0267999D01*
X0267499Y0239199D01*
X0266499D02*
X0266Y0239699D01*
X0265D01*
X02645Y0239199D01*
Y02372D01*
X0265Y02367D01*
X0266D01*
X0266499Y02372D01*
X027Y0233499D02*
X02695Y0232999D01*
Y0231D01*
X027Y02305D01*
X0271D01*
X0271499Y0231D01*
Y0232999D02*
X0271Y0233499D01*
X027D01*
X02695Y0226D02*
Y02245D01*
X027Y0224001D01*
X0270999D01*
X0271499Y02245D01*
Y0226D01*
X02685D01*
Y0224001D02*
X02695Y0225D01*
X02685Y0223001D02*
Y0222001D01*
Y0222501D01*
X0271499D01*
X0270999Y0223001D01*
Y0220502D02*
X0270499D01*
X027Y0220002D01*
Y0218502D01*
X0270999D02*
X0271499Y0219002D01*
Y0220002D01*
X0270999Y0220502D01*
X0269D02*
X02685Y0220002D01*
Y0219002D01*
X0269Y0218502D01*
X0270999D01*
X0263998Y0208499D02*
X0262998D01*
X0262498Y0207999D01*
Y0207499D01*
X0262998Y0206999D01*
X0264497D01*
Y0207999D02*
X0263998Y0208499D01*
X0264497Y0207999D02*
Y0206D01*
X0263998Y02055D01*
X0262998D01*
X0262498Y0206D01*
X0261498Y02055D02*
X0259499D01*
X0261498Y0207499D01*
Y0207999D01*
X0260999Y0208499D01*
X0259999D01*
X0259499Y0207999D01*
X0274Y021D02*
X02745Y02095D01*
X02755D01*
X0275999Y021D01*
X0276999Y02095D02*
X0278998Y0211499D01*
Y0211999D01*
X0278499Y0212499D01*
X0277499D01*
X0276999Y0211999D01*
X0275999D02*
X02755Y0212499D01*
X02745D01*
X0274Y0211999D01*
Y021D01*
X0276999Y02095D02*
X0278998D01*
X0279998Y021D02*
X0280498Y02095D01*
X0281498D01*
X0281997Y021D01*
Y02105D01*
X0281498Y0210999D01*
X0279998D01*
Y021D01*
Y0210999D02*
X0280998Y0211999D01*
X0281997Y0212499D01*
X02915Y0181499D02*
X0291Y0180999D01*
Y0179D01*
X02915Y01785D01*
X0292499D01*
X0292999Y0179D01*
X0293999Y01785D02*
X0294999D01*
X0294499D01*
Y0181499D01*
X0293999Y0180999D01*
X0292999D02*
X0292499Y0181499D01*
X02915D01*
X0296498Y0180999D02*
X0296998Y0181499D01*
X0297998D01*
X0298498Y0180999D01*
Y0180499D01*
X0297998Y0179999D01*
X0298498Y01795D01*
Y0179D01*
X0297998Y01785D01*
X0296998D01*
X0296498Y0179D01*
Y01795D01*
X0296998Y0179999D01*
X0296498Y0180499D01*
Y0180999D01*
X0296998Y0179999D02*
X0297998D01*
X0269375Y0136999D02*
X0268875Y0136499D01*
X0269375Y0136999D02*
Y0134D01*
X0269875D01*
X0268875D01*
X0253312D02*
X0253812Y01345D01*
Y0135D01*
X0253312Y01355D01*
X0251813D01*
Y01345D01*
X0252312Y0134D01*
X0253312D01*
X0252812Y0136499D02*
X0251813Y01355D01*
X0252812Y0136499D02*
X0253812Y0136999D01*
X0236998Y01525D02*
X0235998D01*
X0235498Y0153D01*
Y0154999D01*
X0235998Y0155499D01*
X0236998D01*
X0237498Y0154999D01*
Y0153D01*
X0236998Y01525D01*
X0233999D02*
X0233499D01*
Y0155499D01*
X0232999Y0154999D01*
X0231999D02*
Y0153999D01*
X02315Y01535D01*
X023D01*
Y01525D02*
Y0155499D01*
X02315D01*
X0231999Y0154999D01*
X0231Y01535D02*
X0231999Y01525D01*
X0232999D02*
X0233999D01*
X0229998Y0136999D02*
X0230498Y0136499D01*
Y0135999D01*
X0229998Y01355D01*
X0230498Y0135D01*
Y01345D01*
X0229998Y0134D01*
X0228999D01*
X0228499Y01345D01*
Y0135D01*
X0228999Y01355D01*
X0228499Y0135999D01*
Y0136499D01*
X0228999Y0136999D01*
X0229998D01*
Y01355D02*
X0228999D01*
X0227499Y0136999D02*
X02265D01*
X0226999D01*
Y01345D01*
X02265Y0134D01*
X0226D01*
X02255Y01345D01*
X0248Y0188D02*
X02485Y01875D01*
X02495D01*
X0249999Y0188D01*
Y0190499D01*
X0250999Y0189999D02*
X0251499Y0190499D01*
X0252499D01*
X0252998Y0189999D01*
Y0189499D01*
X0252499Y0188999D01*
X0251999D01*
X0252499D01*
X0252998Y01885D01*
Y0188D01*
X0252499Y01875D01*
X0251499D01*
X0250999Y0188D01*
X0248D02*
Y0190499D01*
X0248Y0207402D02*
X0247D01*
X02465Y0207902D01*
Y0208902D01*
X0247Y0209402D01*
X0248D02*
X0248499Y0208402D01*
Y0207902D01*
X0248Y0207402D01*
X0249499D02*
Y0209402D01*
X0248D01*
X02465Y0210901D02*
Y0211401D01*
X0249499D01*
X0248999Y0211901D01*
Y0212901D02*
X0248D01*
X02475Y0213401D01*
Y02149D01*
X02465D02*
X0249499D01*
Y0213401D01*
X0248999Y0212901D01*
X02475Y02139D02*
X02465Y0212901D01*
Y0211901D02*
Y0210901D01*
X0257Y0208499D02*
X02565Y0207999D01*
Y0206D01*
X0257Y02055D01*
X0257999D01*
X0258499Y0206D01*
Y0207999D02*
X0257999Y0208499D01*
X0257D01*
X0246598Y0229D02*
Y02295D01*
X0248598Y0231499D01*
Y0231999D01*
X0246598D01*
X0244599D02*
X0244099Y0231499D01*
X0243099D02*
Y02305D01*
X02426Y023D01*
X02411D01*
Y0229D02*
Y0231999D01*
X02426D01*
X0243099Y0231499D01*
X0233797Y02348D02*
X0232797D01*
X0232297Y02353D01*
Y0236799D02*
X0232797Y0236299D01*
X0233797D01*
X0234296Y02358D01*
Y02353D01*
X0233797Y02348D01*
X0234296Y0237299D02*
X0233797Y0237799D01*
X0232797D01*
X0232297Y0237299D01*
Y0236799D01*
X0231297Y0237299D02*
Y0237799D01*
Y0237299D02*
X0230298Y0236299D01*
Y02348D01*
Y0236299D02*
X0229298Y0237299D01*
Y0237799D01*
X0227799D02*
X0226799D01*
X0226299Y0237299D01*
Y0236799D01*
X0226799Y0236299D01*
X0227799D01*
X0228298Y02358D01*
Y02353D01*
X0227799Y02348D01*
X0226799D01*
X0226299Y02353D01*
X0225299Y02358D02*
Y0237799D01*
X02233D02*
Y02358D01*
X02243Y02348D01*
X0225299Y02358D01*
X0228298Y0237299D02*
X0227799Y0237799D01*
X0228898Y02405D02*
X0230897Y0242499D01*
Y0242999D01*
X0230398Y0243499D01*
X0229398D01*
X0228898Y0242999D01*
X0227898D02*
Y0242D01*
X0227398Y02415D01*
X0225899D01*
Y02405D02*
Y0243499D01*
X0227398D01*
X0227898Y0242999D01*
X0224899Y0243499D02*
X02239D01*
Y02405D01*
X0224899Y0243499D02*
X02229D01*
X0228898Y02405D02*
X0230897D01*
X0232397D02*
X0231897Y0241D01*
Y02415D01*
X0232397Y0242D01*
X0231897Y0242499D01*
Y0242999D01*
X0232397Y0243499D01*
X0233397D01*
X0233896Y0242999D01*
Y0242499D01*
X0233397Y0242D01*
X0233896Y02415D01*
Y0241D01*
X0233397Y02405D01*
X0232397D01*
Y0242D02*
X0233397D01*
X02421Y023D02*
X0243099Y0229D01*
X0244099D02*
X0245099D01*
X0244599D01*
Y0231999D01*
X0241697Y0216699D02*
X0241197Y0216199D01*
X0240197D02*
Y0215699D01*
X0239698Y0215199D01*
X0239198D01*
X0239698D01*
X0240197Y02147D01*
Y02142D01*
X0239698Y02137D01*
X0238698D01*
X0238198Y02142D01*
X0236699Y02147D02*
X0235199D01*
Y02137D02*
Y0216699D01*
X0236699D01*
X0237198Y0216199D01*
Y0215199D01*
X0236699Y02147D01*
X0238198Y0216199D02*
X0238698Y0216699D01*
X0239698D01*
X0240197Y0216199D01*
X0241197Y02137D02*
X0242197D01*
X0241697D01*
Y0216699D01*
X0234199D02*
X02332D01*
Y02137D01*
X0233098Y0211299D02*
X0233597Y02108D01*
Y02103D01*
X0231598D01*
Y02098D02*
Y02108D01*
X0232098Y0211299D01*
X0233098D01*
X0234597D02*
X0236097D01*
X0236596Y02108D01*
Y02093D01*
X0237596D02*
X0239096D01*
X0239596Y02098D01*
X0239096Y02103D01*
X0238096D01*
X0237596Y02108D01*
X0238096Y0211299D01*
X0239596D01*
X0240595Y02108D02*
X0241095Y0211299D01*
X0242095D01*
X0242595Y02108D01*
Y02103D01*
X0240595D01*
Y02098D02*
Y02108D01*
Y02098D02*
X0241095Y02093D01*
X0242095D01*
X0234597D02*
Y0211299D01*
X0233098Y02093D02*
X0232098D01*
X0231598Y02098D01*
X0230598D02*
X0230099Y02093D01*
X0229099D01*
X0228599Y02098D01*
Y0211299D02*
X0229099Y02108D01*
X0230099D01*
X0230598Y02103D01*
Y02098D01*
Y0211799D02*
X0230099Y0212299D01*
X0229099D01*
X0228599Y0211799D01*
Y0211299D01*
X0227599Y02103D02*
Y0212299D01*
X02256D02*
Y02103D01*
X02266Y02093D01*
X0227599Y02103D01*
X02322Y0216699D02*
X0234199D01*
X0225195Y02203D02*
X0225694Y0220799D01*
X0225195Y0221299D01*
X0224195D01*
X0223695Y0221799D01*
X0224195Y0222299D01*
X0225694D01*
X0225195Y02203D02*
X0223695D01*
X0222196D02*
X0222695Y0220799D01*
X0222196Y0221299D01*
X0221196D01*
X0220696Y0221799D01*
X0221196Y0222299D01*
X0222695D01*
X0222196Y02203D02*
X0220696D01*
X0219696D02*
X0218197D01*
X0217697Y0220799D01*
X0218197Y0221299D01*
X0219696D01*
Y0221799D02*
Y02203D01*
Y0221799D02*
X0219197Y0222299D01*
X0218197D01*
X0216697Y0221799D02*
Y0220799D01*
X0216198Y02203D01*
X0214698D01*
X0213698D02*
Y02198D01*
X0213198Y02193D01*
X0212699D01*
X0212199Y02203D02*
X0213698D01*
Y0222299D01*
X0214698D02*
X0216198D01*
X0216697Y0221799D01*
Y0226318D02*
Y0228818D01*
Y0226318D02*
X0216198Y0225818D01*
X0215198D01*
X0214698Y0226318D01*
Y0228818D01*
X0213198D02*
X0212199D01*
X0211699Y0228318D01*
Y0227818D01*
X0212199Y0227318D01*
X0213198D01*
X0213698Y0226818D01*
Y0226318D01*
X0213198Y0225818D01*
X0212199D01*
X0211699Y0226318D01*
X0210199Y0226818D02*
X02087D01*
Y0225818D02*
Y0228818D01*
X0210199D01*
X0210699Y0228318D01*
Y0227318D01*
X0210199Y0226818D01*
Y0223299D02*
X02087D01*
Y02203D01*
X0210199D01*
X0210699Y0220799D01*
Y0221299D01*
X0210199Y0221799D01*
X02087D01*
X0210199D01*
X0210699Y0222299D01*
Y0222799D01*
X0210199Y0223299D01*
X0211699Y0222299D02*
Y0220799D01*
X0212199Y02203D01*
X0214698Y02193D02*
Y0222299D01*
X0213698Y0228318D02*
X0213198Y0228818D01*
X0213498Y0206999D02*
Y0204D01*
X0212499Y0205D01*
X0211499Y0204D01*
Y0206999D01*
X0209999D02*
X0209D01*
X02085Y0206499D01*
Y0205999D01*
X0209Y02055D01*
X0209999D01*
X0210499Y0205D01*
Y02045D01*
X0209999Y0204D01*
X0209D01*
X02085Y02045D01*
X0210499Y0206499D02*
X0209999Y0206999D01*
X0214498Y0206499D02*
X0214998Y0206999D01*
X0215998D01*
X0216497Y0206499D01*
Y0205999D01*
X0215998Y02055D01*
X0215498D01*
X0215998D01*
X0216497Y0205D01*
Y02045D01*
X0215998Y0204D01*
X0214998D01*
X0214498Y02045D01*
X0225Y0180999D02*
X02245Y0180499D01*
Y01785D01*
X0225Y0178D01*
X0225999D01*
X0226499Y01785D01*
X0227499Y0178D02*
X0228499D01*
X0227999D01*
Y0180999D01*
X0227499Y0180499D01*
X0226499D02*
X0225999Y0180999D01*
X0225D01*
X0229998D02*
X0231998D01*
Y0180499D01*
X0229998Y01785D01*
Y0178D01*
X0184498Y0188999D02*
Y0189499D01*
X0183999Y0189999D01*
X0182999D01*
X0182499Y0189499D01*
X0181499Y0189999D02*
Y01875D01*
X0181Y0187D01*
X018D01*
X01795Y01875D01*
Y0189999D01*
X0184498Y0188999D02*
X0182499Y0187D01*
X0184498D01*
X0163998Y0181999D02*
X0162998D01*
X0162498Y0181499D01*
X0164498D02*
X0163998Y0181999D01*
X0164498Y0181499D02*
Y0180999D01*
X0162498Y0179D01*
X0164498D01*
X0160999D02*
X0160499D01*
Y0181999D01*
X0159999Y0181499D01*
X0158999D02*
X01585Y0181999D01*
X01575D01*
X0157Y0181499D01*
Y01795D01*
X01575Y0179D01*
X01585D01*
X0158999Y01795D01*
X0159999Y0179D02*
X0160999D01*
X01645Y0155499D02*
X0165999D01*
X0166499Y0154999D01*
Y0153999D01*
X0165999Y01535D01*
X01645D01*
Y01525D02*
Y0155499D01*
X01655Y01535D02*
X0166499Y01525D01*
X0167499Y0153D02*
X0167999Y01525D01*
X0168999D01*
X0169498Y0153D01*
Y0154999D01*
X0168999Y0155499D01*
X0167999D01*
X0167499Y0154999D01*
Y0154499D01*
X0167999Y0153999D01*
X0169498D01*
X016Y0113999D02*
X0161999D01*
X0161D01*
Y0111D01*
X0162999D02*
Y0113999D01*
X0164499D01*
X0164998Y0113499D01*
Y0112499D01*
X0164499Y0112D01*
X0162999D01*
X0165998Y0111D02*
X0166998D01*
X0166498D01*
Y0113999D01*
X0165998Y0113499D01*
X0168497Y0112499D02*
X0170497D01*
X0169997Y0113999D02*
X0168497Y0112499D01*
X0169997Y0113999D02*
Y0111D01*
X02085Y02375D02*
X0209Y0237D01*
X0209999D01*
X0210499Y02375D01*
Y0239499D01*
X0209999Y0239999D01*
X0209D01*
X02085Y0239499D01*
Y02375D01*
X0211499Y0237D02*
Y0238499D01*
X0212499D01*
X0211499D01*
Y0239999D01*
X0213498D01*
X0214498D02*
Y0238499D01*
X0215498D01*
X0214498D01*
Y0237D01*
Y0239999D02*
X0216497D01*
X0214498Y02525D02*
Y0253999D01*
X0215498D01*
X0214498D01*
Y0255499D01*
X0216497D01*
X0213498D02*
X0211499D01*
Y0253999D01*
X0212499D01*
X0211499D01*
Y02525D01*
X0209999D02*
X0210499Y0253D01*
Y0254999D01*
X0209999Y0255499D01*
X0209D01*
X02085Y0254999D01*
Y0253D01*
X0209Y02525D01*
X0209999D01*
X02259Y02595D02*
X02264Y0259D01*
X0227399D01*
X0227899Y02595D01*
X0228899Y0259D02*
X0230898Y0260999D01*
Y0261499D01*
X0230399Y0261999D01*
X0229399D01*
X0228899Y0261499D01*
X0227899D02*
X0227399Y0261999D01*
X02264D01*
X02259Y0261499D01*
Y02595D01*
X0228899Y0259D02*
X0230898D01*
X0232398D02*
X0231898Y02595D01*
X0232398Y0259D02*
X0233398D01*
X0233897Y02595D01*
Y026D01*
X0233398Y02605D01*
X0232898D01*
X0233398D01*
X0233897Y0260999D01*
Y0261499D01*
X0233398Y0261999D01*
X0232398D01*
X0231898Y0261499D01*
X02461Y02725D02*
Y0275499D01*
X02476D01*
X0248099Y0274999D01*
Y0274D01*
X02476Y02735D01*
X02461D01*
X02471D02*
X0248099Y02725D01*
X0249099D02*
X0250099D01*
X0249599D01*
Y0275499D01*
X0249099Y0274999D01*
X0251598D02*
X0252098Y0275499D01*
X0253098D01*
X0253598Y0274999D01*
Y0274499D01*
X0253098Y0274D01*
X0253598Y02735D01*
Y0273D01*
X0253098Y02725D01*
X0252098D01*
X0251598Y0273D01*
Y02735D01*
X0252098Y0274D01*
X0251598Y0274499D01*
Y0274999D01*
X0252098Y0274D02*
X0253098D01*
X02622Y0267999D02*
Y02655D01*
X02627Y0265D01*
X02637D01*
X0264199Y02655D01*
Y0267999D01*
X0265199D02*
X0267198D01*
Y0267499D01*
X0265199Y02655D01*
Y0265D01*
X0286D02*
X0287999D01*
X0288999D02*
X0290998Y0266999D01*
Y0267499D01*
X0290498Y0267999D01*
X0289499D01*
X0288999Y0267499D01*
Y0265D02*
X0290998D01*
X0276998Y0275D02*
X0276498D01*
Y0277999D01*
X0275998Y0277499D01*
X0274998D02*
X0274499Y0277999D01*
X0273499D01*
X0272999Y0277499D01*
X0274998D02*
Y0276999D01*
X0272999Y0275D01*
X0274998D01*
X0275998D02*
X0276998D01*
X0286Y0267999D02*
Y0265D01*
X0271499Y0275D02*
X0271999Y02755D01*
X0271499Y0275D02*
X02705D01*
X027Y02755D01*
Y0277499D01*
X02705Y0277999D01*
X0271499D01*
X0271999Y0277499D01*
X0251986Y02955D02*
X0252486Y0296D01*
X0251986Y02965D01*
X0250987D01*
X0250487Y0297D01*
X0250987Y0297499D01*
X0252486D01*
X0251986Y02955D02*
X0250487D01*
X0248987D02*
X0249487Y0296D01*
X0248987Y02965D01*
X0247988D01*
X0247488Y0297D01*
X0247988Y0297499D01*
X0249487D01*
X0248987Y02955D02*
X0247488D01*
X0246488D02*
X0244988D01*
X0244489Y0296D01*
X0244988Y02965D01*
X0246488D01*
Y0297D02*
Y02955D01*
Y0297D02*
X0245988Y0297499D01*
X0244988D01*
X0236499Y03115D02*
X0235999D01*
Y0314499D01*
X0235499Y0313999D01*
X0234499D02*
X0233999Y0314499D01*
X02325D01*
Y03115D01*
X0233999D01*
X0234499Y0312D01*
Y0313999D01*
X0235499Y03115D02*
X0236499D01*
X0236991Y0298499D02*
X0235492D01*
Y02955D01*
X0236991D01*
X0237491Y0296D01*
Y02965D01*
X0236991Y0297D01*
X0235492D01*
X0236991D01*
X0237491Y0297499D01*
Y0297999D01*
X0236991Y0298499D01*
X0238491Y0297499D02*
Y0296D01*
X023899Y02955D01*
X024049D01*
Y0295D01*
X023999Y02945D01*
X023949D01*
X024049Y02955D02*
Y0297499D01*
X024149D02*
X0242989D01*
X0243489Y0297D01*
Y0296D01*
X0242989Y02955D01*
X024149D01*
Y02945D02*
Y0297499D01*
X0230993D02*
X0231493Y0297D01*
Y02955D01*
X0230993Y0297499D02*
X0229493D01*
Y02955D01*
X0228494D02*
X0226994D01*
X0226495Y0296D01*
X0226994Y02965D01*
X0228494D01*
Y0297D02*
Y02955D01*
Y0297D02*
X0227994Y0297499D01*
X0226994D01*
X0224495D02*
X0225495Y0298499D01*
Y02955D01*
X0223496D02*
Y0298499D01*
X0224495Y0297499D01*
X0218997D02*
X0218497D01*
X0217997D01*
X0218997D01*
X0218497D02*
Y0296D01*
X0218997Y02955D01*
X0218497Y0297499D02*
Y0297999D01*
X0216997Y0282999D02*
X0216498Y0283499D01*
X0215498D01*
X0214998Y0282999D01*
X0213998Y0283499D02*
Y02805D01*
X0212999Y02815D01*
X0211999Y02805D01*
Y0283499D01*
X02105D02*
X02095D01*
X0209Y0282999D01*
Y0282499D01*
X02095Y0281999D01*
X02105D01*
X0210999Y02815D01*
Y0281D01*
X02105Y02805D01*
X02095D01*
X0209Y0281D01*
X0210999Y0282999D02*
X02105Y0283499D01*
X0214998Y02805D02*
X0216997Y0282499D01*
Y0282999D01*
Y02805D02*
X0214998D01*
X0208988Y0276499D02*
X0209488Y0275999D01*
Y0274D01*
X0208988Y02735D01*
X0207988D01*
X0207488Y0274D01*
Y0275999D01*
X0207988Y0276499D01*
X0208988D01*
X0206489D02*
Y02745D01*
X0205489Y02735D01*
X0204489Y02745D01*
Y0276499D01*
X020349D02*
X020249Y0275999D01*
X020149Y0274999D01*
Y0274D01*
X020199Y02735D01*
X020299D01*
X020349Y0274D01*
Y02745D01*
X020299Y0274999D01*
X020149D01*
X0196992Y0275499D02*
X0196492D01*
X0195992Y0274999D01*
X0195492Y02745D01*
Y02735D01*
Y0275499D01*
X0194493Y0274999D02*
X0193993Y0275499D01*
X0192993D01*
X0192493Y0274999D01*
Y0274D01*
X0192993Y02735D01*
X0193993D01*
X0194493Y0274D01*
Y0274999D01*
X0190994Y0275499D02*
X0190494D01*
X0189994D01*
X0190994D01*
X0190494D02*
Y0274D01*
X0190994Y02735D01*
X0190494Y0275499D02*
Y0275999D01*
X0188995Y0274999D02*
X0188495Y0275499D01*
X0187495D01*
X0186995Y0274999D01*
Y0274D01*
X0187495Y02735D01*
X0188495D01*
X0188995Y0274D01*
Y0274999D01*
X02095Y02955D02*
X0210999D01*
X0211499Y0296D01*
Y02965D01*
X0210999Y0297D01*
X02095D01*
X0210999D01*
X0211499Y0297499D01*
Y0297999D01*
X0210999Y0298499D01*
X02095D01*
Y02955D01*
X0212999D02*
X0212499Y0296D01*
X0212999Y02965D01*
X0214498D01*
Y0297D02*
Y02955D01*
X0212999D01*
Y0297499D02*
X0213999D01*
X0214498Y0297D01*
X0215498Y0297499D02*
X0216498D01*
X0215998D01*
X0215498D01*
X0215998D02*
Y0296D01*
X0216498Y02955D01*
X0215998Y0297499D02*
Y0297999D01*
X0217498Y0312499D02*
X0216498D01*
X0217498D01*
X0218497Y0313999D02*
X0216498D01*
Y0312499D01*
Y0311D01*
X0213499D02*
Y0312499D01*
X0214499D01*
X0213499D01*
Y0313999D01*
X0215498D01*
X0212D02*
X0211D01*
X02105Y0313499D01*
Y03115D01*
X0211Y0311D01*
X0212D01*
X0212499Y03115D01*
Y0313499D01*
X0212Y0313999D01*
X0185995Y0276499D02*
Y02735D01*
X0183996D02*
Y0276499D01*
X0184996Y0275499D01*
X0185995Y0276499D01*
X0179997D02*
X0178998D01*
Y02735D01*
X0176998D02*
X0174999Y0276499D01*
X0176998D02*
X0174999Y02735D01*
X0177998Y0276499D02*
X0179997D01*
X0173999D02*
X0172D01*
Y02735D01*
X0173999D01*
X0173Y0274999D02*
X0172D01*
X0132998Y0262D02*
X0130999D01*
X0132499Y0263499D01*
Y02605D01*
X0129499Y0261D02*
X0129Y02605D01*
X01285D01*
X0128Y0261D01*
X0129499D02*
Y0263499D01*
X0129D01*
X0129999D01*
X01655Y0327D02*
X0166Y03265D01*
X0166999D01*
X0167499Y0327D01*
Y0328999D01*
X0166999Y0329499D01*
X0166D01*
X01655Y0328999D01*
Y0327D01*
X0168499Y03265D02*
Y0329499D01*
X0170498Y03265D01*
Y0329499D01*
X0177995Y03485D02*
X0179495D01*
X0179995Y0349D01*
Y03495D01*
X0179495Y0349999D01*
X0177995D01*
X0179495D01*
X0179995Y0350499D01*
Y0350999D01*
X0179495Y0351499D01*
X0177995D01*
Y03485D01*
X0181494D02*
X0180994Y0349D01*
X0181494Y03495D01*
X0182994D01*
Y0349999D02*
Y03485D01*
X0181494D01*
Y0350499D02*
X0182494D01*
X0182994Y0349999D01*
X0183993Y0350499D02*
X0184993D01*
X0184493D01*
X0183993D01*
X0184493D02*
Y0349D01*
X0184993Y03485D01*
X0186992Y0349D02*
X0187492Y03485D01*
X0186992Y0349D02*
Y0350499D01*
X0186493D01*
X0187492D01*
X0186992D01*
Y0350999D01*
X0184493D02*
Y0350499D01*
X0191991Y0351499D02*
X0192991Y0350499D01*
X019399Y0351499D01*
Y03485D01*
X019549D02*
X019499Y0349D01*
X019549Y03495D01*
X0196989D01*
Y0349999D02*
Y03485D01*
X019549D01*
Y0350499D02*
X0196489D01*
X0196989Y0349999D01*
X0197989Y0350499D02*
X0199488D01*
X0199988Y0349999D01*
Y03485D01*
X0197989D02*
Y0350499D01*
X0191991Y0351499D02*
Y03485D01*
X0203987D02*
X0205486D01*
X0205986Y0349D01*
Y03495D01*
X0205486Y0349999D01*
X0203987D01*
X0205486D01*
X0205986Y0350499D01*
Y0350999D01*
X0205486Y0351499D01*
X0203987D01*
Y03485D01*
X0206986Y0349D02*
X0207486Y03485D01*
X0208985D01*
Y0348D01*
X0208485Y03475D01*
X0207986D01*
X0208985Y03485D02*
Y0350499D01*
X0209985D02*
X0211485D01*
X0211984Y0349999D01*
Y0349D01*
X0211485Y03485D01*
X0209985D01*
Y03475D02*
Y0350499D01*
X0206986D02*
Y0349D01*
X0212984D02*
X0213484Y03495D01*
X0214983D01*
Y0349999D02*
Y03485D01*
X0213484D01*
X0212984Y0349D01*
X0213484Y0350499D02*
X0214483D01*
X0214983Y0349999D01*
X0215983D02*
X0216483Y0350499D01*
X0217982D01*
X0217482Y03495D02*
X0216483D01*
X0215983Y0349999D01*
Y03485D02*
X0217482D01*
X0217982Y0349D01*
X0217482Y03495D01*
X0219482D02*
X0218982Y0349999D01*
X0219482Y0350499D01*
X0220981D01*
X0220482Y03495D02*
X0219482D01*
X0220482D02*
X0220981Y0349D01*
X0220482Y03485D01*
X0218982D01*
X0231895Y03698D02*
X0233395D01*
X0233894Y03703D01*
Y0372299D01*
X0233395Y0372799D01*
X0231895D01*
Y03698D01*
X0234894D02*
X0235894D01*
X0235394D01*
Y0371799D01*
X0234894D01*
X0237393Y03713D02*
X0237893Y0371799D01*
X0239393D01*
X0238893Y03708D02*
X0237893D01*
X0237393Y03713D01*
X0238893Y03708D02*
X0239393Y03703D01*
X0238893Y03698D01*
X0237393D01*
X0240892D02*
X0242392D01*
X0240892D02*
X0240392Y03703D01*
Y03713D01*
X0240892Y0371799D01*
X0242392D01*
X0243391Y03713D02*
Y03703D01*
X0243891Y03698D01*
X0244891D01*
X0245391Y03703D01*
Y03713D01*
X0244891Y0371799D01*
X0243891D01*
X0243391Y03713D01*
X0232697Y0378D02*
X0231697D01*
X0231197Y03785D01*
Y0379999D02*
X0231697Y03795D01*
X0232697D01*
X0233196Y0379D01*
Y03785D01*
X0232697Y0378D01*
X0233196Y0380499D02*
X0232697Y0380999D01*
X0231697D01*
X0231197Y0380499D01*
Y0379999D01*
X0246391Y03698D02*
Y0371799D01*
X024789D01*
X024839Y03713D01*
Y03698D01*
X024939D02*
Y0371799D01*
X0250889D01*
X0251389Y03713D01*
Y03698D01*
X0252888D02*
X0252389Y03703D01*
Y03713D01*
X0252888Y0371799D01*
X0253888D01*
X0254388Y03713D01*
Y03708D01*
X0252389D01*
X0255388Y03713D02*
Y03703D01*
X0255887Y03698D01*
X0257387D01*
X0253888D02*
X0252888D01*
X0257Y0356499D02*
X02575D01*
Y0354D01*
X0257Y03535D01*
X02565D01*
X0256Y0354D01*
X0257Y0356499D02*
X0257999D01*
X0257387Y0371799D02*
X0255887D01*
X0255388Y03713D01*
X0243097Y03855D02*
X0241098D01*
X0243097Y0387499D01*
Y0387999D01*
X0242598Y0388499D01*
X0241598D01*
X0241098Y0387999D01*
X0240098D02*
Y0387D01*
X0239598Y03865D01*
X0238099D01*
Y03855D02*
Y0388499D01*
X0239598D01*
X0240098Y0387999D01*
X0237099Y0388499D02*
X02361D01*
Y03855D01*
X0237099Y0388499D02*
X02351D01*
X0235997Y0402D02*
Y0404999D01*
X0236996D01*
X0234997D01*
X0232998D02*
X0233997Y0403999D01*
Y0402D01*
Y04035D01*
X0231998D01*
Y0403999D02*
X0232998Y0404999D01*
X0231998Y0403999D02*
Y0402D01*
X0230998Y04025D02*
Y0403D01*
X0230499Y04035D01*
X0228999D01*
X0230499D01*
X0230998Y0403999D01*
Y0404499D01*
X0230499Y0404999D01*
X0228999D01*
Y0402D01*
X0230499D01*
X0230998Y04025D01*
X0224398Y0413199D02*
X0222898Y0411699D01*
X0224897D01*
X0224398Y04102D02*
Y0413199D01*
X0221398D02*
X0221898Y0412699D01*
Y0411699D01*
X0221398Y04112D01*
X0219899D01*
Y04102D02*
Y0413199D01*
X0221398D01*
X0218899D02*
X02179D01*
Y04102D01*
X0226Y0404999D02*
Y0403D01*
X0227Y0402D01*
X0227999Y0403D01*
Y0404999D01*
X0218899Y0413199D02*
X02169D01*
X0217484Y0424D02*
X0215985D01*
X0215485Y04245D01*
Y0425499D01*
X0215985Y0425999D01*
X0217484D01*
X0218484D02*
X0219484D01*
X0218984D01*
X0218484D01*
X0218984D02*
Y04245D01*
X0219484Y0424D01*
X0218984Y0425999D02*
Y0426499D01*
X0213985Y0425999D02*
X0214485Y0425499D01*
Y0425D01*
X0212486D01*
Y04245D02*
Y0425499D01*
X0212986Y0425999D01*
X0213985D01*
X0210986D02*
X0211486Y0425499D01*
Y0424D01*
X0212986D02*
X0212486Y04245D01*
X0212986Y0424D02*
X0213985D01*
X0209487D02*
Y0425999D01*
X0210986D01*
X0207987D02*
X0208487Y0425499D01*
Y0424D01*
X0206488D02*
Y0425999D01*
X0207987D01*
X0204988D02*
X0203989D01*
X0203489Y0425499D01*
Y04245D01*
X0203989Y0424D01*
X0204988D01*
X0205488Y04245D01*
Y0425499D01*
X0204988Y0425999D01*
X0202489D02*
X020099D01*
X020049Y0425499D01*
Y04245D01*
X020099Y0424D01*
X0202489D01*
X019899D02*
X019949Y04245D01*
X019899Y0425D01*
X0197991D01*
X0197491Y0425499D01*
X0197991Y0425999D01*
X019949D01*
X0195491D02*
X0194992D01*
X0195491D02*
Y0424D01*
X0195991D01*
X0194992D01*
X0193492D02*
X0193992Y04245D01*
Y0426499D01*
X0193492Y0426999D01*
X0191993D01*
Y0424D01*
X0193492D01*
X0197491D02*
X019899D01*
X0187994Y0425999D02*
Y0424D01*
Y04235D01*
X0187494Y0423D01*
X0186994D01*
X0186494Y0424D02*
X0187994D01*
X0186494D02*
X0185995Y04245D01*
Y0425999D01*
X0184495D02*
X0183995D01*
X0183495Y0425499D01*
X0182995Y0425D01*
Y0424D01*
Y0425999D01*
X0181496D02*
X0181996Y0425499D01*
Y0425D01*
X0179996D01*
Y04245D02*
Y0425499D01*
X0180496Y0425999D01*
X0181496D01*
X0178497D02*
X0177997D01*
X0177497D01*
X0178497D01*
X0177997D02*
Y04245D01*
X0178497Y0424D01*
X0180496D02*
X0179996Y04245D01*
X0180496Y0424D02*
X0181496D01*
X0175998D02*
X0175498Y04245D01*
Y0425999D01*
X0174998D01*
X0175998D01*
X0175498D01*
Y0426499D01*
X0177997D02*
Y0425999D01*
X0173499D02*
X0173998Y0425499D01*
Y0424D01*
X0172499D01*
X0171999Y04245D01*
X0172499Y0425D01*
X0173998D01*
X0170999D02*
X01705Y0425499D01*
X0169D01*
X01705D01*
X0170999Y0425999D01*
Y0426499D01*
X01705Y0426999D01*
X0169D01*
Y0424D01*
X01705D01*
X0170999Y04245D01*
Y0425D01*
X0168994Y0405499D02*
Y04025D01*
X0166995Y0405499D01*
Y04025D01*
X0165495D02*
X0165995Y0403D01*
Y0404999D01*
X0165495Y0405499D01*
X0164495D01*
X0163996Y0404999D01*
Y0403D01*
X0164495Y04025D01*
X0165495D01*
X0164499Y0389499D02*
Y0388D01*
X0165499D01*
X0164499D01*
Y03865D01*
X0162999D02*
X0163499Y0387D01*
Y0388999D01*
X0162999Y0389499D01*
X0162D01*
X01615Y0388999D01*
Y0387D01*
X0162Y03865D01*
X0162999D01*
X0164499Y0389499D02*
X0166498D01*
X0167498D02*
Y0388D01*
X0168498D01*
X0167498D01*
Y03865D01*
Y0389499D02*
X0169497D01*
Y0372499D02*
X0167498D01*
Y0371D01*
X0168498D01*
X0167498D01*
Y03695D01*
X0164499D02*
Y0371D01*
X0165499D01*
X0164499D01*
Y0372499D01*
X0166498D01*
X0162999D02*
X0162D01*
X01615Y0371999D01*
Y037D01*
X0162Y03695D01*
X0162999D01*
X0163499Y037D01*
Y0371999D01*
X0162999Y0372499D01*
X0164Y0351499D02*
X01635Y0350999D01*
X0164Y0351499D02*
Y03485D01*
X01645D01*
X01635D01*
X0165999D02*
X0167999Y0350499D01*
Y0350999D01*
X0167499Y0351499D01*
X0166499D01*
X0165999Y0350999D01*
Y03485D02*
X0167999D01*
X0168998Y03495D02*
X0169998Y03485D01*
X0170998Y03495D01*
Y0351499D01*
X0171997Y0350999D02*
X0172497Y0351499D01*
X0173497D01*
X0173997Y0350999D01*
Y0349D01*
X0173497Y03485D01*
X0172497D01*
X0171997Y0349D01*
Y0350999D01*
X0168998Y0351499D02*
Y03495D01*
X0134699Y0344199D02*
X0135198Y0343699D01*
Y0343199D01*
X0134699Y03427D01*
X0134199D01*
X0134699D01*
X0135198Y03422D01*
Y03417D01*
X0134699Y03412D01*
X0133699D01*
X0133199Y03417D01*
Y0343699D02*
X0133699Y0344199D01*
X0134699D01*
X0132199D02*
X01312D01*
X01317D01*
Y03417D01*
X01312Y03412D01*
X01307D01*
X01302Y03417D01*
X0124198Y0392D02*
X0122199D01*
X0124198Y0393999D01*
Y0394499D01*
X0123699Y0394999D01*
X0122699D01*
X0122199Y0394499D01*
X0121199Y0394999D02*
X01202D01*
X01207D01*
Y03925D01*
X01202Y0392D01*
X01197D01*
X01192Y03925D01*
X015Y04025D02*
X0151499D01*
X0151999Y0403D01*
Y04035D01*
X0151499Y0404D01*
X015D01*
X0151499D01*
X0151999Y0404499D01*
Y0404999D01*
X0151499Y0405499D01*
X015D01*
Y04025D01*
X0153499D02*
X0152999Y0403D01*
X0153499Y04035D01*
X0154998D01*
Y0404D02*
Y04025D01*
X0153499D01*
Y0404499D02*
X0154499D01*
X0154998Y0404D01*
X0155998Y0404499D02*
X0156998D01*
X0156498D01*
X0155998D01*
X0156498D02*
Y0403D01*
X0156998Y04025D01*
X0158997Y0403D02*
X0159497Y04025D01*
X0158997Y0403D02*
Y0404499D01*
X0158497D01*
X0159497D01*
X0158997D01*
Y0404999D01*
X0156498D02*
Y0404499D01*
X0172499Y0425999D02*
X0173499D01*
X021Y0388499D02*
X02095Y0387999D01*
Y0387499D01*
X021Y0387D01*
X0210999D01*
X0211499Y03865D01*
Y0386D01*
X0210999Y03855D01*
X021D01*
X02095Y0386D01*
X021Y0388499D02*
X0210999D01*
X0211499Y0387999D01*
X0212499Y0388499D02*
Y03855D01*
X0213499Y03865D01*
X0214498Y03855D01*
Y0388499D01*
X0215998D02*
X0215498Y0387999D01*
X0215998Y0388499D02*
Y03855D01*
X0216498D01*
X0215498D01*
X02222Y0380999D02*
Y0379D01*
X02232Y0378D01*
X0224199Y0379D01*
Y0380999D01*
X0225699D02*
X0225199Y0380499D01*
Y0379999D01*
X0225699Y03795D01*
X0226698D01*
X0227198Y0379D01*
Y03785D01*
X0226698Y0378D01*
X0225699D01*
X0225199Y03785D01*
X0225699Y0380999D02*
X0226698D01*
X0227198Y0380499D01*
X0228198D02*
X0229198Y03795D01*
X0230197Y0380499D01*
Y0380999D01*
X0228198D02*
Y0380499D01*
X0229198Y03795D02*
Y0378D01*
X0227397Y0372799D02*
X0226397D01*
X0225897Y0372299D01*
Y0371799D01*
X0226397Y03713D01*
X0227397D01*
X0227896Y03708D01*
Y03703D01*
X0227397Y03698D01*
X0226397D01*
X0225897Y03703D01*
X0223898Y03713D02*
X0224897Y0372299D01*
Y0372799D01*
X0222898D02*
Y0372299D01*
X0223898Y03713D01*
Y03698D01*
X0221398D02*
X0220399D01*
X0219899Y03703D01*
Y0371799D02*
X0220399Y03713D01*
X0221398D01*
X0221898Y03708D01*
Y03703D01*
X0221398Y03698D01*
X02179D02*
X0218899Y03708D01*
Y0372799D01*
X0220399D02*
X0219899Y0372299D01*
Y0371799D01*
X0220399Y0372799D02*
X0221398D01*
X0221898Y0372299D01*
X02169Y0372799D02*
Y03708D01*
X02179Y03698D01*
X0218Y0359999D02*
Y03575D01*
X02175Y0357D01*
X0217D01*
X02165Y03575D01*
X02175Y0359999D02*
X0218D01*
X0218499D02*
X02175D01*
X0219999D02*
X0219499Y0359499D01*
X0219999Y0359999D02*
Y0357D01*
X0220499D01*
X0219499D01*
X0222498D02*
X0221998Y03575D01*
X0222498Y0357D02*
X0223498D01*
X0223998Y03575D01*
Y0358D01*
X0223498Y03585D01*
X0222998D01*
X0223498D01*
X0223998Y0358999D01*
Y0359499D01*
X0223498Y0359999D01*
X0222498D01*
X0221998Y0359499D01*
X0227896Y0372299D02*
X0227397Y0372799D01*
X02625Y0322499D02*
X0264D01*
X0264499Y0321999D01*
Y0321D01*
X0264Y03205D01*
X02625D01*
Y03195D02*
Y0322499D01*
X02635Y03205D02*
X0264499Y03195D01*
X0265499D02*
X0266499D01*
X0265999D01*
Y0322499D01*
X0265499Y0321999D01*
X04255Y0184499D02*
X0425Y0183999D01*
Y0182D01*
X04255Y01815D01*
X04265D01*
X0426999Y0182D01*
X0427999Y01815D02*
X0429998Y0183499D01*
Y0183999D01*
X0429498Y0184499D01*
X0428499D01*
X0427999Y0183999D01*
X0426999D02*
X04265Y0184499D01*
X04255D01*
X0427999Y01815D02*
X0429998D01*
X0431498D02*
X0430998Y0182D01*
Y0183999D01*
X0431498Y0184499D01*
X0432498D01*
X0432997Y0183999D01*
Y0182D01*
X0432498Y01815D01*
X0431498D01*
X0455999Y0189499D02*
X0456998Y0189999D01*
X04719Y0181799D02*
X0473899D01*
X04729D01*
Y01788D01*
X0474899D02*
Y0181799D01*
X0476399D01*
X0476898Y0181299D01*
Y0180299D01*
X0476399Y01798D01*
X0474899D01*
X0477898Y01788D02*
X0479897Y0180799D01*
Y0181299D01*
X0479398Y0181799D01*
X0478398D01*
X0477898Y0181299D01*
Y01788D02*
X0479897D01*
X0480897Y0180299D02*
X0482896D01*
X0482397Y0181799D02*
X0480897Y0180299D01*
X0482397Y0181799D02*
Y01788D01*
X04859Y0178801D02*
X04864Y0178302D01*
X0487399D01*
X0487899Y0178801D01*
Y0179801D01*
X0487399Y0180301D01*
X04864D01*
X04859Y0179801D01*
Y0178801D01*
X04864Y0176802D02*
X04859Y0176302D01*
X04864Y0176802D02*
X0487899D01*
Y0177302D01*
Y0176302D01*
Y0176802D01*
X0488399D01*
X0488899Y0181301D02*
X04859D01*
Y01833D02*
X0488899D01*
X0487899Y01823D01*
X0488899Y0181301D01*
X0459496Y02119D02*
X0459996Y02124D01*
X0459496Y02119D02*
X0458496D01*
X0457996Y02124D01*
Y0214399D01*
X0458496Y0214899D01*
X0459496D01*
X0459996Y0214399D01*
M02*
