G04 Layer_Color=16711935*
%FSTAX25Y25*%
%MOIN*%
G70*
G01*
G75*
%ADD11C,0.07000*%
%ADD44C,0.01000*%
%ADD99C,0.03500*%
%ADD150C,0.06906*%
%ADD151R,0.06906X0.06906*%
%ADD152C,0.06900*%
%ADD153C,0.08880*%
%ADD154C,0.08487*%
%ADD155C,0.07700*%
%ADD156C,0.13211*%
%ADD157C,0.08500*%
%ADD158C,0.16400*%
%ADD159C,0.16000*%
%ADD160R,0.06906X0.06906*%
%ADD161C,0.03700*%
D11*
X01852Y02217D02*
D03*
Y02374D02*
D03*
Y02531D02*
D03*
X01943Y02969D02*
D03*
Y03126D02*
D03*
Y03283D02*
D03*
Y03719D02*
D03*
Y03876D02*
D03*
Y04033D02*
D03*
D44*
X024245Y008074D02*
X0246449D01*
X0247782Y0082073D01*
Y0083406D01*
X0246449Y0084739D01*
X024245D01*
X0246449D01*
X0247782Y0086072D01*
Y0087405D01*
X0246449Y0088738D01*
X024245D01*
Y008074D01*
X025178D02*
X0254446D01*
X0255779Y0082073D01*
Y0084739D01*
X0254446Y0086072D01*
X025178D01*
X0250447Y0084739D01*
Y0082073D01*
X025178Y008074D01*
X0258445Y0086072D02*
X0261111D01*
X0259778D01*
X0258445D01*
X0259778D02*
Y0082073D01*
X0261111Y008074D01*
X0266442Y0082073D02*
X0267775Y008074D01*
X0266442Y0082073D02*
Y0086072D01*
X0265109D01*
X0267775D01*
X0266442D01*
Y0087405D01*
X0259778D02*
Y0086072D01*
X0271774Y0084739D02*
Y0082073D01*
X0273107Y008074D01*
X0275773D01*
X0277105Y0082073D01*
Y0084739D01*
X0275773Y0086072D01*
X0273107D01*
X0271774Y0084739D01*
X0279771Y0086072D02*
X0281104D01*
X0282437Y0084739D01*
Y008074D01*
Y0084739D01*
X028377Y0086072D01*
X0285103Y0084739D01*
Y008074D01*
X0279771D02*
Y0086072D01*
X0295766D02*
X0297099Y0084739D01*
X0299765D01*
X0301098Y0083406D01*
Y0082073D01*
X0299765Y008074D01*
X0297099D01*
X0295766Y0082073D01*
Y0086072D02*
Y0087405D01*
X0297099Y0088738D01*
X0299765D01*
X0301098Y0087405D01*
X0305096Y0086072D02*
X0303763Y0084739D01*
Y0082073D01*
X0305096Y008074D01*
X0307762D01*
X0309095Y0082073D01*
Y0084739D01*
X0307762Y0086072D01*
X0305096D01*
X0311761Y0088738D02*
X0313094D01*
Y008074D01*
X0314427D01*
X0311761D01*
X0319758D02*
X0318425Y0082073D01*
Y0084739D01*
X0319758Y0086072D01*
X0323757D01*
Y0088738D02*
Y008074D01*
X0319758D01*
X0327756D02*
X0326423Y0082073D01*
Y0084739D01*
X0327756Y0086072D01*
X0330421D01*
X0331754Y0084739D01*
Y0083406D01*
X0326423D01*
X0327756Y008074D02*
X0330421D01*
X033442D02*
Y0083406D01*
X0335753Y0084739D01*
X0337086Y0086072D01*
X0338419D01*
X033442D02*
Y008074D01*
D99*
X0181Y0175154D02*
D03*
Y01785D02*
D03*
Y0181748D02*
D03*
X02485D02*
D03*
Y01785D02*
D03*
Y0175154D02*
D03*
X0315D02*
D03*
Y01785D02*
D03*
Y0181748D02*
D03*
X0382D02*
D03*
Y01785D02*
D03*
Y0175154D02*
D03*
X04485D02*
D03*
Y01785D02*
D03*
Y0181748D02*
D03*
X04634Y0307D02*
D03*
Y031D02*
D03*
Y0313D02*
D03*
D150*
X014725Y01265D02*
D03*
X015725D02*
D03*
X016725D02*
D03*
X017725D02*
D03*
X018725D02*
D03*
X0213812D02*
D03*
X0223813D02*
D03*
X0233812D02*
D03*
X0243812D02*
D03*
X0253813D02*
D03*
X0280375D02*
D03*
X0290375D02*
D03*
X0300375D02*
D03*
X0310375D02*
D03*
X0320375D02*
D03*
X0346937D02*
D03*
X0356938D02*
D03*
X0366937D02*
D03*
X0376938D02*
D03*
X0386937D02*
D03*
X04135D02*
D03*
X04235D02*
D03*
X04335D02*
D03*
X04435D02*
D03*
X04535D02*
D03*
X04965Y01505D02*
D03*
X05065D02*
D03*
Y01605D02*
D03*
X04965D02*
D03*
Y01705D02*
D03*
X05065D02*
D03*
Y01805D02*
D03*
X04965D02*
D03*
Y01905D02*
D03*
X05065D02*
D03*
Y02005D02*
D03*
X04965D02*
D03*
Y02105D02*
D03*
X05065D02*
D03*
Y02205D02*
D03*
X04965D02*
D03*
Y02305D02*
D03*
X05065D02*
D03*
Y02405D02*
D03*
X04965D02*
D03*
Y02505D02*
D03*
X05065D02*
D03*
Y02605D02*
D03*
X04965D02*
D03*
Y02705D02*
D03*
X05065D02*
D03*
Y02805D02*
D03*
X04965D02*
D03*
X05065Y02905D02*
D03*
X033Y0236D02*
D03*
X0316D02*
D03*
X0249Y0361D02*
D03*
X0233Y03605D02*
D03*
D151*
X0316Y0246D02*
D03*
X033D02*
D03*
X0249Y0351D02*
D03*
X0233Y03505D02*
D03*
X04965Y02905D02*
D03*
D152*
X01773Y0208D02*
D03*
X02017Y0267D02*
D03*
X01778Y0283D02*
D03*
X02022Y0342D02*
D03*
X01778Y0358D02*
D03*
X02022Y0417D02*
D03*
D153*
X0121362Y0204697D02*
D03*
Y0254303D02*
D03*
D154*
X01399Y03092D02*
D03*
D155*
X01222Y03092D02*
D03*
D156*
X01202Y037D02*
D03*
D157*
X0137228Y0364094D02*
D03*
Y0375905D02*
D03*
D158*
X01175Y0410501D02*
D03*
D159*
X01175Y01195D02*
D03*
X05425Y0119501D02*
D03*
Y0410501D02*
D03*
D160*
X013725Y01265D02*
D03*
X0203813D02*
D03*
X0270375D02*
D03*
X0336937D02*
D03*
X04035D02*
D03*
D161*
X0254933Y0252933D02*
D03*
Y0257067D02*
D03*
X0259067D02*
D03*
Y0252933D02*
D03*
M02*
